SplineFontDB: 3.0
FontName: ArundinaSansMono
FullName: Arundina Sans Mono
FamilyName: Arundina Sans Mono
Weight: Book
Copyright: Copyright (c) 2003 by Bitstream, Inc. All Rights Reserved.\nCopyright (c) 2007 by Software Industry Promotion Agency (Public Organization). All Rights Reserved.
Version: 1.23
ItalicAngle: 0
UnderlinePosition: -153
UnderlineWidth: 102
Ascent: 1638
Descent: 410
LayerCount: 2
Layer: 0 1 "Back"  1
Layer: 1 1 "Fore"  0
XUID: [1021 375 425136265 5877357]
FSType: 4
OS2Version: 2
OS2_WeightWidthSlopeOnly: 0
OS2_UseTypoMetrics: 1
CreationTime: 1131303360
ModificationTime: 1300009564
PfmFamily: 49
TTFWeight: 400
TTFWidth: 5
LineGap: 25
VLineGap: 0
Panose: 2 11 3 0 2 2 2 2 2 4
OS2TypoAscent: 0
OS2TypoAOffset: 1
OS2TypoDescent: 0
OS2TypoDOffset: 1
OS2TypoLinegap: 0
OS2WinAscent: -559
OS2WinAOffset: 1
OS2WinDescent: -103
OS2WinDOffset: 1
HheadAscent: -559
HheadAOffset: 1
HheadDescent: 103
HheadDOffset: 1
OS2SubXSize: 1434
OS2SubYSize: 1331
OS2SubXOff: 0
OS2SubYOff: 287
OS2SupXSize: 1434
OS2SupYSize: 1331
OS2SupXOff: 0
OS2SupYOff: 977
OS2StrikeYSize: 82
OS2StrikeYPos: 512
OS2FamilyClass: 1285
OS2Vendor: 'BLWK'
Lookup: 4 0 0 "'frac' Diagonal Fractions in Latin lookup 0"  {"'frac' Diagonal Fractions in Latin lookup 0 subtable"  } ['frac' ('latn' <'dflt' > ) ]
Lookup: 6 0 0 "'liga' Standard Ligatures in Latin lookup 1"  {"'liga' Standard Ligatures in Latin lookup 1 subtable"  } ['liga' ('latn' <'dflt' > ) ]
Lookup: 6 0 0 "'liga' Standard Ligatures in Latin lookup 2"  {"'liga' Standard Ligatures in Latin lookup 2 subtable"  } ['liga' ('latn' <'dflt' > ) ]
Lookup: 6 0 0 "'liga' Standard Ligatures in Latin lookup 3"  {"'liga' Standard Ligatures in Latin lookup 3 subtable"  } ['liga' ('latn' <'dflt' > ) ]
Lookup: 6 0 0 "'liga' Standard Ligatures in Latin lookup 4"  {"'liga' Standard Ligatures in Latin lookup 4 subtable"  } ['liga' ('latn' <'dflt' > ) ]

StartChar: .notdef
Encoding: 65536 -1 0
Width: 1234
VWidth: 3393
Flags: W
HStem: -363 114<220 1014> 1331 114<220 1014>
VStem: 104 116<-249 1331> 1014 116<-249 1331>
LayerCount: 2
Fore
SplineSet
104 1445 m 1,0,-1
 1130 1445 l 1,1,-1
 1130 -363 l 1,2,-1
 104 -363 l 1,3,-1
 104 1445 l 1,0,-1
1014 -249 m 1,4,-1
 1014 1331 l 1,5,-1
 220 1331 l 1,6,-1
 220 -249 l 1,7,-1
 1014 -249 l 1,4,-1
EndSplineSet
EndChar

StartChar: exclam
Encoding: 33 33 4
Width: 1234
VWidth: 3393
Flags: W
HStem: 0 255<515 719> 1473 20G<515 719>
VStem: 515 204<0 255 722.009 1493>
LayerCount: 2
Fore
SplineSet
719 1493 m 1,0,-1
 719 838 l 1,1,-1
 699 482 l 1,2,-1
 537 482 l 1,3,-1
 515 838 l 1,4,-1
 515 1493 l 1,5,-1
 719 1493 l 1,0,-1
719 255 m 1,6,-1
 719 0 l 1,7,-1
 515 0 l 1,8,-1
 515 255 l 1,9,-1
 719 255 l 1,6,-1
EndSplineSet
EndChar

StartChar: quotedbl
Encoding: 34 34 5
Width: 1234
VWidth: 3393
Flags: W
HStem: 1473 20G<340 512 722 896>
VStem: 340 172<940 1493> 722 174<940 1493 940 1493 940 940>
LayerCount: 2
Fore
SplineSet
896 940 m 1,0,-1
 722 940 l 1,1,-1
 722 1493 l 1,2,-1
 896 1493 l 1,3,-1
 896 940 l 1,0,-1
512 940 m 1,4,-1
 340 940 l 1,5,-1
 340 1493 l 1,6,-1
 512 1493 l 1,7,-1
 512 940 l 1,4,-1
EndSplineSet
EndChar

StartChar: numbersign
Encoding: 35 35 6
Width: 1234
VWidth: 3393
Flags: W
HStem: 0 21G<156 320.121 560 726.976> 414 153<3 262 457 664 865 1117> 903 153<119 383 580 787 988 1231>
LayerCount: 2
Fore
SplineSet
580 1056 m 1,0,-1
 825 1056 l 1,1,-1
 930 1473 l 1,2,-1
 1092 1473 l 1,3,-1
 988 1056 l 1,4,-1
 1231 1056 l 1,5,-1
 1231 903 l 1,6,-1
 949 903 l 1,7,-1
 865 567 l 1,8,-1
 1117 567 l 1,9,-1
 1117 414 l 1,10,-1
 825 414 l 1,11,-1
 722 0 l 1,12,-1
 560 0 l 1,13,-1
 664 414 l 1,14,-1
 421 414 l 1,15,-1
 315 0 l 1,16,-1
 156 0 l 1,17,-1
 262 414 l 1,18,-1
 3 414 l 1,19,-1
 3 567 l 1,20,-1
 298 567 l 1,21,-1
 383 903 l 1,22,-1
 119 903 l 1,23,-1
 119 1056 l 1,24,-1
 421 1056 l 1,25,-1
 525 1473 l 1,26,-1
 686 1473 l 1,27,-1
 580 1056 l 1,0,-1
543 903 m 1,28,-1
 457 567 l 1,29,-1
 706 567 l 1,30,-1
 787 903 l 1,31,-1
 543 903 l 1,28,-1
EndSplineSet
EndChar

StartChar: dollar
Encoding: 36 36 7
Width: 1234
VWidth: 3393
Flags: W
HStem: 3 143<693 844.402> 1185 139<449.18 593 693 851.015> 1538 20G<593 693>
VStem: 191 179<851.92 1107.36> 593 100<-302 0 146 580 771 1181 1324 1558> 926 191<225.103 498.256>
LayerCount: 2
Fore
SplineSet
693 146 m 1,0,1
 804 149 804 149 865 207 c 128,-1,2
 926 265 926 265 926 366 c 0,3,4
 926 457 926 457 870.5 510 c 128,-1,5
 815 563 815 563 693 580 c 1,6,-1
 693 146 l 1,0,1
593 1185 m 1,7,8
 489 1181 489 1181 429.5 1125 c 128,-1,9
 370 1069 370 1069 370 974 c 0,10,11
 370 807 370 807 593 771 c 1,12,-1
 593 1185 l 1,7,8
593 -302 m 1,13,-1
 590 0 l 1,14,15
 391 10 391 10 191 91 c 1,16,-1
 191 272 l 1,17,18
 391 149 391 149 593 143 c 1,19,-1
 593 600 l 1,20,21
 191 661 191 661 191 964 c 0,22,23
 191 1123 191 1123 295 1215 c 0,24,25
 404 1311 404 1311 593 1324 c 1,26,-1
 593 1558 l 1,27,-1
 693 1558 l 1,28,-1
 693 1324 l 1,29,30
 852 1314 852 1314 1017 1263 c 1,31,-1
 1017 1089 l 1,32,33
 933 1130 933 1130 853.5 1154 c 128,-1,34
 774 1178 774 1178 693 1181 c 1,35,-1
 693 751 l 1,36,37
 900 719 900 719 1008.5 622 c 128,-1,38
 1117 525 1117 525 1117 370 c 0,39,40
 1117 217 1117 217 998 116 c 0,41,42
 882 10 882 10 693 3 c 1,43,-1
 693 -302 l 1,44,-1
 593 -302 l 1,13,-1
EndSplineSet
EndChar

StartChar: percent
Encoding: 37 37 8
Width: 1234
VWidth: 3393
Flags: W
HStem: 0 136<757.523 1004.13> 505 136<761.682 998.729> 794 136<227.432 474.856> 1296 136<227.783 472.239>
VStem: 33 136<988.248 1238.64> 537 136<992.94 1231.51> 560 136<198.628 439.193> 1065 136<198.477 439.202>
LayerCount: 2
Fore
SplineSet
696 320 m 0,0,1
 696 240 696 240 751 187 c 0,2,3
 800 136 800 136 878 136 c 256,4,5
 958 136 958 136 1011 187 c 0,6,7
 1065 249 1065 249 1065 320 c 256,8,9
 1065 391 1065 391 1011 451 c 0,10,11
 949 505 949 505 878 505 c 0,12,13
 804 505 804 505 751 451 c 0,14,15
 696 401 696 401 696 320 c 0,0,1
560 320 m 0,16,17
 560 451 560 451 655 547 c 256,18,19
 751 641 751 641 878 641 c 0,20,21
 1011 641 1011 641 1107 547 c 0,22,23
 1201 444 1201 444 1201 320 c 0,24,25
 1201 191 1201 191 1110 91 c 0,26,27
 1014 0 1014 0 878 0 c 256,28,29
 744 0 744 0 651 91 c 256,30,31
 560 184 560 184 560 320 c 0,16,17
85 560 m 1,32,-1
 1130 981 l 1,33,-1
 1171 882 l 1,34,-1
 123 466 l 1,35,-1
 85 560 l 1,32,-1
169 1114 m 0,36,37
 169 1032 169 1032 220 981 c 256,38,39
 272 930 272 930 353 930 c 0,40,41
 431 930 431 930 482 981 c 0,42,43
 537 1036 537 1036 537 1114 c 256,44,45
 537 1191 537 1191 482 1243 c 0,46,47
 431 1296 431 1296 353 1296 c 0,48,49
 278 1296 278 1296 220 1246 c 0,50,51
 169 1191 169 1191 169 1114 c 0,36,37
33 1114 m 256,52,53
 33 1249 33 1249 126 1341 c 256,54,55
 217 1432 217 1432 353 1432 c 256,56,57
 489 1432 489 1432 580 1341 c 0,58,59
 673 1243 673 1243 673 1114 c 0,60,61
 673 978 673 978 580 886 c 256,62,63
 489 794 489 794 353 794 c 256,64,65
 217 794 217 794 126 886 c 256,66,67
 33 978 33 978 33 1114 c 256,52,53
EndSplineSet
EndChar

StartChar: ampersand
Encoding: 38 38 9
Width: 1234
VWidth: 3393
Flags: W
HStem: -30 156<406.133 761.909> 1367 154<469.998 820.045>
VStem: 58 176<295.844 646.153> 237 177<1060.05 1311.56> 1039 162<417.024 722.785 722.785 761>
LayerCount: 2
Fore
SplineSet
964 350 m 1,0,1
 1042 447 1042 447 1042 651 c 0,2,3
 1042 668 1042 668 1042 692 c 128,-1,4
 1042 716 1042 716 1039 754 c 2,5,-1
 1039 761 l 1,6,-1
 1201 761 l 1,7,-1
 1201 722 l 2,8,9
 1201 401 1201 401 1052 230 c 1,10,-1
 1221 0 l 1,11,-1
 1007 0 l 1,12,-1
 930 109 l 1,13,14
 764 -30 764 -30 557 -30 c 0,15,16
 343 -30 343 -30 197 104 c 0,17,18
 58 244 58 244 58 444 c 0,19,20
 58 719 58 719 336 916 c 1,21,22
 237 1056 237 1056 237 1198 c 0,23,24
 237 1350 237 1350 336 1435 c 256,25,26
 434 1521 434 1521 608 1521 c 0,27,28
 739 1521 739 1521 875 1476 c 1,29,-1
 875 1292 l 1,30,31
 761 1367 761 1367 621 1367 c 0,32,33
 522 1367 522 1367 468 1321.5 c 128,-1,34
 414 1276 414 1276 414 1198 c 0,35,36
 414 1133 414 1133 441 1075 c 0,37,38
 472 1007 472 1007 547 910 c 2,39,-1
 964 350 l 1,0,1
418 804 m 1,40,41
 234 661 234 661 234 476 c 0,42,43
 234 323 234 323 333 224 c 0,44,45
 437 126 437 126 587 126 c 0,46,47
 679 126 679 126 767 172 c 0,48,49
 815 200 815 200 845 224 c 1,50,-1
 418 804 l 1,40,41
EndSplineSet
EndChar

StartChar: quotesingle
Encoding: 39 39 10
Width: 1234
VWidth: 3393
Flags: W
HStem: 1473 20G<529 703>
VStem: 529 174<940 1493 940 1493 940 940>
LayerCount: 2
Fore
SplineSet
703 940 m 1,0,-1
 529 940 l 1,1,-1
 529 1493 l 1,2,-1
 703 1493 l 1,3,-1
 703 940 l 1,0,-1
EndSplineSet
EndChar

StartChar: parenleft
Encoding: 40 40 11
Width: 1234
VWidth: 3393
Flags: W
VStem: 428 193<291.255 984.469>
LayerCount: 2
Fore
SplineSet
886 1554 m 1,0,1
 621 1104 621 1104 621 645 c 0,2,3
 621 194 621 194 886 -272 c 1,4,-1
 726 -272 l 1,5,6
 573 -30 573 -30 500.5 194 c 128,-1,7
 428 418 428 418 428 645 c 0,8,9
 428 1089 428 1089 726 1554 c 1,10,-1
 886 1554 l 1,0,1
EndSplineSet
EndChar

StartChar: parenright
Encoding: 41 41 12
Width: 1234
VWidth: 3393
Flags: W
VStem: 615 192<304.383 982.828>
LayerCount: 2
Fore
SplineSet
509 1554 m 1,0,1
 807 1089 807 1089 807 645 c 256,2,3
 807 200 807 200 509 -272 c 1,4,-1
 350 -272 l 1,5,6
 482 -38 482 -38 548.5 188 c 128,-1,7
 615 414 615 414 615 645 c 0,8,9
 615 1097 615 1097 350 1554 c 1,10,-1
 509 1554 l 1,0,1
EndSplineSet
EndChar

StartChar: asterisk
Encoding: 42 42 13
Width: 1234
VWidth: 3393
Flags: W
HStem: 1501 20G<560 676>
VStem: 560 116<587 964 1143 1521 587 1521 587 587>
LayerCount: 2
Fore
SplineSet
709 1056 m 1,0,-1
 1069 858 l 1,1,-1
 1011 761 l 1,2,-1
 676 964 l 1,3,-1
 676 587 l 1,4,-1
 560 587 l 1,5,-1
 560 964 l 1,6,-1
 224 761 l 1,7,-1
 166 858 l 1,8,-1
 525 1056 l 1,9,-1
 166 1249 l 1,10,-1
 224 1347 l 1,11,-1
 560 1143 l 1,12,-1
 560 1521 l 1,13,-1
 676 1521 l 1,14,-1
 676 1143 l 1,15,-1
 1011 1347 l 1,16,-1
 1069 1249 l 1,17,-1
 709 1056 l 1,0,-1
EndSplineSet
EndChar

StartChar: plus
Encoding: 43 43 14
Width: 1234
VWidth: 3393
Flags: W
HStem: 557 169<88 534 703 1147>
VStem: 534 169<113 557 726 1171>
LayerCount: 2
Fore
SplineSet
703 726 m 1,0,-1
 1147 726 l 1,1,-1
 1147 557 l 1,2,-1
 703 557 l 1,3,-1
 703 113 l 1,4,-1
 534 113 l 1,5,-1
 534 557 l 1,6,-1
 88 557 l 1,7,-1
 88 726 l 1,8,-1
 534 726 l 1,9,-1
 534 1171 l 1,10,-1
 703 1171 l 1,11,-1
 703 726 l 1,0,-1
EndSplineSet
EndChar

StartChar: comma
Encoding: 44 44 15
Width: 1234
VWidth: 3393
Flags: W
HStem: -288 590<502 557>
VStem: 502 252<94 302>
LayerCount: 2
Fore
SplineSet
754 302 m 1,0,-1
 754 94 l 1,1,-1
 557 -288 l 1,2,-1
 404 -288 l 1,3,-1
 502 94 l 1,4,-1
 502 302 l 1,5,-1
 754 302 l 1,0,-1
EndSplineSet
EndChar

StartChar: hyphen
Encoding: 45 45 16
Width: 1234
VWidth: 3393
Flags: W
HStem: 479 166<356 878 356 878 356 356>
LayerCount: 2
Fore
SplineSet
878 645 m 1,0,-1
 878 479 l 1,1,-1
 356 479 l 1,2,-1
 356 645 l 1,3,-1
 878 645 l 1,0,-1
EndSplineSet
EndChar

StartChar: period
Encoding: 46 46 17
Width: 1234
VWidth: 3393
Flags: W
HStem: 0 305<489 744>
VStem: 489 255<0 305>
LayerCount: 2
Fore
SplineSet
744 305 m 1,0,-1
 744 0 l 1,1,-1
 489 0 l 1,2,-1
 489 305 l 1,3,-1
 744 305 l 1,0,-1
EndSplineSet
EndChar

StartChar: slash
Encoding: 47 47 18
Width: 1234
VWidth: 3393
Flags: W
HStem: 1473 20G<880.629 1079>
VStem: 101 978<-191 1493 -191 -191>
LayerCount: 2
Fore
SplineSet
1079 1493 m 1,0,-1
 292 -191 l 1,1,-1
 101 -191 l 1,2,-1
 890 1493 l 1,3,-1
 1079 1493 l 1,0,-1
EndSplineSet
EndChar

StartChar: zero
Encoding: 48 48 19
Width: 1234
VWidth: 3393
Flags: W
HStem: -30 163<489.746 745.83> 618 268<523.192 707.716> 1360 161<489.635 746.496>
VStem: 133 203<359.051 1135.36> 482 269<656.285 843.716> 900 204<359.051 1135.36>
LayerCount: 2
Fore
SplineSet
482 751 m 0,0,1
 482 804 482 804 522 845 c 0,2,3
 560 886 560 886 615 886 c 256,4,5
 668 886 668 886 709 845 c 256,6,7
 751 804 751 804 751 751 c 256,8,9
 751 696 751 696 709 655 c 0,10,11
 673 618 673 618 615 618 c 0,12,13
 563 618 563 618 519 655 c 0,14,15
 482 693 482 693 482 751 c 0,0,1
618 1360 m 256,16,17
 336 1360 336 1360 336 747 c 256,18,19
 336 133 336 133 618 133 c 256,20,21
 900 133 900 133 900 747 c 256,22,23
 900 1360 900 1360 618 1360 c 256,16,17
618 1521 m 256,24,25
 1104 1521 1104 1521 1104 747 c 0,26,27
 1104 363 1104 363 981 166.5 c 128,-1,28
 858 -30 858 -30 618 -30 c 256,29,30
 376 -30 376 -30 254.5 166.5 c 128,-1,31
 133 363 133 363 133 747 c 0,32,33
 133 1521 133 1521 618 1521 c 256,24,25
EndSplineSet
EndChar

StartChar: one
Encoding: 49 49 20
Width: 1234
VWidth: 3393
Flags: W
HStem: 0 169<272 583 784 1097> 1473 20G<488.915 784>
VStem: 583 201<169 1314>
LayerCount: 2
Fore
SplineSet
583 169 m 1,0,-1
 583 1314 l 1,1,-1
 249 1234 l 1,2,-1
 249 1422 l 1,3,-1
 583 1493 l 1,4,-1
 784 1493 l 1,5,-1
 784 169 l 1,6,-1
 1097 169 l 1,7,-1
 1097 0 l 1,8,-1
 272 0 l 1,9,-1
 272 169 l 1,10,-1
 583 169 l 1,0,-1
EndSplineSet
EndChar

StartChar: two
Encoding: 50 50 21
Width: 1234
VWidth: 3393
Flags: W
HStem: 0 169<373 1059> 1218 21G<162 274> 1350 171<343.714 736.063>
VStem: 842 207<921.847 1246.86>
LayerCount: 2
Fore
SplineSet
1059 169 m 1,0,-1
 1059 0 l 1,1,-1
 152 0 l 1,2,-1
 152 169 l 1,3,4
 249 268 249 268 330 354.5 c 128,-1,5
 411 441 411 441 479 519 c 0,6,7
 621 673 621 673 673 732 c 0,8,9
 771 852 771 852 807 930 c 0,10,11
 842 1001 842 1001 842 1082 c 0,12,13
 842 1211 842 1211 769 1280.5 c 128,-1,14
 696 1350 696 1350 567 1350 c 0,15,16
 386 1350 386 1350 162 1218 c 1,17,-1
 162 1422 l 1,18,19
 376 1521 376 1521 563 1521 c 0,20,21
 787 1521 787 1521 916 1405 c 0,22,23
 1049 1289 1049 1289 1049 1100 c 0,24,25
 1049 1001 1049 1001 1005 905.5 c 128,-1,26
 961 810 961 810 862 696 c 0,27,28
 835 661 835 661 794.5 617 c 128,-1,29
 754 573 754 573 699 515 c 0,30,31
 593 401 593 401 373 169 c 1,32,-1
 1059 169 l 1,0,-1
EndSplineSet
EndChar

StartChar: three
Encoding: 51 51 22
Width: 1234
VWidth: 3393
Flags: W
HStem: -30 173<283.377 749.186> 716 166<398 742.375> 1350 171<286.273 747.945>
VStem: 845 201<974.36 1259.53> 878 201<264.521 587.954>
LayerCount: 2
Fore
SplineSet
777 800 m 1,0,1
 1079 716 1079 716 1079 414 c 0,2,3
 1079 204 1079 204 940 88 c 0,4,5
 800 -30 800 -30 557 -30 c 0,6,7
 353 -30 353 -30 136 45 c 1,8,-1
 136 249 l 1,9,10
 343 143 343 143 537 143 c 0,11,12
 703 143 703 143 790.5 215.5 c 128,-1,13
 878 288 878 288 878 431 c 0,14,15
 878 560 878 560 790 638 c 256,16,17
 703 716 703 716 550 716 c 2,18,-1
 398 716 l 1,19,-1
 398 882 l 1,20,-1
 550 882 l 2,21,22
 693 882 693 882 769 943 c 128,-1,23
 845 1004 845 1004 845 1114 c 0,24,25
 845 1228 845 1228 772 1289 c 128,-1,26
 699 1350 699 1350 567 1350 c 0,27,28
 398 1350 398 1350 184 1273 c 1,29,-1
 184 1460 l 1,30,31
 424 1521 424 1521 567 1521 c 0,32,33
 784 1521 784 1521 913 1412 c 0,34,35
 1046 1299 1046 1299 1046 1120 c 0,36,37
 1046 868 1046 868 777 800 c 1,0,1
EndSplineSet
EndChar

StartChar: four
Encoding: 52 52 23
Width: 1234
VWidth: 3393
Flags: W
HStem: 0 21G<736 936> 356 163<265 736 936 1137> 1473 20G<690.273 936>
VStem: 736 200<0 356 519 1311>
LayerCount: 2
Fore
SplineSet
265 519 m 1,0,-1
 736 519 l 1,1,-1
 736 1311 l 1,2,-1
 265 519 l 1,0,-1
936 1493 m 1,3,-1
 936 519 l 1,4,-1
 1137 519 l 1,5,-1
 1137 356 l 1,6,-1
 936 356 l 1,7,-1
 936 0 l 1,8,-1
 736 0 l 1,9,-1
 736 356 l 1,10,-1
 101 356 l 1,11,-1
 101 547 l 1,12,-1
 703 1493 l 1,13,-1
 936 1493 l 1,3,-1
EndSplineSet
EndChar

StartChar: five
Encoding: 53 53 24
Width: 1234
VWidth: 3393
Flags: W
HStem: -30 173<259.848 719.721> 819 169<392.523 708.906> 1324 169<391 964>
VStem: 143 926<240 240> 207 184<958 1324> 865 204<285.759 668.009>
LayerCount: 2
Fore
SplineSet
964 1493 m 1,0,-1
 964 1324 l 1,1,-1
 391 1324 l 1,2,-1
 391 958 l 1,3,4
 479 988 479 988 567 988 c 0,5,6
 797 988 797 988 933 852 c 256,7,8
 1069 716 1069 716 1069 479 c 256,9,10
 1069 240 1069 240 926 109 c 0,11,12
 780 -30 780 -30 537 -30 c 0,13,14
 308 -30 308 -30 143 33 c 1,15,-1
 143 240 l 1,16,17
 320 143 320 143 519 143 c 0,18,19
 689 143 689 143 777 229 c 128,-1,20
 865 315 865 315 865 479 c 0,21,22
 865 638 865 638 774 729 c 0,23,24
 676 819 676 819 512 819 c 0,25,26
 346 819 346 819 207 744 c 1,27,-1
 207 1493 l 1,28,-1
 964 1493 l 1,0,-1
EndSplineSet
EndChar

StartChar: six
Encoding: 54 54 25
Width: 1234
VWidth: 3393
Flags: W
HStem: -30 159<479.625 787.023> 832 156<483.667 785.556> 1350 171<528.376 931.018>
VStem: 133 220<342.754 897.842> 133 187<780 1092.69> 903 201<254.256 706.848>
LayerCount: 2
Fore
SplineSet
991 1276 m 1,0,1
 862 1350 862 1350 709 1350 c 0,2,3
 320 1350 320 1350 320 780 c 1,4,5
 366 878 366 878 453 933 c 128,-1,6
 540 988 540 988 648 988 c 0,7,8
 865 988 865 988 981 855 c 0,9,10
 1104 722 1104 722 1104 479 c 0,11,12
 1104 244 1104 244 981 104 c 0,13,14
 858 -30 858 -30 635 -30 c 0,15,16
 379 -30 379 -30 255 156 c 0,17,18
 133 346 133 346 133 747 c 0,19,20
 133 1127 133 1127 278.5 1324 c 128,-1,21
 424 1521 424 1521 703 1521 c 0,22,23
 848 1521 848 1521 991 1463 c 1,24,-1
 991 1276 l 1,0,1
631 832 m 0,25,26
 505 832 505 832 428 736 c 0,27,28
 353 641 353 641 353 479 c 0,29,30
 353 323 353 323 428 220 c 0,31,32
 505 129 505 129 631 129 c 0,33,34
 903 129 903 129 903 479 c 0,35,36
 903 832 903 832 631 832 c 0,25,26
EndSplineSet
EndChar

StartChar: seven
Encoding: 55 55 26
Width: 1234
VWidth: 3393
Flags: W
HStem: 0 21G<336 554.557> 1324 169<139 855>
VStem: 139 940<1408 1493>
LayerCount: 2
Fore
SplineSet
1079 1493 m 1,0,-1
 1079 1408 l 1,1,-1
 547 0 l 1,2,-1
 336 0 l 1,3,-1
 855 1324 l 1,4,-1
 139 1324 l 1,5,-1
 139 1493 l 1,6,-1
 1079 1493 l 1,0,-1
EndSplineSet
EndChar

StartChar: eight
Encoding: 56 56 27
Width: 1234
VWidth: 3393
Flags: W
HStem: -30 159<449.905 789.973> 709 159<450.226 780.954> 1364 157<450.851 780.63>
VStem: 133 203<245.021 596.445> 166 200<956.122 1281.03> 865 204<956.122 1281.03> 900 204<239.74 596.445>
LayerCount: 2
Fore
SplineSet
618 709 m 256,0,1
 482 709 482 709 409 634.5 c 128,-1,2
 336 560 336 560 336 421 c 256,3,4
 336 282 336 282 411 205.5 c 128,-1,5
 486 129 486 129 618 129 c 0,6,7
 754 129 754 129 827 203.5 c 128,-1,8
 900 278 900 278 900 421 c 0,9,10
 900 560 900 560 827 634.5 c 128,-1,11
 754 709 754 709 618 709 c 256,0,1
441 794 m 1,12,13
 312 828 312 828 239 916 c 128,-1,14
 166 1004 166 1004 166 1133 c 0,15,16
 166 1314 166 1314 288 1415 c 0,17,18
 408 1521 408 1521 618 1521 c 256,19,20
 828 1521 828 1521 946 1415 c 0,21,22
 1069 1314 1069 1314 1069 1133 c 0,23,24
 1069 1004 1069 1004 996 916 c 128,-1,25
 923 828 923 828 794 794 c 1,26,27
 1104 726 1104 726 1104 401 c 0,28,29
 1104 197 1104 197 974 85 c 0,30,31
 842 -30 842 -30 618 -30 c 256,32,33
 394 -30 394 -30 258 85 c 0,34,35
 133 197 133 197 133 401 c 0,36,37
 133 726 133 726 441 794 c 1,12,13
366 1117 m 256,38,39
 366 868 366 868 618 868 c 0,40,41
 865 868 865 868 865 1117 c 256,42,43
 865 1364 865 1364 618 1364 c 0,44,45
 366 1364 366 1364 366 1117 c 256,38,39
EndSplineSet
EndChar

StartChar: nine
Encoding: 57 57 28
Width: 1234
VWidth: 3393
Flags: W
HStem: -30 173<364.546 700.143> 505 156<440.39 744.631> 1364 157<441.402 744.229>
VStem: 126 200<786.899 1240.49> 872 225<593.855 1148.02> 910 187<400.307 713>
LayerCount: 2
Fore
SplineSet
597 661 m 0,0,1
 726 661 726 661 797 757 c 0,2,3
 872 845 872 845 872 1014 c 0,4,5
 872 1181 872 1181 797 1269 c 0,6,7
 726 1364 726 1364 597 1364 c 0,8,9
 326 1364 326 1364 326 1014 c 0,10,11
 326 661 326 661 597 661 c 0,0,1
237 217 m 1,12,13
 366 143 366 143 519 143 c 0,14,15
 910 143 910 143 910 713 c 1,16,17
 862 615 862 615 775.5 560 c 128,-1,18
 689 505 689 505 580 505 c 0,19,20
 366 505 366 505 244 638 c 0,21,22
 126 774 126 774 126 1014 c 256,23,24
 126 1256 126 1256 249 1389 c 256,25,26
 370 1521 370 1521 593 1521 c 0,27,28
 852 1521 852 1521 974 1334 c 256,29,30
 1097 1147 1097 1147 1097 747 c 0,31,32
 1097 366 1097 366 950.5 168 c 128,-1,33
 804 -30 804 -30 525 -30 c 0,34,35
 454 -30 454 -30 379.5 -13.5 c 128,-1,36
 305 3 305 3 237 30 c 1,37,-1
 237 217 l 1,12,13
EndSplineSet
EndChar

StartChar: colon
Encoding: 58 58 29
Width: 1234
VWidth: 3393
Flags: W
HStem: 0 305<489 744> 761 304<489 744>
VStem: 489 255<0 305 761 1065>
LayerCount: 2
Fore
SplineSet
744 1065 m 1,0,-1
 744 761 l 1,1,-1
 489 761 l 1,2,-1
 489 1065 l 1,3,-1
 744 1065 l 1,0,-1
744 305 m 1,4,-1
 744 0 l 1,5,-1
 489 0 l 1,6,-1
 489 305 l 1,7,-1
 744 305 l 1,4,-1
EndSplineSet
EndChar

StartChar: semicolon
Encoding: 59 59 30
Width: 1234
VWidth: 3393
Flags: W
HStem: 761 304<489 744>
VStem: 502 252<94 302 761 1065>
LayerCount: 2
Fore
SplineSet
754 302 m 1,0,-1
 754 94 l 1,1,-1
 557 -288 l 1,2,-1
 404 -288 l 1,3,-1
 502 94 l 1,4,-1
 502 302 l 1,5,-1
 754 302 l 1,0,-1
744 1065 m 1,6,-1
 744 761 l 1,7,-1
 489 761 l 1,8,-1
 489 1065 l 1,9,-1
 744 1065 l 1,6,-1
EndSplineSet
EndChar

StartChar: less
Encoding: 60 60 31
Width: 1234
VWidth: 3393
Flags: W
HStem: 143 1000<1147 1147 1147 1147>
LayerCount: 2
Fore
SplineSet
295 641 m 1,0,-1
 1147 326 l 1,1,-1
 1147 143 l 1,2,-1
 88 560 l 1,3,-1
 88 726 l 1,4,-1
 1147 1143 l 1,5,-1
 1147 961 l 1,6,-1
 295 641 l 1,0,-1
EndSplineSet
EndChar

StartChar: equal
Encoding: 61 61 32
Width: 1234
VWidth: 3393
Flags: W
HStem: 353 172<88 1147> 761 169<88 1147>
LayerCount: 2
Fore
SplineSet
1147 525 m 1,0,-1
 1147 353 l 1,1,-1
 88 353 l 1,2,-1
 88 525 l 1,3,-1
 1147 525 l 1,0,-1
1147 930 m 1,4,-1
 1147 761 l 1,5,-1
 88 761 l 1,6,-1
 88 930 l 1,7,-1
 1147 930 l 1,4,-1
EndSplineSet
EndChar

StartChar: greater
Encoding: 62 62 33
Width: 1234
VWidth: 3393
Flags: W
HStem: 143 1000<88 88 88 88>
LayerCount: 2
Fore
SplineSet
88 1143 m 1,0,-1
 1147 726 l 1,1,-1
 1147 560 l 1,2,-1
 88 143 l 1,3,-1
 88 326 l 1,4,-1
 940 641 l 1,5,-1
 88 961 l 1,6,-1
 88 1143 l 1,0,-1
EndSplineSet
EndChar

StartChar: question
Encoding: 63 63 34
Width: 1234
VWidth: 3393
Flags: W
HStem: 0 255<489 693> 1357 164<411.918 759.902>
VStem: 495 191<0 255 401 641.59> 838 204<1067.7 1281.59>
LayerCount: 2
Fore
SplineSet
495 401 m 1,0,-1
 495 557 l 2,1,2
 495 651 495 651 525 722 c 0,3,4
 560 794 560 794 641 872 c 2,5,-1
 729 961 l 2,6,7
 797 1029 797 1029 815 1065 c 0,8,9
 838 1104 838 1104 838 1157 c 0,10,11
 838 1249 838 1249 774 1302 c 256,12,13
 709 1357 709 1357 597 1357 c 0,14,15
 447 1357 447 1357 244 1221 c 1,16,-1
 244 1408 l 1,17,18
 434 1521 434 1521 635 1521 c 0,19,20
 825 1521 825 1521 930 1425 c 0,21,22
 1042 1331 1042 1331 1042 1168 c 0,23,24
 1042 1089 1042 1089 1007 1024 c 0,25,26
 991 994 991 994 958.5 955 c 128,-1,27
 926 916 926 916 878 868 c 2,28,-1
 790 784 l 2,29,30
 722 716 722 716 703 676 c 0,31,32
 686 631 686 631 686 570 c 2,33,-1
 686 525 l 1,34,-1
 686 401 l 1,35,-1
 495 401 l 1,0,-1
693 255 m 1,36,-1
 693 0 l 1,37,-1
 489 0 l 1,38,-1
 489 255 l 1,39,-1
 693 255 l 1,36,-1
EndSplineSet
EndChar

StartChar: at
Encoding: 64 64 35
Width: 1234
VWidth: 3393
Flags: W
HStem: -320 144<547.27 1012.88> 116 146<664.897 936.094> 832 146<666.638 934.959> 1256 143<502.309 882.008>
VStem: 27 149<237.594 862.429> 414 153<364.41 727.296> 1036 145<136 249 364.437 726.535 845 1088.83>
LayerCount: 2
Fore
SplineSet
1039 547 m 256,0,1
 1039 679 1039 679 974 754 c 0,2,3
 913 832 913 832 804 832 c 0,4,5
 699 832 699 832 631 754 c 0,6,7
 567 679 567 679 567 547 c 256,8,9
 567 414 567 414 631 336 c 0,10,11
 696 262 696 262 804 262 c 256,12,13
 913 262 913 262 974 336 c 0,14,15
 1039 414 1039 414 1039 547 c 256,0,1
1036 136 m 1,16,-1
 1036 249 l 1,17,18
 998 184 998 184 931.5 150 c 128,-1,19
 865 116 865 116 784 116 c 0,20,21
 621 116 621 116 519 237 c 0,22,23
 414 356 414 356 414 547 c 256,24,25
 414 736 414 736 519 855 c 0,26,27
 621 978 621 978 784 978 c 0,28,29
 865 978 865 978 931.5 942 c 128,-1,30
 998 906 998 906 1036 845 c 1,31,-1
 1036 910 l 2,32,33
 1036 1062 1036 1062 946 1160 c 0,34,35
 858 1256 858 1256 713 1256 c 0,36,37
 466 1256 466 1256 323 1062 c 0,38,39
 176 875 176 875 176 543 c 256,40,41
 176 210 176 210 343 20 c 0,42,43
 505 -176 505 -176 780 -176 c 0,44,45
 886 -176 886 -176 1001 -136 c 1,46,-1
 1049 -272 l 1,47,48
 916 -320 916 -320 804 -320 c 0,49,50
 447 -320 447 -320 237 -85 c 0,51,52
 27 146 27 146 27 543 c 0,53,54
 27 930 27 930 214 1163 c 0,55,56
 404 1399 404 1399 719 1399 c 0,57,58
 930 1399 930 1399 1056 1263 c 256,59,60
 1181 1127 1181 1127 1181 906 c 2,61,-1
 1181 136 l 1,62,-1
 1036 136 l 1,16,-1
EndSplineSet
EndChar

StartChar: A
Encoding: 65 65 36
Width: 1234
VWidth: 3393
Flags: W
HStem: 0 21G<38 254.32 982.373 1198> 391 162<404 832> 1473 20G<488.878 745.149>
LayerCount: 2
Fore
SplineSet
404 553 m 1,0,-1
 832 553 l 1,1,-1
 618 1317 l 1,2,-1
 404 553 l 1,0,-1
739 1493 m 1,3,-1
 1198 0 l 1,4,-1
 988 0 l 1,5,-1
 878 391 l 1,6,-1
 353 391 l 1,7,-1
 249 0 l 1,8,-1
 38 0 l 1,9,-1
 495 1493 l 1,10,-1
 739 1493 l 1,3,-1
EndSplineSet
EndChar

StartChar: B
Encoding: 66 66 37
Width: 1234
VWidth: 3393
Flags: W
HStem: 0 166<370 826.91> 713 165<370 801.389> 1327 166<370 811.375>
VStem: 166 204<166 713 878 1327> 882 203<954.781 1257.05> 936 201<266.975 598.999>
LayerCount: 2
Fore
SplineSet
370 166 m 1,0,-1
 608 166 l 2,1,2
 787 166 787 166 858 227 c 0,3,4
 936 288 936 288 936 431 c 0,5,6
 936 713 936 713 608 713 c 2,7,-1
 370 713 l 1,8,-1
 370 166 l 1,0,-1
370 878 m 1,9,-1
 605 878 l 2,10,11
 754 878 754 878 818 933 c 128,-1,12
 882 988 882 988 882 1117 c 0,13,14
 882 1228 882 1228 818 1277.5 c 128,-1,15
 754 1327 754 1327 605 1327 c 2,16,-1
 370 1327 l 1,17,-1
 370 878 l 1,9,-1
608 1493 m 2,18,19
 838 1493 838 1493 961.5 1396 c 128,-1,20
 1085 1299 1085 1299 1085 1117 c 0,21,22
 1085 842 1085 842 825 800 c 1,23,24
 971 777 971 777 1056 676 c 0,25,26
 1137 570 1137 570 1137 411 c 0,27,28
 1137 0 1137 0 608 0 c 2,29,-1
 166 0 l 1,30,-1
 166 1493 l 1,31,-1
 608 1493 l 2,18,19
EndSplineSet
EndChar

StartChar: C
Encoding: 67 67 38
Width: 1234
VWidth: 3393
Flags: W
HStem: -30 166<563.278 946.32> 1357 164<562.15 945.597>
VStem: 139 211<411.06 1085.15> 139 936
LayerCount: 2
Fore
SplineSet
1075 55 m 1,0,1
 920 -30 920 -30 744 -30 c 0,2,3
 462 -30 462 -30 298 172 c 0,4,5
 139 379 139 379 139 747 c 0,6,7
 139 1110 139 1110 298 1317 c 0,8,9
 457 1521 457 1521 744 1521 c 0,10,11
 920 1521 920 1521 1075 1438 c 1,12,-1
 1075 1231 l 1,13,14
 920 1357 920 1357 744 1357 c 0,15,16
 350 1357 350 1357 350 747 c 256,17,18
 350 136 350 136 744 136 c 0,19,20
 923 136 923 136 1075 262 c 1,21,-1
 1075 55 l 1,0,1
EndSplineSet
EndChar

StartChar: D
Encoding: 68 68 39
Width: 1234
VWidth: 3393
Flags: W
HStem: 0 166<340 680.893> 1327 166<340 681.274>
VStem: 136 204<166 1327> 893 214<404.336 1093.43>
LayerCount: 2
Fore
SplineSet
437 166 m 1,0,1
 693 166 693 166 794 292 c 0,2,3
 893 421 893 421 893 747 c 0,4,5
 893 1075 893 1075 794 1201 c 0,6,7
 693 1327 693 1327 437 1327 c 2,8,-1
 340 1327 l 1,9,-1
 340 166 l 1,10,-1
 437 166 l 1,0,1
441 1493 m 1,11,12
 784 1493 784 1493 945.5 1313 c 128,-1,13
 1107 1133 1107 1133 1107 747 c 0,14,15
 1107 363 1107 363 943 181 c 0,16,17
 784 0 784 0 441 0 c 2,18,-1
 136 0 l 1,19,-1
 136 1493 l 1,20,-1
 441 1493 l 1,11,12
EndSplineSet
EndChar

StartChar: E
Encoding: 69 69 40
Width: 1234
VWidth: 3393
Flags: W
HStem: 0 169<401 1104 197 1104 401 401> 713 169<401 1056> 1324 169<401 1082>
VStem: 197 204<169 713 882 1324>
LayerCount: 2
Fore
SplineSet
1082 1493 m 1,0,-1
 1082 1324 l 1,1,-1
 401 1324 l 1,2,-1
 401 882 l 1,3,-1
 1056 882 l 1,4,-1
 1056 713 l 1,5,-1
 401 713 l 1,6,-1
 401 169 l 1,7,-1
 1104 169 l 1,8,-1
 1104 0 l 1,9,-1
 197 0 l 1,10,-1
 197 1493 l 1,11,-1
 1082 1493 l 1,0,-1
EndSplineSet
EndChar

StartChar: F
Encoding: 70 70 41
Width: 1234
VWidth: 3393
Flags: W
HStem: 0 21G<234 437> 713 169<437 1049> 1324 169<437 1114>
VStem: 234 203<0 713 882 1324> 234 880<1324 1493 0 1493 1493 1493>
LayerCount: 2
Fore
SplineSet
1114 1493 m 1,0,-1
 1114 1324 l 1,1,-1
 437 1324 l 1,2,-1
 437 882 l 1,3,-1
 1049 882 l 1,4,-1
 1049 713 l 1,5,-1
 437 713 l 1,6,-1
 437 0 l 1,7,-1
 234 0 l 1,8,-1
 234 1493 l 1,9,-1
 1114 1493 l 1,0,-1
EndSplineSet
EndChar

StartChar: G
Encoding: 71 71 42
Width: 1234
VWidth: 3393
Flags: W
HStem: -30 166<516.219 883.336> 600 167<696 913> 1208 21G<976 1056> 1357 164<526.851 905.456>
VStem: 101 211<407.561 1080.75> 101 1006<379 767> 913 194<200 600>
LayerCount: 2
Fore
SplineSet
1107 123 m 1,0,1
 936 -30 936 -30 703 -30 c 0,2,3
 424 -30 424 -30 262 172 c 0,4,5
 101 379 101 379 101 747 c 0,6,7
 101 1110 101 1110 262 1317 c 0,8,9
 424 1521 424 1521 709 1521 c 0,10,11
 896 1521 896 1521 1056 1415 c 1,12,-1
 1056 1208 l 1,13,14
 896 1357 896 1357 709 1357 c 0,15,16
 312 1357 312 1357 312 747 c 0,17,18
 312 431 312 431 407 283.5 c 128,-1,19
 502 136 502 136 703 136 c 0,20,21
 835 136 835 136 913 200 c 1,22,-1
 913 600 l 1,23,-1
 696 600 l 1,24,-1
 696 767 l 1,25,-1
 1107 767 l 1,26,-1
 1107 123 l 1,0,1
EndSplineSet
EndChar

StartChar: H
Encoding: 72 72 43
Width: 1234
VWidth: 3393
Flags: MW
HStem: 713 169<340 893>
VStem: 136 204<0 713 882 1493> 893 204<0 713 882 1493>
LayerCount: 2
Fore
SplineSet
340 1493 m 1,0,-1
 340 882 l 1,1,-1
 893 882 l 1,2,-1
 893 1493 l 1,3,-1
 1097 1493 l 1,4,-1
 1097 0 l 1,5,-1
 893 0 l 1,6,-1
 893 713 l 1,7,-1
 340 713 l 1,8,-1
 340 0 l 1,9,-1
 136 0 l 1,10,-1
 136 1493 l 1,11,-1
 340 1493 l 1,0,-1
EndSplineSet
EndChar

StartChar: I
Encoding: 73 73 44
Width: 1234
VWidth: 3393
Flags: W
HStem: 0 169<200 515 719 1032> 1324 169<200 515 719 1032>
VStem: 200 832<0 169 1324 1493 0 1493 1.53064e-18 1.53064e-18> 515 204<169 1324>
LayerCount: 2
Fore
SplineSet
1032 1493 m 1,0,-1
 1032 1324 l 1,1,-1
 719 1324 l 1,2,-1
 719 169 l 1,3,-1
 1032 169 l 1,4,-1
 1032 0 l 1,5,-1
 200 0 l 1,6,-1
 200 169 l 1,7,-1
 515 169 l 1,8,-1
 515 1324 l 1,9,-1
 200 1324 l 1,10,-1
 200 1493 l 1,11,-1
 1032 1493 l 1,0,-1
EndSplineSet
EndChar

StartChar: J
Encoding: 74 74 45
Width: 1234
VWidth: 3393
Flags: W
HStem: -30 166<341.043 669.068> 1324 169<373 754>
VStem: 754 204<227.824 1324>
LayerCount: 2
Fore
SplineSet
109 298 m 1,0,1
 292 136 292 136 499 136 c 0,2,3
 645 136 645 136 699 210 c 0,4,5
 754 278 754 278 754 489 c 2,6,-1
 754 1324 l 1,7,-1
 373 1324 l 1,8,-1
 373 1493 l 1,9,-1
 958 1493 l 1,10,-1
 958 489 l 2,11,12
 958 204 958 204 852 88 c 0,13,14
 744 -30 744 -30 499 -30 c 0,15,16
 401 -30 401 -30 307.5 -8.5 c 128,-1,17
 214 13 214 13 109 61 c 1,18,-1
 109 298 l 1,0,1
EndSplineSet
EndChar

StartChar: K
Encoding: 75 75 46
Width: 1234
VWidth: 3393
Flags: W
HStem: 0 21G<136 340 968.057 1225> 1473 20G<136 340 951.908 1208>
VStem: 136 204<0 583 832 1493>
LayerCount: 2
Fore
SplineSet
340 1493 m 1,0,-1
 340 832 l 1,1,-1
 971 1493 l 1,2,-1
 1208 1493 l 1,3,-1
 628 882 l 1,4,-1
 1225 0 l 1,5,-1
 981 0 l 1,6,-1
 495 751 l 1,7,-1
 340 583 l 1,8,-1
 340 0 l 1,9,-1
 136 0 l 1,10,-1
 136 1493 l 1,11,-1
 340 1493 l 1,0,-1
EndSplineSet
EndChar

StartChar: L
Encoding: 76 76 47
Width: 1234
VWidth: 3393
Flags: W
HStem: 0 169<418 1140 214 1140 418 418> 1473 20G<214 418>
VStem: 214 204<169 1493>
LayerCount: 2
Fore
SplineSet
418 1493 m 1,0,-1
 418 169 l 1,1,-1
 1140 169 l 1,2,-1
 1140 0 l 1,3,-1
 214 0 l 1,4,-1
 214 1493 l 1,5,-1
 418 1493 l 1,0,-1
EndSplineSet
EndChar

StartChar: M
Encoding: 77 77 48
Width: 1234
VWidth: 3393
Flags: W
HStem: 0 21G<85 272 961 1147> 1473 20G<85 362.807 868.167 1147>
VStem: 85 187<0 1321> 961 186<0 1321>
LayerCount: 2
Fore
SplineSet
356 1493 m 1,0,-1
 615 732 l 1,1,-1
 875 1493 l 1,2,-1
 1147 1493 l 1,3,-1
 1147 0 l 1,4,-1
 961 0 l 1,5,-1
 961 1321 l 1,6,-1
 693 534 l 1,7,-1
 540 534 l 1,8,-1
 272 1321 l 1,9,-1
 272 0 l 1,10,-1
 85 0 l 1,11,-1
 85 1493 l 1,12,-1
 356 1493 l 1,0,-1
EndSplineSet
EndChar

StartChar: N
Encoding: 78 78 49
Width: 1234
VWidth: 3393
Flags: W
HStem: 0 21G<139 336 829.844 1097> 1473 20G<139 406.176 900 1097>
VStem: 139 197<0 1231> 900 197<265 1493>
LayerCount: 2
Fore
SplineSet
398 1493 m 1,0,-1
 900 265 l 1,1,-1
 900 1493 l 1,2,-1
 1097 1493 l 1,3,-1
 1097 0 l 1,4,-1
 838 0 l 1,5,-1
 336 1231 l 1,6,-1
 336 0 l 1,7,-1
 139 0 l 1,8,-1
 139 1493 l 1,9,-1
 398 1493 l 1,0,-1
EndSplineSet
EndChar

StartChar: O
Encoding: 79 79 50
Width: 1234
VWidth: 3393
Flags: W
HStem: -30 166<475.947 762.334> 1357 164<473.912 763.073>
VStem: 119 211<346.304 1044.22> 906 211<353.731 1138.16>
LayerCount: 2
Fore
SplineSet
906 747 m 256,0,1
 906 1072 906 1072 838 1215 c 0,2,3
 774 1357 774 1357 618 1357 c 0,4,5
 466 1357 466 1357 398 1215 c 0,6,7
 360 1147 360 1147 345 1028.5 c 128,-1,8
 330 910 330 910 330 747 c 0,9,10
 330 411 330 411 398 275 c 0,11,12
 466 136 466 136 618 136 c 256,13,14
 771 136 771 136 838 275 c 0,15,16
 906 421 906 421 906 747 c 256,0,1
1117 747 m 0,17,18
 1117 -30 1117 -30 618 -30 c 0,19,20
 363 -30 363 -30 241 160 c 128,-1,21
 119 350 119 350 119 747 c 0,22,23
 119 1521 119 1521 618 1521 c 256,24,25
 1117 1521 1117 1521 1117 747 c 0,17,18
EndSplineSet
EndChar

StartChar: P
Encoding: 80 80 51
Width: 1234
VWidth: 3393
Flags: W
HStem: 0 21G<197 401> 600 167<401 807.641> 1327 166<401 812.402>
VStem: 197 204<0 600 767 1327> 930 213<882.377 1215.97>
LayerCount: 2
Fore
SplineSet
401 767 m 1,0,-1
 635 767 l 2,1,2
 777 767 777 767 853.5 841.5 c 128,-1,3
 930 916 930 916 930 1049 c 256,4,5
 930 1181 930 1181 853.5 1254 c 128,-1,6
 777 1327 777 1327 635 1327 c 2,7,-1
 401 1327 l 1,8,-1
 401 767 l 1,0,-1
635 1493 m 2,9,10
 886 1493 886 1493 1014.5 1381 c 128,-1,11
 1143 1269 1143 1269 1143 1049 c 0,12,13
 1143 600 1143 600 635 600 c 2,14,-1
 401 600 l 1,15,-1
 401 0 l 1,16,-1
 197 0 l 1,17,-1
 197 1493 l 1,18,-1
 635 1493 l 2,9,10
EndSplineSet
EndChar

StartChar: Q
Encoding: 81 81 52
Width: 1234
VWidth: 3393
Flags: W
HStem: -30 166<479.443 665.67 634.92 655> 1357 164<473.912 763.073>
VStem: 119 211<351.937 1044.22> 906 211<352.527 1138.16>
LayerCount: 2
Fore
SplineSet
655 -27 m 1,0,1
 648 -27 648 -27 634.5 -28.5 c 128,-1,2
 621 -30 621 -30 615 -30 c 0,3,4
 119 -30 119 -30 119 747 c 0,5,6
 119 1521 119 1521 618 1521 c 256,7,8
 1117 1521 1117 1521 1117 747 c 0,9,10
 1117 162 1117 162 842 20 c 1,11,-1
 1042 -169 l 1,12,-1
 890 -272 l 1,13,-1
 655 -27 l 1,0,1
906 747 m 256,14,15
 906 1072 906 1072 838 1215 c 0,16,17
 774 1357 774 1357 618 1357 c 0,18,19
 466 1357 466 1357 398 1215 c 0,20,21
 360 1147 360 1147 345 1028.5 c 128,-1,22
 330 910 330 910 330 747 c 0,23,24
 330 411 330 411 398 275 c 0,25,26
 466 136 466 136 618 136 c 256,27,28
 771 136 771 136 838 275 c 0,29,30
 906 421 906 421 906 747 c 256,14,15
EndSplineSet
EndChar

StartChar: R
Encoding: 82 82 53
Width: 1234
VWidth: 3393
Flags: W
HStem: 0 21G<143 346 1007.48 1234> 631 166<346 693> 1327 166<346 747.761>
VStem: 143 203<0 631 797 1327> 855 214<894.638 1226.19>
LayerCount: 2
Fore
SplineSet
761 706 m 1,0,1
 838 686 838 686 893 631 c 0,2,3
 949 573 949 573 1032 408 c 2,4,-1
 1234 0 l 1,5,-1
 1017 0 l 1,6,-1
 838 376 l 2,7,8
 764 537 764 537 699 583 c 256,9,10
 635 631 635 631 540 631 c 2,11,-1
 346 631 l 1,12,-1
 346 0 l 1,13,-1
 143 0 l 1,14,-1
 143 1493 l 1,15,-1
 560 1493 l 2,16,17
 807 1493 807 1493 938 1384.5 c 128,-1,18
 1069 1276 1069 1276 1069 1062 c 0,19,20
 1069 913 1069 913 989.5 819.5 c 128,-1,21
 910 726 910 726 761 706 c 1,0,1
346 797 m 1,22,-1
 567 797 l 2,23,24
 855 797 855 797 855 1062 c 256,25,26
 855 1327 855 1327 560 1327 c 2,27,-1
 346 1327 l 1,28,-1
 346 797 l 1,22,-1
EndSplineSet
EndChar

StartChar: S
Encoding: 83 83 54
Width: 1234
VWidth: 3393
Flags: W
HStem: -30 166<351.261 784.562> 1357 164<448.896 803.7>
VStem: 139 194<971.048 1250.49> 906 194<246.215 548.999>
LayerCount: 2
Fore
SplineSet
1014 1239 m 1,0,1
 825 1357 825 1357 641 1357 c 0,2,3
 495 1357 495 1357 414 1289 c 0,4,5
 333 1225 333 1225 333 1110 c 0,6,7
 333 1011 333 1011 386 961 c 0,8,9
 444 906 444 906 590 872 c 2,10,-1
 696 848 l 2,11,12
 910 800 910 800 1005 695 c 128,-1,13
 1100 590 1100 590 1100 408 c 0,14,15
 1100 194 1100 194 969 82 c 128,-1,16
 838 -30 838 -30 583 -30 c 0,17,18
 373 -30 373 -30 159 61 c 1,19,-1
 159 275 l 1,20,21
 383 136 383 136 583 136 c 0,22,23
 736 136 736 136 821 204 c 128,-1,24
 906 272 906 272 906 398 c 0,25,26
 906 502 906 502 848 567 c 0,27,28
 780 628 780 628 645 658 c 2,29,-1
 537 683 l 2,30,31
 326 729 326 729 234 825 c 0,32,33
 139 920 139 920 139 1079 c 0,34,35
 139 1279 139 1279 275 1402 c 0,36,37
 404 1521 404 1521 631 1521 c 0,38,39
 719 1521 719 1521 812.5 1502 c 128,-1,40
 906 1483 906 1483 1014 1442 c 1,41,-1
 1014 1239 l 1,0,1
EndSplineSet
EndChar

StartChar: T
Encoding: 84 84 55
Width: 1234
VWidth: 3393
Flags: W
HStem: 0 21G<515 719> 1324 169<48 515 719 1188>
VStem: 515 204<0 1324>
LayerCount: 2
Fore
SplineSet
1188 1493 m 1,0,-1
 1188 1324 l 1,1,-1
 719 1324 l 1,2,-1
 719 0 l 1,3,-1
 515 0 l 1,4,-1
 515 1324 l 1,5,-1
 48 1324 l 1,6,-1
 48 1493 l 1,7,-1
 1188 1493 l 1,0,-1
EndSplineSet
EndChar

StartChar: U
Encoding: 85 85 56
Width: 1234
VWidth: 3393
Flags: W
HStem: -30 166<445.142 787.271> 1473 20G<146 350 882 1085>
VStem: 146 204<326.753 434.177 434.177 1493> 882 203<326.753 1493>
LayerCount: 2
Fore
SplineSet
146 1493 m 1,0,-1
 350 1493 l 1,1,-1
 350 482 l 2,2,3
 350 424 350 424 351.5 387 c 128,-1,4
 353 350 353 350 356 326 c 0,5,6
 363 282 363 282 376 255 c 0,7,8
 444 136 444 136 618 136 c 256,9,10
 790 136 790 136 858 255 c 0,11,12
 865 268 865 268 870 285 c 128,-1,13
 875 302 875 302 878 326 c 256,14,15
 882 350 882 350 882 387 c 128,-1,16
 882 424 882 424 882 479 c 2,17,-1
 882 573 l 1,18,-1
 882 1493 l 1,19,-1
 1085 1493 l 1,20,-1
 1085 573 l 2,21,22
 1085 350 1085 350 1059 249 c 0,23,24
 1029 149 1029 149 961 88 c 0,25,26
 825 -30 825 -30 618 -30 c 256,27,28
 411 -30 411 -30 275 88 c 0,29,30
 210 146 210 146 176 249 c 0,31,32
 146 350 146 350 146 573 c 2,33,-1
 146 1493 l 1,0,-1
EndSplineSet
EndChar

StartChar: V
Encoding: 86 86 57
Width: 1234
VWidth: 3393
Flags: W
HStem: 0 21G<489.146 744.881> 1473 20G<58 270.332 962.713 1178>
LayerCount: 2
Fore
SplineSet
968 1493 m 1,0,-1
 1178 1493 l 1,1,-1
 739 0 l 1,2,-1
 495 0 l 1,3,-1
 58 1493 l 1,4,-1
 265 1493 l 1,5,-1
 618 169 l 1,6,-1
 968 1493 l 1,0,-1
EndSplineSet
EndChar

StartChar: W
Encoding: 87 87 58
Width: 1234
VWidth: 3393
Flags: W
HStem: 0 21G<220.999 418.584 817.416 1013.99> 1473 20G<0 199.362 1036.6 1234>
LayerCount: 2
Fore
SplineSet
197 1493 m 1,0,-1
 340 282 l 1,1,-1
 509 1082 l 1,2,-1
 722 1082 l 1,3,-1
 893 278 l 1,4,-1
 1039 1493 l 1,5,-1
 1234 1493 l 1,6,-1
 1011 0 l 1,7,-1
 822 0 l 1,8,-1
 618 890 l 1,9,-1
 414 0 l 1,10,-1
 224 0 l 1,11,-1
 0 1493 l 1,12,-1
 197 1493 l 1,0,-1
EndSplineSet
EndChar

StartChar: X
Encoding: 88 88 59
Width: 1234
VWidth: 3393
Flags: W
HStem: 0 21G<17 249.217 986.62 1215> 1473 20G<85 313.687 956.028 1185>
LayerCount: 2
Fore
SplineSet
302 1493 m 1,0,-1
 631 930 l 1,1,-1
 968 1493 l 1,2,-1
 1185 1493 l 1,3,-1
 736 790 l 1,4,-1
 1215 0 l 1,5,-1
 998 0 l 1,6,-1
 631 645 l 1,7,-1
 237 0 l 1,8,-1
 17 0 l 1,9,-1
 519 790 l 1,10,-1
 85 1493 l 1,11,-1
 302 1493 l 1,0,-1
EndSplineSet
EndChar

StartChar: Y
Encoding: 89 89 60
Width: 1234
VWidth: 3393
Flags: W
HStem: 0 21G<515 719> 1473 20G<38 263.125 969.967 1198>
VStem: 515 204<0 673>
LayerCount: 2
Fore
SplineSet
252 1493 m 1,0,-1
 618 835 l 1,1,-1
 981 1493 l 1,2,-1
 1198 1493 l 1,3,-1
 719 673 l 1,4,-1
 719 0 l 1,5,-1
 515 0 l 1,6,-1
 515 673 l 1,7,-1
 38 1493 l 1,8,-1
 252 1493 l 1,0,-1
EndSplineSet
EndChar

StartChar: Z
Encoding: 90 90 61
Width: 1234
VWidth: 3393
Flags: W
HStem: 0 169<366 1171> 1324 169<181 916>
LayerCount: 2
Fore
SplineSet
1147 1493 m 1,0,-1
 1147 1341 l 1,1,-1
 366 169 l 1,2,-1
 1171 169 l 1,3,-1
 1171 0 l 1,4,-1
 156 0 l 1,5,-1
 156 152 l 1,6,-1
 916 1324 l 1,7,-1
 181 1324 l 1,8,-1
 181 1493 l 1,9,-1
 1147 1493 l 1,0,-1
EndSplineSet
EndChar

StartChar: bracketleft
Encoding: 91 91 62
Width: 1234
VWidth: 3393
Flags: W
HStem: -272 146<648 890> 1415 143<648 890>
VStem: 466 182<-126 1415>
LayerCount: 2
Fore
SplineSet
890 1558 m 1,0,-1
 890 1415 l 1,1,-1
 648 1415 l 1,2,-1
 648 -126 l 1,3,-1
 890 -126 l 1,4,-1
 890 -272 l 1,5,-1
 466 -272 l 1,6,-1
 466 1558 l 1,7,-1
 890 1558 l 1,0,-1
EndSplineSet
EndChar

StartChar: backslash
Encoding: 92 92 63
Width: 1234
VWidth: 3393
Flags: W
HStem: 1473 20G<101 301.347>
VStem: 101 978<-191 1493 1493 1493>
LayerCount: 2
Fore
SplineSet
1079 -191 m 1,0,-1
 890 -191 l 1,1,-1
 101 1493 l 1,2,-1
 292 1493 l 1,3,-1
 1079 -191 l 1,0,-1
EndSplineSet
EndChar

StartChar: bracketright
Encoding: 93 93 64
Width: 1234
VWidth: 3393
Flags: W
HStem: -272 146<346 587> 1415 143<346 587>
VStem: 587 184<-126 1415>
LayerCount: 2
Fore
SplineSet
771 -272 m 1,0,-1
 346 -272 l 1,1,-1
 346 -126 l 1,2,-1
 587 -126 l 1,3,-1
 587 1415 l 1,4,-1
 346 1415 l 1,5,-1
 346 1558 l 1,6,-1
 771 1558 l 1,7,-1
 771 -272 l 1,0,-1
EndSplineSet
EndChar

StartChar: asciicircum
Encoding: 94 94 65
Width: 1234
VWidth: 3393
Flags: W
HStem: 936 557<529 1160 529 529>
LayerCount: 2
Fore
SplineSet
1160 936 m 1,0,-1
 984 936 l 1,1,-1
 618 1334 l 1,2,-1
 252 936 l 1,3,-1
 71 936 l 1,4,-1
 529 1493 l 1,5,-1
 706 1493 l 1,6,-1
 1160 936 l 1,0,-1
EndSplineSet
EndChar

StartChar: underscore
Encoding: 95 95 66
Width: 1234
VWidth: 3393
Flags: W
HStem: -482 78<0 1024>
VStem: 0 1024<-482 -404 -482 -404 -482 -482>
LayerCount: 2
Fore
SplineSet
1024 -482 m 1,0,-1
 0 -482 l 1,1,-1
 0 -404 l 1,2,-1
 1024 -404 l 1,3,-1
 1024 -482 l 1,0,-1
EndSplineSet
EndChar

StartChar: grave
Encoding: 96 96 67
Width: 1234
VWidth: 3393
Flags: W
HStem: 1263 376<278 761 278 278>
LayerCount: 2
Fore
SplineSet
761 1263 m 1,0,-1
 605 1263 l 1,1,-1
 278 1639 l 1,2,-1
 479 1639 l 1,3,-1
 761 1263 l 1,0,-1
EndSplineSet
EndChar

StartChar: a
Encoding: 97 97 68
Width: 1234
VWidth: 3393
Flags: W
HStem: -30 156<391.511 716.127> 563 146<423.16 875> 991 156<349.726 785.491>
VStem: 133 187<196.992 473.358> 875 184<0 166 301.658 522 522 563 709 711.799 711.799 842.612>
LayerCount: 2
Fore
SplineSet
641 563 m 2,0,1
 320 563 320 563 320 340 c 0,2,3
 320 237 320 237 378.5 181.5 c 128,-1,4
 437 126 437 126 547 126 c 0,5,6
 703 126 703 126 787 230 c 0,7,8
 875 340 875 340 875 522 c 2,9,-1
 875 563 l 1,10,-1
 703 563 l 1,11,-1
 641 563 l 2,0,1
1059 0 m 1,12,-1
 875 0 l 1,13,-1
 875 166 l 1,14,15
 761 -30 761 -30 509 -30 c 0,16,17
 340 -30 340 -30 234 68 c 0,18,19
 133 166 133 166 133 326 c 0,20,21
 133 709 133 709 628 709 c 2,22,-1
 875 709 l 1,23,-1
 875 736 l 2,24,25
 875 872 875 872 807 931.5 c 128,-1,26
 739 991 739 991 593 991 c 0,27,28
 404 991 404 991 214 886 c 1,29,-1
 214 1069 l 1,30,31
 414 1147 414 1147 593 1147 c 0,32,33
 868 1147 868 1147 991 984 c 0,34,35
 1024 936 1024 936 1046 858 c 0,36,37
 1052 822 1052 822 1055.5 767.5 c 128,-1,38
 1059 713 1059 713 1059 641 c 2,39,-1
 1059 0 l 1,12,-1
EndSplineSet
Substitution2: "Single Substitution lookup 22 subtable" uni0E38
Substitution2: "Single Substitution lookup 22 subtable" uni0E38
EndChar

StartChar: b
Encoding: 98 98 69
Width: 1234
VWidth: 3393
Flags: W
HStem: -30 156<504.138 792.84> 991 156<504.537 791.651> 1538 20G<194 376>
VStem: 194 182<0 143 279.002 839.056 978 1558> 920 194<280.67 837.399>
LayerCount: 2
Fore
SplineSet
920 560 m 0,0,1
 920 991 920 991 648 991 c 256,2,3
 376 991 376 991 376 560 c 0,4,5
 376 126 376 126 648 126 c 256,6,7
 920 126 920 126 920 560 c 0,0,1
376 978 m 1,8,9
 472 1147 472 1147 679 1147 c 0,10,11
 882 1147 882 1147 998 991 c 0,12,13
 1114 842 1114 842 1114 563 c 256,14,15
 1114 285 1114 285 998 129 c 0,16,17
 878 -30 878 -30 676 -30 c 256,18,19
 472 -30 472 -30 376 143 c 1,20,-1
 376 0 l 1,21,-1
 194 0 l 1,22,-1
 194 1558 l 1,23,-1
 376 1558 l 1,24,-1
 376 978 l 1,8,9
EndSplineSet
Substitution2: "Single Substitution lookup 22 subtable" uni0E39
Substitution2: "Single Substitution lookup 22 subtable" uni0E39
EndChar

StartChar: c
Encoding: 99 99 70
Width: 1234
VWidth: 3393
Flags: W
HStem: -30 156<565.291 947.708> 991 156<564.577 931.359>
VStem: 197 194<318.441 802.185> 197 865
LayerCount: 2
Fore
SplineSet
1062 58 m 1,0,1
 913 -30 913 -30 751 -30 c 0,2,3
 492 -30 492 -30 343 126 c 0,4,5
 197 282 197 282 197 560 c 0,6,7
 197 842 197 842 343 991 c 0,8,9
 489 1147 489 1147 751 1147 c 0,10,11
 906 1147 906 1147 1062 1062 c 1,12,-1
 1062 868 l 1,13,14
 988 936 988 936 915 963.5 c 128,-1,15
 842 991 842 991 751 991 c 0,16,17
 577 991 577 991 484 881 c 128,-1,18
 391 771 391 771 391 560 c 256,19,20
 391 350 391 350 484 238 c 128,-1,21
 577 126 577 126 751 126 c 0,22,23
 930 126 930 126 1062 249 c 1,24,-1
 1062 58 l 1,0,1
EndSplineSet
Substitution2: "Single Substitution lookup 22 subtable" uni0E3A
Substitution2: "Single Substitution lookup 22 subtable" uni0E3A
EndChar

StartChar: d
Encoding: 100 100 71
Width: 1234
VWidth: 3393
Flags: W
HStem: -30 156<444.506 730.864> 991 156<446.415 730.238> 1538 20G<858 1042>
VStem: 123 197<278.167 838.893> 858 184<0 143 279.002 839.056 978 1558>
LayerCount: 2
Fore
SplineSet
858 1558 m 1,0,-1
 1042 1558 l 1,1,-1
 1042 0 l 1,2,-1
 858 0 l 1,3,-1
 858 143 l 1,4,5
 764 -30 764 -30 560 -30 c 0,6,7
 360 -30 360 -30 240 129 c 256,8,9
 123 288 123 288 123 563 c 0,10,11
 123 835 123 835 240 991 c 0,12,13
 356 1147 356 1147 560 1147 c 0,14,15
 771 1147 771 1147 858 978 c 1,16,-1
 858 1558 l 1,0,-1
320 560 m 0,17,18
 320 126 320 126 587 126 c 0,19,20
 858 126 858 126 858 560 c 0,21,22
 858 991 858 991 587 991 c 0,23,24
 320 991 320 991 320 560 c 0,17,18
EndSplineSet
EndChar

StartChar: e
Encoding: 101 101 72
Width: 1234
VWidth: 3393
Flags: W
HStem: -30 156<486.242 914.828> 515 143<323 930> 991 156<477.918 809.144>
VStem: 123 192<300.551 515 658 803> 123 991<517.739 653.961> 930 184<661 862.094>
LayerCount: 2
Fore
SplineSet
1114 515 m 1,0,-1
 315 515 l 1,1,-1
 315 509 l 2,2,3
 315 326 315 326 410 226 c 128,-1,4
 505 126 505 126 683 126 c 256,5,6
 858 126 858 126 1069 240 c 1,7,-1
 1069 58 l 1,8,9
 855 -30 855 -30 679 -30 c 0,10,11
 421 -30 421 -30 272 126 c 0,12,13
 123 285 123 285 123 560 c 0,14,15
 123 832 123 832 268 988 c 0,16,17
 408 1147 408 1147 651 1147 c 0,18,19
 865 1147 865 1147 988 1004 c 0,20,21
 1114 858 1114 858 1114 608 c 2,22,-1
 1114 515 l 1,0,-1
930 661 m 1,23,24
 920 991 920 991 645 991 c 0,25,26
 509 991 509 991 424 903 c 0,27,28
 340 819 340 819 323 658 c 1,29,-1
 930 661 l 1,23,24
EndSplineSet
EndChar

StartChar: f
Encoding: 102 102 73
Width: 1234
VWidth: 3393
Flags: W
HStem: 0 21G<495 679> 978 142<197 495 679 1065> 1405 153<717.295 1065>
VStem: 495 184<0 978 1120 1362.64>
LayerCount: 2
Fore
SplineSet
1065 1405 m 1,0,-1
 855 1405 l 2,1,2
 757 1405 757 1405 716 1364 c 0,3,4
 679 1321 679 1321 679 1221 c 2,5,-1
 679 1120 l 1,6,-1
 1065 1120 l 1,7,-1
 1065 978 l 1,8,-1
 679 978 l 1,9,-1
 679 0 l 1,10,-1
 495 0 l 1,11,-1
 495 978 l 1,12,-1
 197 978 l 1,13,-1
 197 1120 l 1,14,-1
 495 1120 l 1,15,-1
 495 1198 l 2,16,17
 495 1385 495 1385 578 1471.5 c 128,-1,18
 661 1558 661 1558 842 1558 c 2,19,-1
 1065 1558 l 1,20,-1
 1065 1405 l 1,0,-1
EndSplineSet
EndChar

StartChar: g
Encoding: 103 103 74
Width: 1234
VWidth: 3393
Flags: W
HStem: -441 149<407.684 748.871> -7 153<449.76 735.688> 991 156<448.815 733.099>
VStem: 123 197<302.468 840.547> 858 184<-176.5 181 298.65 842.581 971 1117>
LayerCount: 2
Fore
SplineSet
858 570 m 0,0,1
 858 991 858 991 593 991 c 0,2,3
 320 991 320 991 320 570 c 0,4,5
 320 146 320 146 597 146 c 0,6,7
 726 146 726 146 792 254.5 c 128,-1,8
 858 363 858 363 858 570 c 0,0,1
1042 71 m 1,9,10
 1042 -441 1042 -441 573 -441 c 0,11,12
 495 -441 495 -441 414 -427.5 c 128,-1,13
 333 -414 333 -414 249 -386 c 1,14,-1
 249 -204 l 1,15,16
 437 -292 437 -292 573 -292 c 0,17,18
 726 -292 726 -292 792 -212.5 c 128,-1,19
 858 -133 858 -133 858 45 c 2,20,-1
 858 55 l 1,21,-1
 858 181 l 1,22,23
 774 -7 774 -7 553 -7 c 0,24,25
 356 -7 356 -7 240 149 c 0,26,27
 123 308 123 308 123 570 c 256,28,29
 123 832 123 832 240 991 c 0,30,31
 356 1147 356 1147 553 1147 c 0,32,33
 771 1147 771 1147 858 971 c 1,34,-1
 858 1117 l 1,35,-1
 1042 1117 l 1,36,-1
 1042 71 l 1,9,10
EndSplineSet
EndChar

StartChar: h
Encoding: 104 104 75
Width: 1234
VWidth: 3393
Flags: W
HStem: 0 21G<197 379 865 1052> 988 159<522.306 783.76> 1538 20G<197 379>
VStem: 197 182<0 857.372 953 1558> 865 187<0 893.312>
LayerCount: 2
Fore
SplineSet
1052 0 m 1,0,-1
 865 0 l 1,1,-1
 865 696 l 2,2,3
 865 988 865 988 648 988 c 0,4,5
 519 988 519 988 449 897.5 c 128,-1,6
 379 807 379 807 379 635 c 2,7,-1
 379 0 l 1,8,-1
 197 0 l 1,9,-1
 197 1558 l 1,10,-1
 379 1558 l 1,11,-1
 379 953 l 1,12,13
 479 1147 479 1147 713 1147 c 0,14,15
 1052 1147 1052 1147 1052 696 c 2,16,-1
 1052 0 l 1,0,-1
EndSplineSet
EndChar

StartChar: i
Encoding: 105 105 76
Width: 1234
VWidth: 3393
Flags: W
HStem: 0 143<181 543 726 1092 181 1092 181 181> 978 142<258 543> 1324 234<543 726>
VStem: 543 183<143 978 1324 1558>
LayerCount: 2
Fore
SplineSet
726 1120 m 1,0,-1
 726 143 l 1,1,-1
 1092 143 l 1,2,-1
 1092 0 l 1,3,-1
 181 0 l 1,4,-1
 181 143 l 1,5,-1
 543 143 l 1,6,-1
 543 978 l 1,7,-1
 258 978 l 1,8,-1
 258 1120 l 1,9,-1
 726 1120 l 1,0,-1
726 1558 m 1,10,-1
 726 1324 l 1,11,-1
 543 1324 l 1,12,-1
 543 1558 l 1,13,-1
 726 1558 l 1,10,-1
EndSplineSet
EndChar

StartChar: j
Encoding: 106 106 77
Width: 1234
VWidth: 3393
Flags: W
HStem: -428 156<187 537.66> 978 142<282 600> 1324 234<600 784>
VStem: 600 184<-208.104 978 1324 1558>
LayerCount: 2
Fore
SplineSet
600 978 m 1,0,-1
 282 978 l 1,1,-1
 282 1120 l 1,2,-1
 784 1120 l 1,3,-1
 784 -20 l 2,4,5
 784 -217 784 -217 696 -322.5 c 128,-1,6
 608 -428 608 -428 441 -428 c 2,7,-1
 187 -428 l 1,8,-1
 187 -272 l 1,9,-1
 421 -272 l 2,10,11
 600 -272 600 -272 600 -20 c 2,12,-1
 600 978 l 1,0,-1
784 1558 m 1,13,-1
 784 1324 l 1,14,-1
 600 1324 l 1,15,-1
 600 1558 l 1,16,-1
 784 1558 l 1,13,-1
EndSplineSet
EndChar

StartChar: k
Encoding: 107 107 78
Width: 1234
VWidth: 3393
Flags: W
HStem: 0 21G<237 428 963.69 1205> 1100 20G<889.269 1133> 1538 20G<237 428>
VStem: 237 968<0 0 -903 0> 237 191<0 447 655 1558>
LayerCount: 2
Fore
SplineSet
428 1558 m 1,0,-1
 428 655 l 1,1,-1
 910 1120 l 1,2,-1
 1133 1120 l 1,3,-1
 693 699 l 1,4,-1
 1205 0 l 1,5,-1
 978 0 l 1,6,-1
 563 580 l 1,7,-1
 428 447 l 1,8,-1
 428 0 l 1,9,-1
 237 0 l 1,10,-1
 237 1558 l 1,11,-1
 428 1558 l 1,0,-1
EndSplineSet
EndChar

StartChar: l
Encoding: 108 108 79
Width: 1234
VWidth: 3393
Flags: W
HStem: 0 156<704.15 1036> 1425 143<159 454>
VStem: 454 187<223.872 1425>
LayerCount: 2
Fore
SplineSet
641 408 m 1,0,1
 641 156 641 156 822 156 c 2,2,-1
 1036 156 l 1,3,-1
 1036 0 l 1,4,-1
 800 0 l 2,5,6
 635 0 635 0 544.5 105 c 128,-1,7
 454 210 454 210 454 408 c 2,8,-1
 454 1425 l 1,9,-1
 159 1425 l 1,10,-1
 159 1568 l 1,11,-1
 641 1568 l 1,12,-1
 641 408 l 1,0,1
EndSplineSet
EndChar

StartChar: m
Encoding: 109 109 80
Width: 1234
VWidth: 3393
Flags: W
HStem: 0 21G<109 275 537 706 968 1137> 994 153<339.407 500.325 751.971 931.278>
VStem: 109 166<0 931.052 1024 1120> 537 169<0 641 641 931.052> 968 169<0 934.39>
LayerCount: 2
Fore
SplineSet
676 1007 m 1,0,1
 747 1147 747 1147 890 1147 c 0,2,3
 1024 1147 1024 1147 1079 1042 c 0,4,5
 1137 936 1137 936 1137 648 c 2,6,-1
 1137 0 l 1,7,-1
 968 0 l 1,8,-1
 968 641 l 2,9,10
 968 886 968 886 940 936 c 0,11,12
 913 994 913 994 845 994 c 0,13,14
 764 994 764 994 736 933 c 0,15,16
 706 872 706 872 706 641 c 2,17,-1
 706 0 l 1,18,-1
 537 0 l 1,19,-1
 537 641 l 2,20,21
 537 882 537 882 509 936 c 0,22,23
 479 994 479 994 408 994 c 0,24,25
 333 994 333 994 305 933 c 0,26,27
 275 872 275 872 275 641 c 2,28,-1
 275 0 l 1,29,-1
 109 0 l 1,30,-1
 109 1120 l 1,31,-1
 275 1120 l 1,32,-1
 275 1024 l 1,33,34
 343 1147 343 1147 472 1147 c 0,35,36
 625 1147 625 1147 676 1007 c 1,0,1
EndSplineSet
EndChar

StartChar: n
Encoding: 110 110 81
Width: 1234
VWidth: 3393
Flags: W
HStem: 0 21G<197 379 865 1052> 988 159<522.306 783.76>
VStem: 197 182<0 857.372 953 1120> 865 187<0 893.312>
LayerCount: 2
Fore
SplineSet
1052 0 m 1,0,-1
 865 0 l 1,1,-1
 865 696 l 2,2,3
 865 988 865 988 648 988 c 0,4,5
 519 988 519 988 449 897.5 c 128,-1,6
 379 807 379 807 379 635 c 2,7,-1
 379 0 l 1,8,-1
 197 0 l 1,9,-1
 197 1120 l 1,10,-1
 379 1120 l 1,11,-1
 379 953 l 1,12,13
 479 1147 479 1147 713 1147 c 0,14,15
 1052 1147 1052 1147 1052 696 c 2,16,-1
 1052 0 l 1,0,-1
EndSplineSet
EndChar

StartChar: o
Encoding: 111 111 82
Width: 1234
VWidth: 3393
Flags: W
HStem: -30 156<468.66 770.04> 991 156<468.66 770.04>
VStem: 136 197<286.567 832.266> 903 194<286.567 832.266>
LayerCount: 2
Fore
SplineSet
618 991 m 256,0,1
 333 991 333 991 333 560 c 0,2,3
 333 126 333 126 618 126 c 256,4,5
 903 126 903 126 903 560 c 0,6,7
 903 991 903 991 618 991 c 256,0,1
618 1147 m 256,8,9
 852 1147 852 1147 974.5 997.5 c 128,-1,10
 1097 848 1097 848 1097 560 c 256,11,12
 1097 272 1097 272 974.5 121 c 128,-1,13
 852 -30 852 -30 618 -30 c 256,14,15
 383 -30 383 -30 259.5 121 c 128,-1,16
 136 272 136 272 136 560 c 256,17,18
 136 848 136 848 259.5 997.5 c 128,-1,19
 383 1147 383 1147 618 1147 c 256,8,9
EndSplineSet
EndChar

StartChar: p
Encoding: 112 112 83
Width: 1234
VWidth: 3393
Flags: W
HStem: -428 21G<191 376> -30 156<505.027 790.945> 991 156<503.389 788.843>
VStem: 191 185<-428 143 279.002 839.056 978 1120> 916 194<280.367 839.897>
LayerCount: 2
Fore
SplineSet
376 -428 m 1,0,-1
 191 -428 l 1,1,-1
 191 1120 l 1,2,-1
 376 1120 l 1,3,-1
 376 978 l 1,4,5
 469 1147 469 1147 676 1147 c 0,6,7
 878 1147 878 1147 994 991 c 0,8,9
 1110 828 1110 828 1110 557 c 0,10,11
 1110 288 1110 288 994 126 c 0,12,13
 875 -30 875 -30 676 -30 c 0,14,15
 466 -30 466 -30 376 143 c 1,16,-1
 376 -428 l 1,0,-1
916 560 m 0,17,18
 916 991 916 991 648 991 c 0,19,20
 376 991 376 991 376 560 c 0,21,22
 376 126 376 126 648 126 c 0,23,24
 916 126 916 126 916 560 c 0,17,18
EndSplineSet
EndChar

StartChar: q
Encoding: 113 113 84
Width: 1234
VWidth: 3393
Flags: W
HStem: -431 21G<872 1056> -33 156<459.597 743.846> 988 155<458.135 744.595>
VStem: 136 197<276.546 834.294> 872 184<-431 139 276.002 836.056 974 1117>
LayerCount: 2
Fore
SplineSet
333 557 m 0,0,1
 333 123 333 123 600 123 c 0,2,3
 872 123 872 123 872 557 c 0,4,5
 872 988 872 988 600 988 c 0,6,7
 333 988 333 988 333 557 c 0,0,1
872 139 m 1,8,9
 777 -33 777 -33 570 -33 c 0,10,11
 373 -33 373 -33 255 123 c 0,12,13
 136 282 136 282 136 553 c 0,14,15
 136 828 136 828 255 988 c 0,16,17
 366 1143 366 1143 570 1143 c 0,18,19
 780 1143 780 1143 872 974 c 1,20,-1
 872 1117 l 1,21,-1
 1056 1117 l 1,22,-1
 1056 -431 l 1,23,-1
 872 -431 l 1,24,-1
 872 139 l 1,8,9
EndSplineSet
EndChar

StartChar: r
Encoding: 114 114 85
Width: 1234
VWidth: 3393
Flags: W
HStem: 0 21G<363 547> 978 169<720.497 1086.85>
VStem: 363 184<0 798.655 903 1120>
LayerCount: 2
Fore
SplineSet
1157 890 m 1,0,1
 1039 978 1039 978 903 978 c 0,2,3
 729 978 729 978 638 871 c 128,-1,4
 547 764 547 764 547 557 c 2,5,-1
 547 0 l 1,6,-1
 363 0 l 1,7,-1
 363 1120 l 1,8,-1
 547 1120 l 1,9,-1
 547 903 l 1,10,11
 593 1021 593 1021 688.5 1084 c 128,-1,12
 784 1147 784 1147 916 1147 c 0,13,14
 1052 1147 1052 1147 1157 1079 c 1,15,-1
 1157 890 l 1,0,1
EndSplineSet
EndChar

StartChar: s
Encoding: 115 115 86
Width: 1234
VWidth: 3393
Flags: W
HStem: -30 156<350.329 775.271> 994 153<462.366 879.415>
VStem: 217 187<719.563 939.26> 845 187<191.972 407.139>
LayerCount: 2
Fore
SplineSet
974 903 m 1,0,1
 819 994 819 994 651 994 c 0,2,3
 404 994 404 994 404 832 c 0,4,5
 404 754 404 754 447 719 c 0,6,7
 495 679 495 679 679 645 c 2,8,-1
 754 631 l 2,9,10
 1032 580 1032 580 1032 326 c 0,11,12
 1032 156 1032 156 913 65 c 0,13,14
 790 -30 790 -30 583 -30 c 0,15,16
 424 -30 424 -30 214 41 c 1,17,-1
 214 230 l 1,18,19
 414 126 414 126 587 126 c 0,20,21
 845 126 845 126 845 312 c 0,22,23
 845 441 845 441 600 492 c 1,24,-1
 590 492 l 1,25,-1
 522 505 l 2,26,27
 360 537 360 537 288.5 610 c 128,-1,28
 217 683 217 683 217 810 c 0,29,30
 217 974 217 974 325.5 1060.5 c 128,-1,31
 434 1147 434 1147 638 1147 c 0,32,33
 815 1147 815 1147 974 1082 c 1,34,-1
 974 903 l 1,0,1
EndSplineSet
EndChar

StartChar: t
Encoding: 116 116 87
Width: 1234
VWidth: 3393
Flags: W
HStem: 0 146<671.25 1032> 978 142<133 431 615 1032>
VStem: 431 184<200.295 978 1120 1438>
LayerCount: 2
Fore
SplineSet
615 1120 m 1,0,-1
 1032 1120 l 1,1,-1
 1032 978 l 1,2,-1
 615 978 l 1,3,-1
 615 370 l 2,4,5
 615 252 615 252 661 197 c 0,6,7
 709 146 709 146 825 146 c 2,8,-1
 1032 146 l 1,9,-1
 1032 0 l 1,10,-1
 807 0 l 2,11,12
 605 0 605 0 515 81 c 0,13,14
 431 166 431 166 431 370 c 2,15,-1
 431 978 l 1,16,-1
 133 978 l 1,17,-1
 133 1120 l 1,18,-1
 431 1120 l 1,19,-1
 431 1438 l 1,20,-1
 615 1438 l 1,21,-1
 615 1120 l 1,0,-1
EndSplineSet
EndChar

StartChar: u
Encoding: 117 117 88
Width: 1234
VWidth: 3393
Flags: W
HStem: -30 163<463.322 723.46> 1100 20G<197 379 865 1052>
VStem: 197 182<225.375 1120> 865 187<0 169 262.346 486 486 1120>
LayerCount: 2
Fore
SplineSet
197 1120 m 1,0,-1
 379 1120 l 1,1,-1
 379 424 l 2,2,3
 379 133 379 133 597 133 c 0,4,5
 726 133 726 133 795.5 222.5 c 128,-1,6
 865 312 865 312 865 486 c 2,7,-1
 865 1120 l 1,8,-1
 1052 1120 l 1,9,-1
 1052 0 l 1,10,-1
 865 0 l 1,11,-1
 865 169 l 1,12,13
 767 -30 767 -30 537 -30 c 0,14,15
 197 -30 197 -30 197 424 c 2,16,-1
 197 1120 l 1,0,-1
EndSplineSet
EndChar

StartChar: v
Encoding: 118 118 89
Width: 1234
VWidth: 3393
Flags: W
HStem: 0 21G<491.893 743.089> 1100 20G<101 298.944 936.078 1133>
LayerCount: 2
Fore
SplineSet
292 1120 m 1,0,-1
 618 181 l 1,1,-1
 943 1120 l 1,2,-1
 1133 1120 l 1,3,-1
 736 0 l 1,4,-1
 499 0 l 1,5,-1
 101 1120 l 1,6,-1
 292 1120 l 1,0,-1
EndSplineSet
EndChar

StartChar: w
Encoding: 119 119 90
Width: 1234
VWidth: 3393
Flags: W
HStem: 0 21G<257.321 442.886 791.179 975.696> 1100 20G<0 188.238 1047.72 1234>
LayerCount: 2
Fore
SplineSet
184 1120 m 1,0,-1
 376 214 l 1,1,-1
 537 794 l 1,2,-1
 696 794 l 1,3,-1
 858 214 l 1,4,-1
 1052 1120 l 1,5,-1
 1234 1120 l 1,6,-1
 971 0 l 1,7,-1
 797 0 l 1,8,-1
 618 615 l 1,9,-1
 437 0 l 1,10,-1
 262 0 l 1,11,-1
 0 1120 l 1,12,-1
 184 1120 l 1,0,-1
EndSplineSet
EndChar

StartChar: x
Encoding: 120 120 91
Width: 1234
VWidth: 3393
Flags: W
HStem: 0 21G<75 302.765 928.459 1157> 1100 20G<116 334.752 898.396 1120>
LayerCount: 2
Fore
SplineSet
719 583 m 1,0,-1
 1157 0 l 1,1,-1
 943 0 l 1,2,-1
 618 447 l 1,3,-1
 288 0 l 1,4,-1
 75 0 l 1,5,-1
 515 583 l 1,6,-1
 116 1120 l 1,7,-1
 320 1120 l 1,8,-1
 618 716 l 1,9,-1
 913 1120 l 1,10,-1
 1120 1120 l 1,11,-1
 719 583 l 1,0,-1
EndSplineSet
EndChar

StartChar: y
Encoding: 121 121 92
Width: 1234
VWidth: 3393
Flags: W
HStem: -428 156<184 417.312> 1100 20G<104 305.603 953.466 1153>
LayerCount: 2
Fore
SplineSet
858 360 m 1,0,1
 835 302 835 302 806 225.5 c 128,-1,2
 777 149 777 149 744 51 c 0,3,4
 641 -214 641 -214 608 -272 c 0,5,6
 512 -428 512 -428 333 -428 c 2,7,-1
 184 -428 l 1,8,-1
 184 -272 l 1,9,-1
 292 -272 l 2,10,11
 376 -272 376 -272 421 -224 c 0,12,13
 472 -172 472 -172 537 17 c 1,14,-1
 104 1120 l 1,15,-1
 298 1120 l 1,16,-1
 631 244 l 1,17,-1
 961 1120 l 1,18,-1
 1153 1120 l 1,19,-1
 858 360 l 1,0,1
EndSplineSet
EndChar

StartChar: z
Encoding: 122 122 93
Width: 1234
VWidth: 3393
Flags: W
HStem: 0 149<398 1042> 978 145<227 848>
VStem: 204 838<0 149 0 1123 1.53064e-18 1.53064e-18>
LayerCount: 2
Fore
SplineSet
1042 1123 m 1,0,-1
 1042 953 l 1,1,-1
 398 149 l 1,2,-1
 1042 149 l 1,3,-1
 1042 0 l 1,4,-1
 204 0 l 1,5,-1
 204 169 l 1,6,-1
 848 978 l 1,7,-1
 227 978 l 1,8,-1
 227 1123 l 1,9,-1
 1042 1123 l 1,0,-1
EndSplineSet
EndChar

StartChar: braceleft
Encoding: 123 123 94
Width: 1234
VWidth: 3393
Flags: W
HStem: -336 145<765.469 1014> 543 143<220 457.524> 1415 143<762.367 1014>
VStem: 220 794<-336 543 1261.36 1878.63> 529 190<-144.662 470.114 751.363 1368.63>
LayerCount: 2
Fore
SplineSet
1014 -336 m 1,0,-1
 949 -336 l 2,1,2
 706 -336 706 -336 615 -262 c 0,3,4
 529 -184 529 -184 529 33 c 2,5,-1
 529 275 l 2,6,7
 529 428 529 428 476 482 c 0,8,9
 424 543 424 543 282 543 c 2,10,-1
 220 543 l 1,11,-1
 220 686 l 1,12,-1
 282 686 l 2,13,14
 424 686 424 686 479 744 c 0,15,16
 529 800 529 800 529 949 c 2,17,-1
 529 1188 l 2,18,19
 529 1408 529 1408 615 1483 c 256,20,21
 699 1558 699 1558 949 1558 c 2,22,-1
 1014 1558 l 1,23,-1
 1014 1415 l 1,24,-1
 943 1415 l 2,25,26
 804 1415 804 1415 761 1370 c 0,27,28
 719 1327 719 1327 719 1185 c 2,29,-1
 719 936 l 2,30,31
 719 784 719 784 673 709 c 0,32,33
 628 638 628 638 515 615 c 1,34,35
 625 583 625 583 673 515 c 0,36,37
 719 441 719 441 719 288 c 2,38,-1
 719 41 l 2,39,40
 719 -104 719 -104 761 -146 c 0,41,42
 800 -191 800 -191 943 -191 c 2,43,-1
 1014 -191 l 1,44,-1
 1014 -336 l 1,0,-1
EndSplineSet
EndChar

StartChar: bar
Encoding: 124 124 95
Width: 1234
VWidth: 3393
Flags: W
VStem: 529 174<-482 1568>
LayerCount: 2
Fore
SplineSet
703 -482 m 1,0,-1
 529 -482 l 1,1,-1
 529 1568 l 1,2,-1
 703 1568 l 1,3,-1
 703 -482 l 1,0,-1
EndSplineSet
EndChar

StartChar: braceright
Encoding: 125 125 96
Width: 1234
VWidth: 3393
Flags: W
HStem: -336 145<220 471.42> 543 143<772.735 1014> 1415 143<220 474.354>
VStem: 515 188<-144.662 474.537 752.438 1368.63>
LayerCount: 2
Fore
SplineSet
288 -191 m 2,0,1
 431 -191 431 -191 476 -146 c 0,2,3
 515 -104 515 -104 515 41 c 2,4,-1
 515 288 l 2,5,6
 515 437 515 437 560 515 c 0,7,8
 608 583 608 583 719 615 c 1,9,10
 611 638 611 638 560 709 c 0,11,12
 515 787 515 787 515 936 c 2,13,-1
 515 1185 l 2,14,15
 515 1327 515 1327 476 1370 c 0,16,17
 424 1415 424 1415 288 1415 c 2,18,-1
 220 1415 l 1,19,-1
 220 1558 l 1,20,-1
 282 1558 l 2,21,22
 534 1558 534 1558 618 1483 c 256,23,24
 703 1408 703 1408 703 1188 c 2,25,-1
 703 949 l 2,26,27
 703 800 703 800 754 744 c 0,28,29
 807 686 807 686 949 686 c 2,30,-1
 1014 686 l 1,31,-1
 1014 543 l 1,32,-1
 949 543 l 2,33,34
 810 543 810 543 754 482 c 0,35,36
 703 428 703 428 703 275 c 2,37,-1
 703 33 l 2,38,39
 703 -184 703 -184 618 -262 c 0,40,41
 525 -336 525 -336 282 -336 c 2,42,-1
 220 -336 l 1,43,-1
 220 -191 l 1,44,-1
 288 -191 l 2,0,1
EndSplineSet
EndChar

StartChar: asciitilde
Encoding: 126 126 97
Width: 1234
VWidth: 3393
Flags: W
HStem: 492 166<679.41 1012.64> 615 165<222.907 476.849>
LayerCount: 2
Fore
SplineSet
1147 608 m 1,0,1
 1069 547 1069 547 997.5 519.5 c 128,-1,2
 926 492 926 492 848 492 c 0,3,4
 757 492 757 492 645 543 c 0,5,6
 635 550 635 550 628 551.5 c 128,-1,7
 621 553 621 553 615 557 c 0,8,9
 573 573 573 573 541 585 c 128,-1,10
 509 597 509 597 482 605 c 0,11,12
 431 615 431 615 379 615 c 0,13,14
 230 615 230 615 88 492 c 1,15,-1
 88 664 l 1,16,17
 166 726 166 726 239 753 c 128,-1,18
 312 780 312 780 398 780 c 0,19,20
 447 780 447 780 499 771 c 0,21,22
 557 761 557 761 621 726 c 1,23,24
 628 726 628 726 655 713 c 0,25,26
 767 658 767 658 865 658 c 0,27,28
 1001 658 1001 658 1147 780 c 1,29,-1
 1147 608 l 1,0,1
EndSplineSet
EndChar

StartChar: Aring
Encoding: 197 197 99
Width: 1234
VWidth: 3393
Flags: W
HStem: 0 21G<38 254.32 982.373 1198> 391 162<404 832> 1781 123<509.03 719.634>
VStem: 343 123<1520.94 1737.31> 771 122<1525.4 1730.99>
LayerCount: 2
Fore
SplineSet
771 1629 m 0,0,1
 771 1693 771 1693 722 1735 c 1,2,3
 683 1781 683 1781 618 1781 c 256,4,5
 553 1781 553 1781 509 1738 c 256,6,7
 466 1693 466 1693 466 1629 c 0,8,9
 466 1571 466 1571 509 1521 c 1,10,11
 560 1476 560 1476 618 1476 c 0,12,13
 679 1476 679 1476 722 1521 c 0,14,15
 771 1568 771 1568 771 1629 c 0,0,1
404 553 m 1,16,-1
 832 553 l 1,17,-1
 618 1314 l 1,18,-1
 404 553 l 1,16,-1
466 1402 m 1,19,20
 408 1435 408 1435 375.5 1494.5 c 128,-1,21
 343 1554 343 1554 343 1629 c 0,22,23
 343 1738 343 1738 421 1823 c 0,24,25
 502 1904 502 1904 618 1904 c 0,26,27
 729 1904 729 1904 810 1823 c 256,28,29
 893 1742 893 1742 893 1629 c 0,30,31
 893 1476 893 1476 771 1402 c 1,32,-1
 1198 0 l 1,33,-1
 988 0 l 1,34,-1
 878 391 l 1,35,-1
 353 391 l 1,36,-1
 249 0 l 1,37,-1
 38 0 l 1,38,-1
 466 1402 l 1,19,20
EndSplineSet
EndChar

StartChar: dagger
Encoding: 8224 8224 130
Width: 1234
VWidth: 3393
Flags: W
HStem: 920 155<162 529 706 1072 162 1072 162 162> 1473 20G<529 706>
VStem: 529 177<-197 920 1075 1493>
LayerCount: 2
Fore
SplineSet
706 1493 m 1,0,-1
 706 1075 l 1,1,-1
 1072 1075 l 1,2,-1
 1072 920 l 1,3,-1
 706 920 l 1,4,-1
 706 -197 l 1,5,-1
 529 -197 l 1,6,-1
 529 920 l 1,7,-1
 162 920 l 1,8,-1
 162 1075 l 1,9,-1
 529 1075 l 1,10,-1
 529 1493 l 1,11,-1
 706 1493 l 1,0,-1
EndSplineSet
EndChar

StartChar: degree
Encoding: 176 176 131
Width: 1234
VWidth: 3393
Flags: W
HStem: 886 128<490.158 739.204> 1392 129<493.796 741.829>
VStem: 298 130<1076.4 1326.19> 807 129<1083.06 1326.19>
LayerCount: 2
Fore
SplineSet
618 1521 m 256,0,1
 754 1521 754 1521 842 1425 c 0,2,3
 936 1337 936 1337 936 1201 c 0,4,5
 936 1072 936 1072 842 978 c 0,6,7
 751 886 751 886 615 886 c 256,8,9
 479 886 479 886 391 978 c 0,10,11
 298 1065 298 1065 298 1201 c 256,12,13
 298 1337 298 1337 391 1428 c 256,14,15
 482 1521 482 1521 618 1521 c 256,0,1
618 1392 m 256,16,17
 537 1392 537 1392 482 1337 c 256,18,19
 428 1283 428 1283 428 1201 c 256,20,21
 428 1120 428 1120 482 1065 c 0,22,23
 540 1014 540 1014 615 1014 c 0,24,25
 696 1014 696 1014 751 1069 c 0,26,27
 807 1127 807 1127 807 1201 c 256,28,29
 807 1276 807 1276 754 1337 c 0,30,31
 699 1392 699 1392 618 1392 c 256,16,17
EndSplineSet
EndChar

StartChar: cent
Encoding: 162 162 132
Width: 1234
VWidth: 3393
Flags: W
HStem: -27 153<555.605 699> 991 156<573.144 699 800 978.236>
VStem: 214 194<321.23 798.521> 214 848<560 906 713 1578> 699 101<-312 -27 126 991 1147 1432>
LayerCount: 2
Fore
SplineSet
1062 906 m 1,0,1
 936 984 936 984 800 994 c 1,2,-1
 800 123 l 1,3,4
 930 133 930 133 1062 214 c 1,5,-1
 1062 41 l 1,6,7
 910 -23 910 -23 800 -27 c 1,8,-1
 800 -312 l 1,9,-1
 699 -312 l 1,10,-1
 699 -27 l 1,11,12
 476 -7 476 -7 343 152 c 0,13,14
 214 312 214 312 214 560 c 256,15,16
 214 807 214 807 343 968 c 256,17,18
 472 1127 472 1127 699 1147 c 1,19,-1
 699 1432 l 1,20,-1
 800 1432 l 1,21,-1
 800 1147 l 1,22,23
 910 1143 910 1143 1062 1079 c 1,24,-1
 1062 906 l 1,0,1
699 991 m 1,25,26
 567 981 567 981 486 862 c 0,27,28
 408 744 408 744 408 560 c 256,29,30
 408 376 408 376 486 258 c 0,31,32
 567 143 567 143 699 126 c 1,33,-1
 699 991 l 1,25,26
EndSplineSet
EndChar

StartChar: sterling
Encoding: 163 163 133
Width: 1234
VWidth: 3393
Flags: W
HStem: 0 169<139 376 577 1114> 635 145<176 376 577 946> 1367 154<687.565 1019.15>
VStem: 376 201<169 635 780 1248.94>
LayerCount: 2
Fore
SplineSet
1092 1279 m 1,0,1
 968 1367 968 1367 838 1367 c 0,2,3
 703 1367 703 1367 640 1279 c 128,-1,4
 577 1191 577 1191 577 998 c 2,5,-1
 577 780 l 1,6,-1
 946 780 l 1,7,-1
 946 635 l 1,8,-1
 577 635 l 1,9,-1
 577 169 l 1,10,-1
 1114 169 l 1,11,-1
 1114 0 l 1,12,-1
 139 0 l 1,13,-1
 139 169 l 1,14,-1
 376 169 l 1,15,-1
 376 635 l 1,16,-1
 176 635 l 1,17,-1
 176 780 l 1,18,-1
 376 780 l 1,19,-1
 376 1017 l 2,20,21
 376 1521 376 1521 819 1521 c 0,22,23
 958 1521 958 1521 1092 1463 c 1,24,-1
 1092 1279 l 1,0,1
EndSplineSet
EndChar

StartChar: section
Encoding: 167 167 134
Width: 1234
VWidth: 3393
Flags: W
HStem: -197 146<365.031 737.339> 1377 144<501.849 794.453>
VStem: 200 163<637.387 861.621> 265 182<1141.4 1327.67> 787 184<-2.51941 201.354> 872 167<481.014 706.931>
LayerCount: 2
Fore
SplineSet
936 1299 m 1,0,1
 764 1377 764 1377 655 1377 c 0,2,3
 557 1377 557 1377 502 1336.5 c 128,-1,4
 447 1296 447 1296 447 1225 c 0,5,6
 447 1140 447 1140 655 1021 c 0,7,8
 668 1014 668 1014 678.5 1009 c 128,-1,9
 689 1004 689 1004 696 998 c 2,10,11
 910 878 910 878 971 800 c 0,12,13
 1039 722 1039 722 1039 625 c 0,14,15
 1039 444 1039 444 852 340 c 1,16,17
 971 240 971 240 971 116 c 0,18,19
 971 -27 971 -27 868 -113 c 0,20,21
 764 -197 764 -197 593 -197 c 0,22,23
 457 -197 457 -197 278 -136 c 1,24,-1
 278 27 l 1,25,26
 462 -51 462 -51 570 -51 c 0,27,28
 787 -51 787 -51 787 109 c 0,29,30
 787 207 787 207 567 336 c 2,31,-1
 543 350 l 2,32,33
 326 466 326 466 265 543 c 0,34,35
 200 621 200 621 200 722 c 0,36,37
 200 913 200 913 383 1007 c 1,38,39
 265 1092 265 1092 265 1231 c 0,40,41
 265 1360 265 1360 363 1442 c 0,42,43
 469 1521 469 1521 631 1521 c 0,44,45
 703 1521 703 1521 780.5 1507 c 128,-1,46
 858 1493 858 1493 936 1463 c 1,47,-1
 936 1299 l 1,0,1
486 936 m 1,48,49
 363 845 363 845 363 754 c 0,50,51
 363 679 363 679 431 611 c 0,52,53
 502 547 502 547 751 411 c 1,54,55
 872 499 872 499 872 593 c 0,56,57
 872 673 872 673 800 736 c 0,58,59
 726 807 726 807 486 936 c 1,48,49
EndSplineSet
EndChar

StartChar: bullet
Encoding: 8226 8226 135
Width: 1234
VWidth: 3393
Flags: W
HStem: 466 593<459.599 772.072>
VStem: 320 593<604.347 920.261>
LayerCount: 2
Fore
SplineSet
320 764 m 0,0,1
 320 886 320 886 404 971 c 0,2,3
 492 1059 492 1059 618 1059 c 0,4,5
 739 1059 739 1059 828 971 c 0,6,7
 913 890 913 890 913 764 c 256,8,9
 913 638 913 638 828 553 c 0,10,11
 739 466 739 466 615 466 c 256,12,13
 489 466 489 466 404 550 c 256,14,15
 320 635 320 635 320 764 c 0,0,1
EndSplineSet
EndChar

StartChar: paragraph
Encoding: 182 182 136
Width: 1234
VWidth: 3393
Flags: W
HStem: 1370 123<699 890>
VStem: 104 595<875.81 1268.57> 104 928<890 1266> 557 142<-197 648> 890 142<-197 1370>
LayerCount: 2
Fore
SplineSet
1032 1493 m 1,0,-1
 1032 -197 l 1,1,-1
 890 -197 l 1,2,-1
 890 1370 l 1,3,-1
 699 1370 l 1,4,-1
 699 -197 l 1,5,-1
 557 -197 l 1,6,-1
 557 648 l 1,7,8
 336 668 336 668 224 777 c 0,9,10
 104 890 104 890 104 1072 c 0,11,12
 104 1266 104 1266 237 1377 c 0,13,14
 363 1493 363 1493 583 1493 c 2,15,-1
 1032 1493 l 1,0,-1
EndSplineSet
EndChar

StartChar: germandbls
Encoding: 223 223 137
Width: 1234
VWidth: 3393
Flags: W
HStem: -30 153<501.219 891.82> 1405 153<456.32 767.335>
VStem: 187 189<0 1321.19> 529 180<786.718 1007.91> 848 184<1185 1321.78> 964 186<188.788 426.997>
LayerCount: 2
Fore
SplineSet
187 1137 m 1,0,1
 187 1558 187 1558 615 1558 c 0,2,3
 1024 1558 1024 1558 1032 1120 c 1,4,5
 875 1107 875 1107 792 1044 c 128,-1,6
 709 981 709 981 709 882 c 0,7,8
 709 835 709 835 736.5 796 c 128,-1,9
 764 757 764 757 832 713 c 2,10,-1
 890 676 l 2,11,12
 964 628 964 628 1014.5 585.5 c 128,-1,13
 1065 543 1065 543 1092 502 c 0,14,15
 1150 418 1150 418 1150 302 c 0,16,17
 1150 149 1150 149 1039 61 c 0,18,19
 926 -30 926 -30 729 -30 c 0,20,21
 590 -30 590 -30 457 20 c 1,22,-1
 457 184 l 1,23,24
 611 123 611 123 726 123 c 0,25,26
 835 123 835 123 899.5 171.5 c 128,-1,27
 964 220 964 220 964 302 c 0,28,29
 964 373 964 373 930 421 c 0,30,31
 900 466 900 466 780 543 c 2,32,-1
 713 580 l 2,33,34
 529 689 529 689 529 848 c 0,35,36
 529 1114 529 1114 848 1185 c 1,37,38
 842 1405 842 1405 611 1405 c 0,39,40
 489 1405 489 1405 432.5 1340.5 c 128,-1,41
 376 1276 376 1276 376 1133 c 2,42,-1
 376 0 l 1,43,-1
 187 0 l 1,44,-1
 187 1137 l 1,0,1
EndSplineSet
EndChar

StartChar: registered
Encoding: 174 174 138
Width: 1234
VWidth: 3393
Flags: W
HStem: 126 101<410.192 824.578> 703 81<492 597.209> 1017 87<492 722.315> 1256 104<402.201 832.808>
VStem: 0 101<534.473 953.592> 363 129<408 703 784 1017> 761 132<809.778 990.3> 1130 104<528.192 957.382>
LayerCount: 2
Fore
SplineSet
600 1104 m 1,0,1
 893 1104 893 1104 893 903 c 0,2,3
 893 754 893 754 722 722 c 1,4,5
 761 713 761 713 838 593 c 2,6,-1
 953 408 l 1,7,-1
 810 408 l 1,8,-1
 703 580 l 2,9,10
 648 664 648 664 621 683 c 1,11,12
 597 703 597 703 547 703 c 2,13,-1
 492 703 l 1,14,-1
 492 408 l 1,15,-1
 363 408 l 1,16,-1
 363 1104 l 1,17,-1
 600 1104 l 1,0,1
492 1017 m 1,18,-1
 492 784 l 1,19,-1
 593 784 l 2,20,21
 686 784 686 784 723.5 811 c 128,-1,22
 761 838 761 838 761 903 c 0,23,24
 761 964 761 964 723.5 990.5 c 128,-1,25
 686 1017 686 1017 593 1017 c 2,26,-1
 492 1017 l 1,18,-1
618 1360 m 256,27,28
 872 1360 872 1360 1052 1181 c 0,29,30
 1234 991 1234 991 1234 744 c 0,31,32
 1234 489 1234 489 1052 308 c 0,33,34
 868 126 868 126 618 126 c 0,35,36
 363 126 363 126 184 308 c 0,37,38
 0 489 0 489 0 744 c 256,39,40
 0 998 0 998 184 1181 c 0,41,42
 363 1360 363 1360 618 1360 c 256,27,28
618 1256 m 0,43,44
 401 1256 401 1256 255 1107 c 0,45,46
 101 961 101 961 101 744 c 0,47,48
 101 529 101 529 255 379 c 0,49,50
 408 227 408 227 618 227 c 256,51,52
 828 227 828 227 981 379 c 0,53,54
 1130 529 1130 529 1130 744 c 256,55,56
 1130 958 1130 958 981 1107 c 256,57,58
 832 1256 832 1256 618 1256 c 0,43,44
EndSplineSet
EndChar

StartChar: copyright
Encoding: 169 169 139
Width: 1234
VWidth: 3393
Flags: W
HStem: 126 101<410.192 824.578> 370 99<489.29 796.991> 1017 100<487.237 846.989> 1256 104<402.201 832.808>
VStem: 0 101<534.473 953.592> 252 134<571.375 916.909> 1130 104<528.192 957.382>
LayerCount: 2
Fore
SplineSet
865 964 m 1,0,1
 754 1017 754 1017 638 1017 c 256,2,3
 522 1017 522 1017 451 943 c 0,4,5
 386 875 386 875 386 744 c 256,6,7
 386 611 386 611 455.5 540 c 128,-1,8
 525 469 525 469 655 469 c 0,9,10
 713 469 713 469 764 480.5 c 128,-1,11
 815 492 815 492 865 519 c 1,12,-1
 865 414 l 1,13,14
 767 370 767 370 638 370 c 0,15,16
 457 370 457 370 353 469 c 0,17,18
 252 570 252 570 252 744 c 0,19,20
 252 920 252 920 353 1014 c 0,21,22
 462 1117 462 1117 638 1117 c 0,23,24
 767 1117 767 1117 865 1072 c 1,25,-1
 865 964 l 1,0,1
618 1256 m 0,26,27
 401 1256 401 1256 255 1107 c 0,28,29
 101 961 101 961 101 744 c 0,30,31
 101 529 101 529 255 379 c 0,32,33
 408 227 408 227 618 227 c 256,34,35
 828 227 828 227 981 379 c 0,36,37
 1130 529 1130 529 1130 744 c 256,38,39
 1130 958 1130 958 981 1107 c 256,40,41
 832 1256 832 1256 618 1256 c 0,26,27
618 1360 m 256,42,43
 872 1360 872 1360 1052 1181 c 0,44,45
 1234 991 1234 991 1234 744 c 0,46,47
 1234 489 1234 489 1052 308 c 0,48,49
 868 126 868 126 618 126 c 0,50,51
 363 126 363 126 184 308 c 0,52,53
 0 489 0 489 0 744 c 256,54,55
 0 998 0 998 184 1181 c 0,56,57
 363 1360 363 1360 618 1360 c 256,42,43
EndSplineSet
EndChar

StartChar: trademark
Encoding: 8482 8482 140
Width: 1234
VWidth: 3393
Flags: W
HStem: 916 577<162 275 522 635 1014 1127 0 275 1.53064e-18 1.53064e-18> 1402 91<0 162 275 437>
VStem: 162 113<916 1402> 522 113<916 1399> 1014 113<916 1399>
LayerCount: 2
Fore
SplineSet
437 1402 m 1,0,-1
 275 1402 l 1,1,-1
 275 916 l 1,2,-1
 162 916 l 1,3,-1
 162 1402 l 1,4,-1
 0 1402 l 1,5,-1
 0 1493 l 1,6,-1
 437 1493 l 1,7,-1
 437 1402 l 1,0,-1
832 1239 m 1,8,-1
 953 1493 l 1,9,-1
 1127 1493 l 1,10,-1
 1127 916 l 1,11,-1
 1014 916 l 1,12,-1
 1014 1399 l 1,13,-1
 858 1097 l 1,14,-1
 800 1097 l 1,15,-1
 635 1399 l 1,16,-1
 635 916 l 1,17,-1
 522 916 l 1,18,-1
 522 1493 l 1,19,-1
 693 1493 l 1,20,-1
 832 1239 l 1,8,-1
EndSplineSet
EndChar

StartChar: acute
Encoding: 180 180 141
Width: 1234
VWidth: 3393
Flags: W
HStem: 1263 376<631 953 953 953>
LayerCount: 2
Fore
SplineSet
953 1639 m 1,0,-1
 631 1263 l 1,1,-1
 476 1263 l 1,2,-1
 757 1639 l 1,3,-1
 953 1639 l 1,0,-1
EndSplineSet
EndChar

StartChar: dieresis
Encoding: 168 168 142
Width: 1234
VWidth: 3393
Flags: W
HStem: 1350 204<320 522 713 913>
VStem: 320 202<1350 1554> 713 200<1350 1554>
LayerCount: 2
Fore
SplineSet
522 1554 m 1,0,-1
 522 1350 l 1,1,-1
 320 1350 l 1,2,-1
 320 1554 l 1,3,-1
 522 1554 l 1,0,-1
913 1554 m 1,4,-1
 913 1350 l 1,5,-1
 713 1350 l 1,6,-1
 713 1554 l 1,7,-1
 913 1554 l 1,4,-1
EndSplineSet
EndChar

StartChar: notequal
Encoding: 8800 8800 143
Width: 1234
VWidth: 3393
Flags: W
HStem: 353 172<88 288 628 1147> 761 169<88 605 943 1147>
LayerCount: 2
Fore
SplineSet
736 930 m 1,0,-1
 981 1246 l 1,1,-1
 1107 1143 l 1,2,-1
 943 930 l 1,3,-1
 1147 930 l 1,4,-1
 1147 761 l 1,5,-1
 810 761 l 1,6,-1
 628 525 l 1,7,-1
 1147 525 l 1,8,-1
 1147 353 l 1,9,-1
 499 353 l 1,10,-1
 252 38 l 1,11,-1
 126 143 l 1,12,-1
 288 353 l 1,13,-1
 88 353 l 1,14,-1
 88 525 l 1,15,-1
 418 525 l 1,16,-1
 605 761 l 1,17,-1
 88 761 l 1,18,-1
 88 930 l 1,19,-1
 736 930 l 1,0,-1
EndSplineSet
EndChar

StartChar: AE
Encoding: 198 198 144
Width: 1234
VWidth: 3393
Flags: W
HStem: 0 169<825 1181> 383 170<330 638> 713 169<825 1130> 1324 169<529 638 825 1160>
VStem: 638 187<169 383 553 713 882 1324>
LayerCount: 2
Fore
SplineSet
1160 1324 m 1,0,-1
 825 1324 l 1,1,-1
 825 882 l 1,2,-1
 1130 882 l 1,3,-1
 1130 713 l 1,4,-1
 825 713 l 1,5,-1
 825 169 l 1,6,-1
 1181 169 l 1,7,-1
 1181 0 l 1,8,-1
 638 0 l 1,9,-1
 638 383 l 1,10,-1
 285 383 l 1,11,-1
 184 0 l 1,12,-1
 0 0 l 1,13,-1
 411 1493 l 1,14,-1
 1160 1493 l 1,15,-1
 1160 1324 l 1,0,-1
330 553 m 1,16,-1
 638 553 l 1,17,-1
 638 1324 l 1,18,-1
 529 1324 l 1,19,-1
 330 553 l 1,16,-1
EndSplineSet
EndChar

StartChar: Oslash
Encoding: 216 216 145
Width: 1234
VWidth: 3393
Flags: W
HStem: -30 166<467.753 762.334> 1357 164<472.73 763.884>
VStem: 122.5 209<504.752 620.842 620.842 670.908 645.875 1137.84> 906 211<353.731 922.485>
LayerCount: 2
Fore
SplineSet
370 302 m 1,0,1
 401 224 401 224 467.5 180 c 128,-1,2
 534 136 534 136 618 136 c 0,3,4
 771 136 771 136 838 275 c 0,5,6
 906 421 906 421 906 747 c 0,7,8
 906 855 906 855 901 923 c 128,-1,9
 896 991 896 991 886 1039 c 1,10,-1
 370 302 l 1,0,1
842 1191 m 1,11,12
 794 1357 794 1357 618 1357 c 0,13,14
 457 1357 457 1357 394 1211 c 0,15,16
 330 1069 330 1069 330 686 c 0,17,18
 330 608 330 608 331.5 556.5 c 128,-1,19
 333 505 333 505 340 472 c 1,20,-1
 842 1191 l 1,11,12
1032 1249 m 1,21,22
 1075 1168 1075 1168 1096 1039 c 128,-1,23
 1117 910 1117 910 1117 747 c 0,24,25
 1117 -30 1117 -30 618 -30 c 0,26,27
 376 -30 376 -30 255 133 c 1,28,-1
 113 -71 l 1,29,-1
 7 0 l 1,30,-1
 187 252 l 1,31,32
 156 330 156 330 136 457 c 0,33,34
 126 522 126 522 122.5 595 c 128,-1,35
 119 668 119 668 119 747 c 0,36,37
 119 1521 119 1521 618 1521 c 0,38,39
 848 1521 848 1521 961 1360 c 1,40,-1
 1104 1561 l 1,41,-1
 1201 1486 l 1,42,-1
 1032 1249 l 1,21,22
EndSplineSet
EndChar

StartChar: infinity
Encoding: 8734 8734 146
Width: 1234
VWidth: 3393
Flags: W
HStem: 252 139<221.56 421.355 802.87 1001.93> 868 139<228.482 429.963 810.643 1008.57>
VStem: 41 125<454.329 799.591> 1065 130<457.847 804.878>
LayerCount: 2
Fore
SplineSet
696 628 m 1,0,1
 751 492 751 492 797 441 c 256,2,3
 845 391 845 391 903 391 c 0,4,5
 974 391 974 391 1021 457 c 0,6,7
 1065 522 1065 522 1065 635 c 0,8,9
 1065 739 1065 739 1024 804 c 256,10,11
 984 868 984 868 913 868 c 0,12,13
 784 868 784 868 696 628 c 1,0,1
537 635 m 1,14,15
 509 703 509 703 483 748.5 c 128,-1,16
 457 794 457 794 434 819 c 0,17,18
 391 868 391 868 330 868 c 0,19,20
 255 868 255 868 210 800 c 0,21,22
 166 736 166 736 166 631 c 0,23,24
 166 522 166 522 207 454 c 0,25,26
 252 391 252 391 320 391 c 0,27,28
 447 391 447 391 537 635 c 1,14,15
618 764 m 1,29,30
 664 882 664 882 737 944.5 c 128,-1,31
 810 1007 810 1007 903 1007 c 0,32,33
 1017 1007 1017 1007 1107 900 c 0,34,35
 1195 784 1195 784 1195 631 c 0,36,37
 1195 462 1195 462 1110 356 c 0,38,39
 1036 252 1036 252 903 252 c 0,40,41
 825 252 825 252 757 302 c 0,42,43
 693 346 693 346 615 482 c 1,44,45
 547 356 547 356 482.5 304 c 128,-1,46
 418 252 418 252 333 252 c 0,47,48
 207 252 207 252 126 356 c 0,49,50
 41 462 41 462 41 631 c 256,51,52
 41 800 41 800 119 906 c 0,53,54
 200 1007 200 1007 330 1007 c 0,55,56
 424 1007 424 1007 492 950 c 128,-1,57
 560 893 560 893 618 764 c 1,29,30
EndSplineSet
EndChar

StartChar: plusminus
Encoding: 177 177 147
Width: 1234
VWidth: 3393
Flags: W
HStem: 0 169<88 1147> 673 169<88 534 703 1147>
VStem: 534 169<340 673 842 1171>
LayerCount: 2
Fore
SplineSet
1147 169 m 1,0,-1
 1147 0 l 1,1,-1
 88 0 l 1,2,-1
 88 169 l 1,3,-1
 1147 169 l 1,0,-1
703 842 m 1,4,-1
 1147 842 l 1,5,-1
 1147 673 l 1,6,-1
 703 673 l 1,7,-1
 703 340 l 1,8,-1
 534 340 l 1,9,-1
 534 673 l 1,10,-1
 88 673 l 1,11,-1
 88 842 l 1,12,-1
 534 842 l 1,13,-1
 534 1171 l 1,14,-1
 703 1171 l 1,15,-1
 703 842 l 1,4,-1
EndSplineSet
EndChar

StartChar: lessequal
Encoding: 8804 8804 148
Width: 1234
VWidth: 3393
Flags: W
HStem: 0 169<85 1143>
LayerCount: 2
Fore
SplineSet
1143 258 m 1,0,-1
 85 587 l 1,1,-1
 85 757 l 1,2,-1
 1143 1089 l 1,3,-1
 1143 903 l 1,4,-1
 343 673 l 1,5,-1
 1143 437 l 1,6,-1
 1143 258 l 1,0,-1
1143 0 m 1,7,-1
 85 0 l 1,8,-1
 85 169 l 1,9,-1
 1143 169 l 1,10,-1
 1143 0 l 1,7,-1
EndSplineSet
EndChar

StartChar: greaterequal
Encoding: 8805 8805 149
Width: 1234
VWidth: 3393
Flags: W
HStem: 0 169<88 1147>
LayerCount: 2
Fore
SplineSet
893 673 m 1,0,-1
 88 903 l 1,1,-1
 88 1089 l 1,2,-1
 1147 757 l 1,3,-1
 1147 587 l 1,4,-1
 88 258 l 1,5,-1
 88 437 l 1,6,-1
 893 673 l 1,0,-1
1147 169 m 1,7,-1
 1147 0 l 1,8,-1
 88 0 l 1,9,-1
 88 169 l 1,10,-1
 1147 169 l 1,7,-1
EndSplineSet
EndChar

StartChar: yen
Encoding: 165 165 150
Width: 1234
VWidth: 3393
Flags: W
HStem: 0 21G<515 719> 525 110<116 515 719 1120> 822 111<116 360 865 1120> 1473 20G<38 263.125 969.967 1198>
VStem: 515 204<0 525 635 673>
LayerCount: 2
Fore
SplineSet
252 1493 m 1,0,-1
 618 835 l 1,1,-1
 981 1493 l 1,2,-1
 1198 1493 l 1,3,-1
 865 933 l 1,4,-1
 1120 933 l 1,5,-1
 1120 822 l 1,6,-1
 804 822 l 1,7,-1
 719 673 l 1,8,-1
 719 635 l 1,9,-1
 1120 635 l 1,10,-1
 1120 525 l 1,11,-1
 719 525 l 1,12,-1
 719 0 l 1,13,-1
 515 0 l 1,14,-1
 515 525 l 1,15,-1
 116 525 l 1,16,-1
 116 635 l 1,17,-1
 515 635 l 1,18,-1
 515 673 l 1,19,-1
 424 822 l 1,20,-1
 116 822 l 1,21,-1
 116 933 l 1,22,-1
 360 933 l 1,23,-1
 38 1493 l 1,24,-1
 252 1493 l 1,0,-1
EndSplineSet
EndChar

StartChar: mu
Encoding: 181 181 151
Width: 1234
VWidth: 3393
Flags: W
HStem: -428 21G<197 363> -30 163<465.79 760.386 992.673 1160.84> 1100 20G<197 379 865 1052>
VStem: 197 166<-428 126> 197 182<225.074 1120> 865 187<251.453 258 469 1120>
LayerCount: 2
Fore
SplineSet
197 1120 m 1,0,-1
 379 1120 l 1,1,-1
 379 424 l 2,2,3
 379 133 379 133 611 133 c 0,4,5
 865 133 865 133 865 469 c 2,6,-1
 865 1120 l 1,7,-1
 1052 1120 l 1,8,-1
 1052 258 l 2,9,10
 1052 143 1052 143 1117 143 c 0,11,12
 1127 143 1127 143 1142 146 c 128,-1,13
 1157 149 1157 149 1185 162 c 1,14,-1
 1185 17 l 1,15,16
 1107 -30 1107 -30 1042 -30 c 0,17,18
 920 -30 920 -30 893 129 c 1,19,20
 804 -30 804 -30 625 -30 c 0,21,22
 447 -30 447 -30 363 126 c 1,23,-1
 363 -428 l 1,24,-1
 197 -428 l 1,25,-1
 197 1120 l 1,0,-1
EndSplineSet
EndChar

StartChar: partialdiff
Encoding: 8706 8706 152
Width: 1234
VWidth: 3393
Flags: W
HStem: -23 53<431.46 656.143> 736 74<514.224 734.667> 1208 119<618.217 820.607>
VStem: 191 185<165.124 547.271> 872 177<712.324 1043.24>
LayerCount: 2
Fore
SplineSet
842 621 m 1,0,1
 872 794 872 794 872 946 c 0,2,3
 872 1208 872 1208 726 1208 c 0,4,5
 676 1208 676 1208 600 1150 c 0,6,7
 534 1092 534 1092 492 1092 c 0,8,9
 454 1092 454 1092 431 1114.5 c 128,-1,10
 408 1137 408 1137 408 1168 c 0,11,12
 408 1231 408 1231 482 1276 c 0,13,14
 553 1327 553 1327 655 1327 c 0,15,16
 835 1327 835 1327 940 1171 c 0,17,18
 1049 1014 1049 1014 1049 754 c 0,19,20
 1049 414 1049 414 903 197 c 0,21,22
 764 -23 764 -23 547 -23 c 0,23,24
 394 -23 394 -23 292 81 c 0,25,26
 191 194 191 194 191 353 c 0,27,28
 191 557 191 557 302 683 c 0,29,30
 411 810 411 810 573 810 c 0,31,32
 676 810 676 810 740 764.5 c 128,-1,33
 804 719 804 719 842 621 c 1,0,1
794 495 m 0,34,35
 794 611 794 611 750 673.5 c 128,-1,36
 706 736 706 736 628 736 c 0,37,38
 519 736 519 736 447 608 c 0,39,40
 376 476 376 476 376 272 c 0,41,42
 376 30 376 30 543 30 c 0,43,44
 651 30 651 30 722 159 c 0,45,46
 794 292 794 292 794 495 c 0,34,35
EndSplineSet
EndChar

StartChar: summation
Encoding: 8721 8721 153
Width: 1234
VWidth: 3393
Flags: W
HStem: -437 139<333 1085> 1382 139<333 1065>
LayerCount: 2
Fore
SplineSet
1085 -298 m 1,0,-1
 1085 -437 l 1,1,-1
 143 -437 l 1,2,-1
 143 -343 l 1,3,-1
 693 577 l 1,4,-1
 143 1425 l 1,5,-1
 143 1521 l 1,6,-1
 1065 1521 l 1,7,-1
 1065 1382 l 1,8,-1
 333 1382 l 1,9,-1
 855 577 l 1,10,-1
 333 -298 l 1,11,-1
 1085 -298 l 1,0,-1
EndSplineSet
EndChar

StartChar: product
Encoding: 8719 8719 154
Width: 1234
VWidth: 3393
Flags: W
HStem: 1389 132<308 926>
VStem: 152 156<-437 1389> 152 930<1389 1521> 926 156<-437 1389>
LayerCount: 2
Fore
SplineSet
152 1521 m 1,0,-1
 1082 1521 l 1,1,-1
 1082 -437 l 1,2,-1
 926 -437 l 1,3,-1
 926 1389 l 1,4,-1
 308 1389 l 1,5,-1
 308 -437 l 1,6,-1
 152 -437 l 1,7,-1
 152 1521 l 1,0,-1
EndSplineSet
EndChar

StartChar: pi
Encoding: 960 960 155
Width: 1234
VWidth: 3393
Flags: W
HStem: -41 154<1034.6 1130.15> 953 151<81 224 404 832 1014 1153>
VStem: 224 180<0 953> 832 182<132.282 953>
LayerCount: 2
Fore
SplineSet
1153 1104 m 1,0,-1
 1153 953 l 1,1,-1
 1014 953 l 1,2,-1
 1014 249 l 2,3,4
 1014 113 1014 113 1117 113 c 0,5,6
 1133 113 1133 113 1155.5 116 c 128,-1,7
 1178 119 1178 119 1185 119 c 1,8,-1
 1185 -13 l 1,9,10
 1110 -41 1110 -41 1039 -41 c 0,11,12
 926 -41 926 -41 878 27 c 256,13,14
 832 94 832 94 832 268 c 2,15,-1
 832 953 l 1,16,-1
 404 953 l 1,17,-1
 404 0 l 1,18,-1
 224 0 l 1,19,-1
 224 953 l 1,20,-1
 81 953 l 1,21,-1
 81 1104 l 1,22,-1
 1153 1104 l 1,0,-1
EndSplineSet
EndChar

StartChar: integral
Encoding: 8747 8747 156
Width: 1234
VWidth: 3393
Flags: W
HStem: -370 108<300.095 441.641> 1445 106<792.535 931.39>
VStem: 515 198<115.876 475.458 475.458 587.269 587.269 738.6 738.6 825 825 1060.11>
LayerCount: 2
Fore
SplineSet
394 -262 m 0,0,1
 502 -262 502 -262 512 428 c 0,2,3
 515 482 515 482 515 522.5 c 128,-1,4
 515 563 515 563 515 590 c 0,5,6
 534 1114 534 1114 625 1331 c 0,7,8
 716 1551 716 1551 920 1551 c 0,9,10
 1001 1551 1001 1551 1052 1510 c 0,11,12
 1104 1466 1104 1466 1104 1402 c 0,13,14
 1104 1347 1104 1347 1071.5 1316.5 c 128,-1,15
 1039 1286 1039 1286 981 1286 c 0,16,17
 893 1286 893 1286 872 1357 c 0,18,19
 868 1374 868 1374 862 1408 c 0,20,21
 855 1445 855 1445 842 1445 c 0,22,23
 736 1445 736 1445 719 825 c 0,24,25
 716 726 716 726 716 653 c 128,-1,26
 716 580 716 580 713 522 c 0,27,28
 706 282 706 282 677 110.5 c 128,-1,29
 648 -61 648 -61 600 -162 c 0,30,31
 505 -370 505 -370 308 -370 c 0,32,33
 230 -370 230 -370 181 -330 c 256,34,35
 129 -288 129 -288 129 -224 c 0,36,37
 129 -104 129 -104 258 -104 c 0,38,39
 326 -104 326 -104 353 -159 c 0,40,41
 366 -184 366 -184 370 -220 c 0,42,43
 376 -262 376 -262 394 -262 c 0,0,1
EndSplineSet
EndChar

StartChar: ordfeminine
Encoding: 170 170 157
Width: 1234
VWidth: 3393
Flags: W
HStem: 469 124<292 961> 699 120<458.434 717.432> 1107 114<480.927 810> 1405 116<445.843 750.77>
VStem: 272 146<857.644 1061.83> 810 143<719 832 912.446 1075 1075 1107 1221 1346.18>
LayerCount: 2
Fore
SplineSet
686 1107 m 1,0,1
 540 1107 540 1107 479 1073 c 128,-1,2
 418 1039 418 1039 418 961 c 0,3,4
 418 896 418 896 460 857.5 c 128,-1,5
 502 819 502 819 577 819 c 0,6,7
 683 819 683 819 747 890 c 0,8,9
 810 958 810 958 810 1075 c 2,10,-1
 810 1107 l 1,11,-1
 686 1107 l 1,0,1
953 719 m 1,12,-1
 810 719 l 1,13,-1
 810 832 l 1,14,15
 716 699 716 699 550 699 c 0,16,17
 424 699 424 699 346 767 c 0,18,19
 272 832 272 832 272 949 c 0,20,21
 272 1079 272 1079 364.5 1150 c 128,-1,22
 457 1221 457 1221 631 1221 c 2,23,-1
 810 1221 l 1,24,-1
 810 1225 l 2,25,26
 810 1405 810 1405 577 1405 c 0,27,28
 469 1405 469 1405 333 1337 c 1,29,-1
 333 1466 l 1,30,31
 401 1493 401 1493 469 1507 c 128,-1,32
 537 1521 537 1521 597 1521 c 0,33,34
 784 1521 784 1521 868.5 1435.5 c 128,-1,35
 953 1350 953 1350 953 1168 c 2,36,-1
 953 719 l 1,12,-1
961 593 m 1,37,-1
 961 469 l 1,38,-1
 292 469 l 1,39,-1
 292 593 l 1,40,-1
 961 593 l 1,37,-1
EndSplineSet
EndChar

StartChar: ordmasculine
Encoding: 186 186 158
Width: 1234
VWidth: 3393
Flags: W
HStem: 469 124<275 953> 699 116<488.93 744.304> 1405 116<489.995 744.866>
VStem: 244 157<910.611 1305.67> 835 156<914.505 1305.67>
LayerCount: 2
Fore
SplineSet
618 1405 m 256,0,1
 515 1405 515 1405 458 1327 c 128,-1,2
 401 1249 401 1249 401 1110 c 0,3,4
 401 968 401 968 458 891.5 c 128,-1,5
 515 815 515 815 618 815 c 0,6,7
 716 815 716 815 777 893 c 0,8,9
 835 978 835 978 835 1110 c 0,10,11
 835 1249 835 1249 777 1327 c 128,-1,12
 719 1405 719 1405 618 1405 c 256,0,1
618 1521 m 256,13,14
 787 1521 787 1521 890 1408 c 256,15,16
 991 1296 991 1296 991 1110 c 256,17,18
 991 923 991 923 890 810 c 256,19,20
 787 699 787 699 618 699 c 256,21,22
 447 699 447 699 346 810 c 256,23,24
 244 923 244 923 244 1110 c 256,25,26
 244 1296 244 1296 346 1408 c 256,27,28
 447 1521 447 1521 618 1521 c 256,13,14
953 593 m 1,29,-1
 953 469 l 1,30,-1
 275 469 l 1,31,-1
 275 593 l 1,32,-1
 953 593 l 1,29,-1
EndSplineSet
EndChar

StartChar: Omega
Encoding: 937 937 159
Width: 1234
VWidth: 3393
Flags: W
HStem: 0 172<75 320 913 1160> 1296 167<460.781 770.377>
VStem: 85 197<488.675 1075.63> 949 198<485.763 1076.61>
LayerCount: 2
Fore
SplineSet
75 172 m 1,0,-1
 320 172 l 1,1,2
 200 302 200 302 143 451 c 0,3,4
 85 597 85 597 85 784 c 0,5,6
 85 1089 85 1089 230 1276 c 0,7,8
 373 1463 373 1463 615 1463 c 0,9,10
 858 1463 858 1463 1001 1279 c 0,11,12
 1147 1100 1147 1100 1147 784 c 0,13,14
 1147 600 1147 600 1089 447 c 0,15,16
 1032 302 1032 302 913 172 c 1,17,-1
 1160 172 l 1,18,-1
 1160 0 l 1,19,-1
 696 0 l 1,20,-1
 696 172 l 1,21,22
 819 249 819 249 882 414 c 0,23,24
 949 570 949 570 949 800 c 256,25,26
 949 1032 949 1032 862 1160 c 0,27,28
 771 1296 771 1296 618 1296 c 0,29,30
 457 1296 457 1296 373 1160 c 0,31,32
 282 1036 282 1036 282 800 c 0,33,34
 282 580 282 580 350 414 c 0,35,36
 421 249 421 249 537 172 c 1,37,-1
 537 0 l 1,38,-1
 75 0 l 1,39,-1
 75 172 l 1,0,-1
EndSplineSet
EndChar

StartChar: ae
Encoding: 230 230 160
Width: 1234
VWidth: 3393
Flags: W
HStem: -30 156<250.66 491.8 783.644 1104.9> 515 143<269.611 543 709 1039> 994 153<233.159 484.049 762.945 982.799>
VStem: 41 163<174.399 454.411> 543 166<204.072 515 658 923.854> 1039 162<658 925.916>
LayerCount: 2
Fore
SplineSet
543 515 m 1,0,-1
 495 515 l 2,1,2
 330 515 330 515 265 469 c 0,3,4
 204 428 204 428 204 312 c 0,5,6
 204 126 204 126 376 126 c 0,7,8
 472 126 472 126 505 191 c 0,9,10
 543 255 543 255 543 441 c 2,11,-1
 543 515 l 1,0,-1
1039 709 m 2,12,13
 1039 862 1039 862 1000 928 c 128,-1,14
 961 994 961 994 872 994 c 256,15,16
 784 994 784 994 746.5 926 c 128,-1,17
 709 858 709 858 709 703 c 2,18,-1
 709 658 l 1,19,-1
 1039 658 l 1,20,-1
 1039 709 l 2,12,13
709 515 m 1,21,-1
 709 431 l 2,22,23
 709 268 709 268 758 197 c 128,-1,24
 807 126 807 126 920 126 c 0,25,26
 1079 126 1079 126 1181 227 c 1,27,-1
 1181 55 l 1,28,29
 1065 -30 1065 -30 920 -30 c 0,30,31
 696 -30 696 -30 631 133 c 1,32,33
 550 -30 550 -30 360 -30 c 0,34,35
 41 -30 41 -30 41 308 c 0,36,37
 41 658 41 658 431 658 c 2,38,-1
 550 658 l 1,39,-1
 550 747 l 2,40,41
 550 994 550 994 356 994 c 0,42,43
 298 994 298 994 233.5 971.5 c 128,-1,44
 169 949 169 949 104 913 c 1,45,-1
 104 1079 l 1,46,47
 255 1147 255 1147 376 1147 c 0,48,49
 557 1147 557 1147 628 1021 c 1,50,51
 696 1147 696 1147 882 1147 c 0,52,53
 1059 1147 1059 1147 1127 1029 c 0,54,55
 1201 913 1201 913 1201 605 c 2,56,-1
 1201 515 l 1,57,-1
 709 515 l 1,21,-1
EndSplineSet
EndChar

StartChar: oslash
Encoding: 248 248 161
Width: 1234
VWidth: 3393
Flags: W
HStem: -30 156<467.426 770.04> 991 156<463.937 769.338> 1195 20G<1065.41 1105.85>
VStem: 136 194<453.835 834.128> 903 194<286.567 719.883>
LayerCount: 2
Fore
SplineSet
414 220 m 1,0,1
 489 126 489 126 618 126 c 0,2,3
 903 126 903 126 903 560 c 0,4,5
 903 611 903 611 896.5 666.5 c 128,-1,6
 890 722 890 722 878 780 c 1,7,-1
 414 220 l 1,0,1
819 900 m 1,8,9
 747 991 747 991 618 991 c 0,10,11
 476 991 476 991 403 885.5 c 128,-1,12
 330 780 330 780 330 577 c 0,13,14
 330 529 330 529 335 470 c 128,-1,15
 340 411 340 411 356 340 c 1,16,-1
 819 900 l 1,8,9
217 181 m 1,17,18
 181 252 181 252 158.5 348 c 128,-1,19
 136 444 136 444 136 560 c 0,20,21
 136 848 136 848 259.5 997.5 c 128,-1,22
 383 1147 383 1147 618 1147 c 0,23,24
 819 1147 819 1147 936 1039 c 1,25,-1
 1082 1215 l 1,26,-1
 1175 1137 l 1,27,-1
 1011 940 l 1,28,29
 1097 800 1097 800 1097 560 c 0,30,31
 1097 272 1097 272 974.5 121 c 128,-1,32
 852 -30 852 -30 618 -30 c 0,33,34
 418 -30 418 -30 298 91 c 1,35,-1
 139 -94 l 1,36,-1
 48 -20 l 1,37,-1
 217 181 l 1,17,18
EndSplineSet
EndChar

StartChar: questiondown
Encoding: 191 191 162
Width: 1234
VWidth: 3393
Flags: W
HStem: -27 163<479.438 824.025> 1243 250<543 747>
VStem: 194 204<214.285 429.269> 547 192<866.36 948.331 948.331 1092 1243 1493>
LayerCount: 2
Fore
SplineSet
739 1092 m 1,0,-1
 739 940 l 2,1,2
 739 842 739 842 709 771 c 0,3,4
 676 699 676 699 593 621 c 2,5,-1
 505 534 l 2,6,7
 441 469 441 469 418 431 c 0,8,9
 398 386 398 386 398 336 c 0,10,11
 398 249 398 249 462 194 c 0,12,13
 529 136 529 136 635 136 c 0,14,15
 790 136 790 136 991 275 c 1,16,-1
 991 85 l 1,17,18
 804 -27 804 -27 600 -27 c 0,19,20
 411 -27 411 -27 302 68 c 0,21,22
 194 166 194 166 194 326 c 0,23,24
 194 404 194 404 227 469 c 0,25,26
 244 502 244 502 274.5 539.5 c 128,-1,27
 305 577 305 577 353 625 c 2,28,-1
 441 713 l 2,29,30
 479 744 479 744 499 770.5 c 128,-1,31
 519 797 519 797 529 819 c 256,32,33
 540 838 540 838 543.5 865.5 c 128,-1,34
 547 893 547 893 547 923 c 2,35,-1
 547 926 l 1,36,37
 550 943 550 943 550 971 c 2,38,-1
 550 1092 l 1,39,-1
 739 1092 l 1,0,-1
543 1243 m 1,40,-1
 543 1493 l 1,41,-1
 747 1493 l 1,42,-1
 747 1243 l 1,43,-1
 543 1243 l 1,40,-1
EndSplineSet
EndChar

StartChar: exclamdown
Encoding: 161 161 163
Width: 1234
VWidth: 3393
Flags: W
HStem: 0 21G<515 719> 1243 250<515 719>
VStem: 515 204<0 771.969 1243 1493>
LayerCount: 2
Fore
SplineSet
515 1493 m 1,0,-1
 719 1493 l 1,1,-1
 719 1243 l 1,2,-1
 515 1243 l 1,3,-1
 515 1493 l 1,0,-1
515 655 m 1,4,-1
 537 1014 l 1,5,-1
 699 1014 l 1,6,-1
 719 655 l 1,7,-1
 719 0 l 1,8,-1
 515 0 l 1,9,-1
 515 655 l 1,4,-1
EndSplineSet
EndChar

StartChar: logicalnot
Encoding: 172 172 164
Width: 1234
VWidth: 3393
Flags: W
HStem: 370 492<978 1147> 693 169<88 978>
VStem: 978 169<370 693>
LayerCount: 2
Fore
SplineSet
1147 862 m 1,0,-1
 1147 370 l 1,1,-1
 978 370 l 1,2,-1
 978 693 l 1,3,-1
 88 693 l 1,4,-1
 88 862 l 1,5,-1
 1147 862 l 1,0,-1
EndSplineSet
EndChar

StartChar: radical
Encoding: 8730 8730 165
Width: 1234
VWidth: 3393
Flags: W
LayerCount: 2
Fore
SplineSet
58 858 m 1,0,-1
 350 958 l 1,1,-1
 570 224 l 1,2,-1
 1039 1697 l 1,3,-1
 1185 1697 l 1,4,-1
 1185 1568 l 1,5,-1
 1137 1568 l 1,6,-1
 631 -41 l 1,7,-1
 505 -41 l 1,8,-1
 258 787 l 1,9,-1
 101 732 l 1,10,-1
 58 858 l 1,0,-1
EndSplineSet
EndChar

StartChar: florin
Encoding: 402 402 166
Width: 1234
VWidth: 3393
Flags: W
HStem: -428 146<30.8633 320.025> 706 142<305 557 761 1062> 1415 143<902.562 1181.93>
LayerCount: 2
Fore
SplineSet
1201 1357 m 1,0,1
 1127 1415 1127 1415 1039 1415 c 0,2,3
 838 1415 838 1415 804 1160 c 2,4,-1
 761 848 l 1,5,-1
 1062 848 l 1,6,-1
 1062 706 l 1,7,-1
 732 706 l 1,8,-1
 635 71 l 2,9,10
 590 -194 590 -194 492 -312 c 0,11,12
 386 -428 386 -428 204 -428 c 0,13,14
 88 -428 88 -428 0 -383 c 1,15,-1
 0 -220 l 1,16,17
 98 -282 98 -282 197 -282 c 0,18,19
 386 -282 386 -282 441 17 c 2,20,-1
 557 706 l 1,21,-1
 305 706 l 1,22,-1
 305 848 l 1,23,-1
 580 848 l 1,24,-1
 631 1181 l 2,25,26
 658 1354 658 1354 754 1457 c 0,27,28
 855 1558 855 1558 1001 1558 c 0,29,30
 1097 1558 1097 1558 1201 1521 c 1,31,-1
 1201 1357 l 1,0,1
EndSplineSet
EndChar

StartChar: approxequal
Encoding: 8776 8776 167
Width: 1234
VWidth: 3393
Flags: W
HStem: 305 167<672.543 1029.51> 431 166<237.737 462.554> 676 166<675.981 1031.67> 797 167<220.645 431.048 423.331 438.765 438.765 482 499 540.001>
LayerCount: 2
Fore
SplineSet
1147 787 m 1,0,1
 1001 676 1001 676 848 676 c 0,2,3
 757 676 757 676 645 726 c 0,4,5
 635 732 635 732 628 734 c 128,-1,6
 621 736 621 736 615 739 c 0,7,8
 573 757 573 757 541 768.5 c 128,-1,9
 509 780 509 780 482 787 c 0,10,11
 431 797 431 797 379 797 c 0,12,13
 230 797 230 797 88 676 c 1,14,-1
 88 848 l 1,15,16
 166 910 166 910 239 937 c 128,-1,17
 312 964 312 964 398 964 c 0,18,19
 447 964 447 964 499 953 c 0,20,21
 525 946 525 946 556 936 c 128,-1,22
 587 926 587 926 625 910 c 0,23,24
 631 906 631 906 638 904.5 c 128,-1,25
 645 903 645 903 655 896 c 0,26,27
 767 842 767 842 865 842 c 0,28,29
 1004 842 1004 842 1147 964 c 1,30,-1
 1147 787 l 1,0,1
1147 421 m 1,31,32
 998 305 998 305 848 305 c 0,33,34
 757 305 757 305 645 356 c 0,35,36
 618 370 618 370 615 370 c 1,37,38
 570 391 570 391 537.5 401 c 128,-1,39
 505 411 505 411 479 418 c 0,40,41
 437 431 437 431 379 431 c 0,42,43
 302 431 302 431 232 402 c 128,-1,44
 162 373 162 373 88 305 c 1,45,-1
 88 479 l 1,46,47
 166 543 166 543 239 570 c 128,-1,48
 312 597 312 597 398 597 c 0,49,50
 444 597 444 597 500.5 583.5 c 128,-1,51
 557 570 557 570 621 543 c 0,52,53
 628 540 628 540 636.5 537 c 128,-1,54
 645 534 645 534 655 525 c 0,55,56
 767 472 767 472 865 472 c 0,57,58
 998 472 998 472 1147 597 c 1,59,-1
 1147 421 l 1,31,32
EndSplineSet
EndChar

StartChar: Delta
Encoding: 8710 8710 168
Width: 1234
VWidth: 3393
Flags: W
HStem: 0 172<249 988>
LayerCount: 2
Fore
SplineSet
512 1425 m 1,0,-1
 722 1425 l 1,1,-1
 1243 0 l 1,2,-1
 -7 0 l 1,3,-1
 512 1425 l 1,0,-1
249 172 m 1,4,-1
 988 172 l 1,5,-1
 618 1221 l 1,6,-1
 249 172 l 1,4,-1
EndSplineSet
EndChar

StartChar: guillemotleft
Encoding: 171 171 169
Width: 1234
VWidth: 3393
Flags: W
HStem: 143 916<587 587 587 587>
VStem: 119 923<560 868 560 560>
LayerCount: 2
Fore
SplineSet
587 868 m 1,0,-1
 288 600 l 1,1,-1
 587 333 l 1,2,-1
 587 143 l 1,3,-1
 119 560 l 1,4,-1
 119 641 l 1,5,-1
 587 1059 l 1,6,-1
 587 868 l 1,0,-1
1042 868 m 1,7,-1
 744 600 l 1,8,-1
 1042 333 l 1,9,-1
 1042 143 l 1,10,-1
 573 560 l 1,11,-1
 573 641 l 1,12,-1
 1042 1059 l 1,13,-1
 1042 868 l 1,7,-1
EndSplineSet
EndChar

StartChar: guillemotright
Encoding: 187 187 170
Width: 1234
VWidth: 3393
Flags: W
HStem: 143 916<648 648 648 648>
VStem: 194 923<143 641 143 143>
LayerCount: 2
Fore
SplineSet
1117 641 m 1,0,-1
 1117 560 l 1,1,-1
 648 143 l 1,2,-1
 648 333 l 1,3,-1
 949 600 l 1,4,-1
 648 868 l 1,5,-1
 648 1059 l 1,6,-1
 1117 641 l 1,0,-1
661 641 m 1,7,-1
 661 560 l 1,8,-1
 194 143 l 1,9,-1
 194 333 l 1,10,-1
 495 600 l 1,11,-1
 194 868 l 1,12,-1
 194 1059 l 1,13,-1
 661 641 l 1,7,-1
EndSplineSet
EndChar

StartChar: ellipsis
Encoding: 8230 8230 171
Width: 1234
VWidth: 3393
Flags: W
HStem: 0 305<81 333 489 744 900 1153>
VStem: 81 252<0 305> 489 255<0 305> 900 253<0 305>
LayerCount: 2
Fore
SplineSet
333 305 m 1,0,-1
 333 0 l 1,1,-1
 81 0 l 1,2,-1
 81 305 l 1,3,-1
 333 305 l 1,0,-1
1153 305 m 1,4,-1
 1153 0 l 1,5,-1
 900 0 l 1,6,-1
 900 305 l 1,7,-1
 1153 305 l 1,4,-1
744 305 m 1,8,-1
 744 0 l 1,9,-1
 489 0 l 1,10,-1
 489 305 l 1,11,-1
 744 305 l 1,8,-1
EndSplineSet
EndChar

StartChar: OE
Encoding: 338 338 176
Width: 1234
VWidth: 3393
Flags: W
HStem: 0 169<415.172 651 848 1218> 713 169<848 1178> 1324 169<415.172 651 848 1208>
VStem: 71 204<342.757 1154.3> 651 197<169 713 882 1324>
LayerCount: 2
Fore
SplineSet
1218 0 m 1,0,-1
 615 0 l 2,1,2
 315 0 315 0 194 166 c 0,3,4
 71 336 71 336 71 747 c 0,5,6
 71 1163 71 1163 194 1327 c 0,7,8
 315 1493 315 1493 615 1493 c 2,9,-1
 1208 1493 l 1,10,-1
 1208 1324 l 1,11,-1
 848 1324 l 1,12,-1
 848 882 l 1,13,-1
 1178 882 l 1,14,-1
 1178 713 l 1,15,-1
 848 713 l 1,16,-1
 848 169 l 1,17,-1
 1218 169 l 1,18,-1
 1218 0 l 1,0,-1
590 1324 m 1,19,20
 414 1324 414 1324 343 1208 c 0,21,22
 275 1092 275 1092 275 747 c 256,23,24
 275 401 275 401 343 285 c 0,25,26
 414 169 414 169 590 169 c 2,27,-1
 651 169 l 1,28,-1
 651 1324 l 1,29,-1
 590 1324 l 1,19,20
EndSplineSet
EndChar

StartChar: oe
Encoding: 339 339 177
Width: 1234
VWidth: 3393
Flags: W
HStem: -30 153<260.443 487.57 793.44 1065.09> 515 143<719 1049> 998 149<259.782 488.388 772.552 985.947>
VStem: 13 178<204.416 915.381> 557 162<209.786 515 658 907.108> 1049 162<658 931.837>
LayerCount: 2
Fore
SplineSet
1049 716 m 2,0,1
 1049 998 1049 998 882 998 c 0,2,3
 794 998 794 998 756.5 930 c 128,-1,4
 719 862 719 862 719 703 c 2,5,-1
 719 658 l 1,6,-1
 1049 658 l 1,7,-1
 1049 716 l 2,0,1
373 123 m 0,8,9
 476 123 476 123 515 207 c 0,10,11
 557 295 557 295 557 529 c 0,12,13
 557 819 557 819 519 910 c 0,14,15
 479 998 479 998 373 998 c 0,16,17
 275 998 275 998 230 913 c 0,18,19
 191 832 191 832 191 560 c 256,20,21
 191 288 191 288 230 207 c 0,22,23
 275 123 275 123 373 123 c 0,8,9
719 515 m 1,24,-1
 719 431 l 2,25,26
 719 268 719 268 769 195.5 c 128,-1,27
 819 123 819 123 930 123 c 0,28,29
 1092 123 1092 123 1188 227 c 1,30,-1
 1188 55 l 1,31,32
 1130 10 1130 10 1068.5 -10 c 128,-1,33
 1007 -30 1007 -30 930 -30 c 0,34,35
 736 -30 736 -30 638 104 c 1,36,37
 537 -30 537 -30 373 -30 c 0,38,39
 187 -30 187 -30 98 109 c 0,40,41
 13 244 13 244 13 560 c 256,42,43
 13 875 13 875 98 1011 c 256,44,45
 184 1147 184 1147 373 1147 c 0,46,47
 547 1147 547 1147 638 1021 c 1,48,49
 713 1147 713 1147 893 1147 c 256,50,51
 1072 1147 1072 1147 1140 1029 c 0,52,53
 1211 913 1211 913 1211 605 c 2,54,-1
 1211 515 l 1,55,-1
 719 515 l 1,24,-1
EndSplineSet
EndChar

StartChar: endash
Encoding: 8211 8211 178
Width: 1234
VWidth: 3393
Flags: W
HStem: 492 143<0 1234>
LayerCount: 2
Fore
SplineSet
1234 635 m 1,0,-1
 1234 492 l 1,1,-1
 0 492 l 1,2,-1
 0 635 l 1,3,-1
 1234 635 l 1,0,-1
EndSplineSet
EndChar

StartChar: emdash
Encoding: 8212 8212 179
Width: 1234
VWidth: 3393
Flags: W
HStem: 492 143<0 1234>
LayerCount: 2
Fore
SplineSet
1234 635 m 1,0,-1
 1234 492 l 1,1,-1
 0 492 l 1,2,-1
 0 635 l 1,3,-1
 1234 635 l 1,0,-1
EndSplineSet
EndChar

StartChar: quotedblleft
Encoding: 8220 8220 180
Width: 1234
VWidth: 3393
Flags: W
HStem: 968 590<411 466 868 926>
VStem: 210 256<968 1175> 673 253<968 1175>
LayerCount: 2
Fore
SplineSet
673 968 m 1,0,-1
 673 1175 l 1,1,-1
 868 1558 l 1,2,-1
 1021 1558 l 1,3,-1
 926 1175 l 1,4,-1
 926 968 l 1,5,-1
 673 968 l 1,0,-1
210 968 m 1,6,-1
 210 1175 l 1,7,-1
 411 1558 l 1,8,-1
 563 1558 l 1,9,-1
 466 1175 l 1,10,-1
 466 968 l 1,11,-1
 210 968 l 1,6,-1
EndSplineSet
EndChar

StartChar: quotedblright
Encoding: 8221 8221 181
Width: 1234
VWidth: 3393
Flags: W
HStem: 968 590<308 366 771 825>
VStem: 308 252<1350 1558> 771 250<1350 1558>
LayerCount: 2
Fore
SplineSet
1021 1558 m 1,0,-1
 1021 1350 l 1,1,-1
 825 968 l 1,2,-1
 673 968 l 1,3,-1
 771 1350 l 1,4,-1
 771 1558 l 1,5,-1
 1021 1558 l 1,0,-1
560 1558 m 1,6,-1
 560 1350 l 1,7,-1
 366 968 l 1,8,-1
 210 968 l 1,9,-1
 308 1350 l 1,10,-1
 308 1558 l 1,11,-1
 560 1558 l 1,6,-1
EndSplineSet
EndChar

StartChar: quoteleft
Encoding: 8216 8216 182
Width: 1234
VWidth: 3393
Flags: W
HStem: 968 590<658 716>
VStem: 466 250<968 1175>
LayerCount: 2
Fore
SplineSet
466 968 m 1,0,-1
 466 1175 l 1,1,-1
 658 1558 l 1,2,-1
 815 1558 l 1,3,-1
 716 1175 l 1,4,-1
 716 968 l 1,5,-1
 466 968 l 1,0,-1
EndSplineSet
EndChar

StartChar: quoteright
Encoding: 8217 8217 183
Width: 1234
VWidth: 3393
Flags: W
HStem: 968 590<560 618>
VStem: 560 255<1350 1558>
LayerCount: 2
Fore
SplineSet
815 1558 m 1,0,-1
 815 1350 l 1,1,-1
 618 968 l 1,2,-1
 466 968 l 1,3,-1
 560 1350 l 1,4,-1
 560 1558 l 1,5,-1
 815 1558 l 1,0,-1
EndSplineSet
EndChar

StartChar: divide
Encoding: 247 247 184
Width: 1234
VWidth: 3393
Flags: W
HStem: 149 249<495 739> 557 169<88 1147> 890 247<495 739>
VStem: 495 244<149 398 890 1137>
LayerCount: 2
Fore
SplineSet
739 398 m 1,0,-1
 739 149 l 1,1,-1
 495 149 l 1,2,-1
 495 398 l 1,3,-1
 739 398 l 1,0,-1
739 1137 m 1,4,-1
 739 890 l 1,5,-1
 495 890 l 1,6,-1
 495 1137 l 1,7,-1
 739 1137 l 1,4,-1
1147 726 m 1,8,-1
 1147 557 l 1,9,-1
 88 557 l 1,10,-1
 88 726 l 1,11,-1
 1147 726 l 1,8,-1
EndSplineSet
EndChar

StartChar: lozenge
Encoding: 9674 9674 185
Width: 1234
VWidth: 3393
Flags: W
VStem: 119 998<593 593 593 593>
LayerCount: 2
Fore
SplineSet
230 593 m 1,0,-1
 618 -234 l 1,1,-1
 1001 593 l 1,2,-1
 618 1412 l 1,3,-1
 230 593 l 1,0,-1
1117 593 m 1,4,-1
 618 -479 l 1,5,-1
 119 593 l 1,6,-1
 618 1655 l 1,7,-1
 1117 593 l 1,4,-1
EndSplineSet
EndChar

StartChar: fraction
Encoding: 8725 8725 188
Width: 1234
VWidth: 3393
Flags: W
HStem: 1473 20G<906.653 1107>
VStem: 129 978<-191 1493 -191 -191>
LayerCount: 2
Fore
SplineSet
1107 1493 m 1,0,-1
 320 -191 l 1,1,-1
 129 -191 l 1,2,-1
 916 1493 l 1,3,-1
 1107 1493 l 1,0,-1
EndSplineSet
EndChar

StartChar: currency
Encoding: 164 164 189
Width: 1234
VWidth: 3393
Flags: W
HStem: 302 126<519.846 788.51> 858 126<524.291 784.289>
VStem: 312 125<510.889 771.19> 868 126<508.914 774.743>
LayerCount: 2
Fore
SplineSet
868 645 m 256,0,1
 868 732 868 732 807 794 c 0,2,3
 744 858 744 858 655 858 c 256,4,5
 567 858 567 858 502 794 c 0,6,7
 437 732 437 732 437 645 c 0,8,9
 437 550 437 550 502 489 c 0,10,11
 563 428 563 428 655 428 c 256,12,13
 747 428 747 428 807 489 c 0,14,15
 868 557 868 557 868 645 c 256,0,1
1011 1092 m 1,16,-1
 1104 998 l 1,17,-1
 936 832 l 1,18,19
 994 732 994 732 994 641 c 0,20,21
 994 547 994 547 933 454 c 1,22,-1
 1104 288 l 1,23,-1
 1007 197 l 1,24,-1
 842 363 l 1,25,26
 751 302 751 302 655 302 c 256,27,28
 560 302 560 302 462 360 c 1,29,-1
 298 197 l 1,30,-1
 204 285 l 1,31,-1
 370 451 l 1,32,33
 312 547 312 547 312 641 c 0,34,35
 312 739 312 739 373 832 c 1,36,-1
 204 998 l 1,37,-1
 298 1092 l 1,38,-1
 466 923 l 1,39,40
 557 984 557 984 655 984 c 0,41,42
 739 984 739 984 845 926 c 1,43,-1
 1011 1092 l 1,16,-1
EndSplineSet
EndChar

StartChar: guilsinglleft
Encoding: 8249 8249 190
Width: 1234
VWidth: 3393
Flags: W
HStem: 143 916<815 815 815 815>
VStem: 346 469<560 868 560 560>
LayerCount: 2
Fore
SplineSet
815 868 m 1,0,-1
 515 600 l 1,1,-1
 815 333 l 1,2,-1
 815 143 l 1,3,-1
 346 560 l 1,4,-1
 346 641 l 1,5,-1
 815 1059 l 1,6,-1
 815 868 l 1,0,-1
EndSplineSet
EndChar

StartChar: guilsinglright
Encoding: 8250 8250 191
Width: 1234
VWidth: 3393
Flags: W
HStem: 143 916<421 421 421 421>
VStem: 421 469<143 641 143 143>
LayerCount: 2
Fore
SplineSet
890 641 m 1,0,-1
 890 560 l 1,1,-1
 421 143 l 1,2,-1
 421 333 l 1,3,-1
 722 600 l 1,4,-1
 421 868 l 1,5,-1
 421 1059 l 1,6,-1
 890 641 l 1,0,-1
EndSplineSet
EndChar

StartChar: fi
Encoding: 64257 64257 192
Width: 1234
VWidth: 3393
Flags: W
HStem: 0 21G<237 421 896 1079> 978 142<33 237 421 896> 1324 230<896 1079> 1405 153<458.326 777>
VStem: 237 184<0 978 1120 1362.64> 896 183<0 978 1324 1554>
LayerCount: 2
Fore
SplineSet
1079 1554 m 1,0,-1
 1079 1324 l 1,1,-1
 896 1324 l 1,2,-1
 896 1554 l 1,3,-1
 1079 1554 l 1,0,-1
777 1405 m 1,4,-1
 597 1405 l 2,5,6
 499 1405 499 1405 457 1364 c 0,7,8
 421 1321 421 1321 421 1221 c 2,9,-1
 421 1120 l 1,10,-1
 1079 1120 l 1,11,-1
 1079 0 l 1,12,-1
 896 0 l 1,13,-1
 896 978 l 1,14,-1
 421 978 l 1,15,-1
 421 0 l 1,16,-1
 237 0 l 1,17,-1
 237 978 l 1,18,-1
 33 978 l 1,19,-1
 33 1120 l 1,20,-1
 237 1120 l 1,21,-1
 237 1198 l 2,22,23
 237 1385 237 1385 320.5 1471.5 c 128,-1,24
 404 1558 404 1558 583 1558 c 2,25,-1
 777 1558 l 1,26,-1
 777 1405 l 1,4,-1
EndSplineSet
LCarets2: 1 0 
Ligature2: "'liga' Standard Ligatures in Latin lookup 19 subtable" f i
EndChar

StartChar: fl
Encoding: 64258 64258 193
Width: 1234
VWidth: 3393
Flags: W
HStem: 0 21G<237 421 896 1079> 978 142<33 237 421 713> 1405 153<458.326 896>
VStem: 237 184<0 978 1120 1362.64> 896 183<0 1405>
LayerCount: 2
Fore
SplineSet
1079 0 m 1,0,-1
 896 0 l 1,1,-1
 896 1405 l 1,2,-1
 597 1405 l 2,3,4
 499 1405 499 1405 457 1364 c 0,5,6
 421 1321 421 1321 421 1221 c 2,7,-1
 421 1120 l 1,8,-1
 713 1120 l 1,9,-1
 713 978 l 1,10,-1
 421 978 l 1,11,-1
 421 0 l 1,12,-1
 237 0 l 1,13,-1
 237 978 l 1,14,-1
 33 978 l 1,15,-1
 33 1120 l 1,16,-1
 237 1120 l 1,17,-1
 237 1198 l 2,18,19
 237 1385 237 1385 320.5 1471.5 c 128,-1,20
 404 1558 404 1558 583 1558 c 2,21,-1
 1079 1558 l 1,22,-1
 1079 0 l 1,0,-1
EndSplineSet
Ligature2: "'liga' Standard Ligatures in Latin lookup 19 subtable" f l
EndChar

StartChar: daggerdbl
Encoding: 8225 8225 194
Width: 1234
VWidth: 3393
Flags: W
HStem: 224 152<162 529 706 1072> 920 155<162 529 706 1072> 1473 20G<529 706>
VStem: 529 177<-197 224 376 920 1075 1493>
LayerCount: 2
Fore
SplineSet
706 224 m 1,0,-1
 706 -197 l 1,1,-1
 529 -197 l 1,2,-1
 529 224 l 1,3,-1
 162 224 l 1,4,-1
 162 376 l 1,5,-1
 529 376 l 1,6,-1
 529 920 l 1,7,-1
 162 920 l 1,8,-1
 162 1075 l 1,9,-1
 529 1075 l 1,10,-1
 529 1493 l 1,11,-1
 706 1493 l 1,12,-1
 706 1075 l 1,13,-1
 1072 1075 l 1,14,-1
 1072 920 l 1,15,-1
 706 920 l 1,16,-1
 706 376 l 1,17,-1
 1072 376 l 1,18,-1
 1072 224 l 1,19,-1
 706 224 l 1,0,-1
EndSplineSet
EndChar

StartChar: periodcentered
Encoding: 183 183 195
Width: 1234
VWidth: 3393
Flags: W
HStem: 560 305<489 744>
VStem: 489 255<560 865>
LayerCount: 2
Fore
SplineSet
744 865 m 1,0,-1
 744 560 l 1,1,-1
 489 560 l 1,2,-1
 489 865 l 1,3,-1
 744 865 l 1,0,-1
EndSplineSet
EndChar

StartChar: quotesinglbase
Encoding: 8218 8218 196
Width: 1234
VWidth: 3393
Flags: W
HStem: -288 590<502 557>
VStem: 502 252<94 302>
LayerCount: 2
Fore
SplineSet
754 302 m 1,0,-1
 754 94 l 1,1,-1
 557 -288 l 1,2,-1
 404 -288 l 1,3,-1
 502 94 l 1,4,-1
 502 302 l 1,5,-1
 754 302 l 1,0,-1
EndSplineSet
EndChar

StartChar: quotedblbase
Encoding: 8222 8222 197
Width: 1234
VWidth: 3393
Flags: W
HStem: -288 590<308 366 771 825>
VStem: 308 252<94 302> 771 250<94 302>
LayerCount: 2
Fore
SplineSet
1021 302 m 1,0,-1
 1021 94 l 1,1,-1
 825 -288 l 1,2,-1
 673 -288 l 1,3,-1
 771 94 l 1,4,-1
 771 302 l 1,5,-1
 1021 302 l 1,0,-1
560 302 m 1,6,-1
 560 94 l 1,7,-1
 366 -288 l 1,8,-1
 210 -288 l 1,9,-1
 308 94 l 1,10,-1
 308 302 l 1,11,-1
 560 302 l 1,6,-1
EndSplineSet
EndChar

StartChar: perthousand
Encoding: 8240 8240 198
Width: 1234
VWidth: 3393
Flags: W
HStem: 0 123<216.601 445.117 830.664 1062.59> 454 123<215.764 440.15 829.848 1059.12> 858 123<172.985 399.99> 1314 118<176.096 396.687>
VStem: 0 123<1031.73 1261> 45 121<172.985 404.115> 454 119<1035.79 1256.85> 495 123<173.305 399.99> 658 122<173.734 403.366> 1114 120<174.381 399.228>
LayerCount: 2
Fore
SplineSet
33 664 m 1,0,-1
 1079 1079 l 1,1,-1
 1120 984 l 1,2,-1
 71 567 l 1,3,-1
 33 664 l 1,0,-1
166 288 m 256,4,5
 166 224 166 224 214 169 c 0,6,7
 258 123 258 123 330 123 c 256,8,9
 401 123 401 123 447 169 c 256,10,11
 495 217 495 217 495 288 c 0,12,13
 495 356 495 356 447 404 c 0,14,15
 398 454 398 454 330 454 c 0,16,17
 258 454 258 454 214 408 c 0,18,19
 166 353 166 353 166 288 c 256,4,5
45 288 m 0,20,21
 45 411 45 411 126 492 c 0,22,23
 217 577 217 577 330 577 c 0,24,25
 447 577 447 577 534 492 c 256,26,27
 618 408 618 408 618 288 c 256,28,29
 618 169 618 169 534 85 c 0,30,31
 451 0 451 0 330 0 c 0,32,33
 214 0 214 0 126 81 c 0,34,35
 45 169 45 169 45 288 c 0,20,21
123 1147 m 256,36,37
 123 1075 123 1075 169 1029 c 0,38,39
 224 981 224 981 288 981 c 0,40,41
 356 981 356 981 404 1029 c 0,42,43
 454 1079 454 1079 454 1147 c 0,44,45
 454 1211 454 1211 404 1263 c 256,46,47
 353 1314 353 1314 288 1314 c 0,48,49
 220 1314 220 1314 169 1263 c 0,50,51
 123 1218 123 1218 123 1147 c 256,36,37
0 1147 m 256,52,53
 0 1266 0 1266 81 1350 c 0,54,55
 169 1432 169 1432 288 1432 c 256,56,57
 408 1432 408 1432 492 1350 c 0,58,59
 573 1266 573 1266 573 1147 c 256,60,61
 573 1029 573 1029 492 940 c 0,62,63
 408 858 408 858 288 858 c 256,64,65
 169 858 169 858 81 940 c 0,66,67
 0 1029 0 1029 0 1147 c 256,52,53
780 288 m 256,68,69
 780 224 780 224 828 169 c 0,70,71
 875 123 875 123 946 123 c 256,72,73
 1017 123 1017 123 1065 169 c 0,74,75
 1114 224 1114 224 1114 288 c 0,76,77
 1114 356 1114 356 1065 404 c 0,78,79
 1014 454 1014 454 946 454 c 0,80,81
 875 454 875 454 828 408 c 0,82,83
 780 353 780 353 780 288 c 256,68,69
658 288 m 0,84,85
 658 408 658 408 744 492 c 256,86,87
 828 577 828 577 946 577 c 256,88,89
 1065 577 1065 577 1150 492 c 256,90,91
 1234 408 1234 408 1234 288 c 256,92,93
 1234 169 1234 169 1150 85 c 0,94,95
 1069 0 1069 0 946 0 c 256,96,97
 825 0 825 0 744 81 c 0,98,99
 658 172 658 172 658 288 c 0,84,85
EndSplineSet
EndChar

StartChar: dotlessi
Encoding: 305 305 214
Width: 1234
VWidth: 3393
Flags: W
HStem: 0 143<181 543 726 1092 181 1092 181 181> 978 142<258 543>
VStem: 543 183<143 978>
LayerCount: 2
Fore
SplineSet
726 1120 m 1,0,-1
 726 143 l 1,1,-1
 1092 143 l 1,2,-1
 1092 0 l 1,3,-1
 181 0 l 1,4,-1
 181 143 l 1,5,-1
 543 143 l 1,6,-1
 543 978 l 1,7,-1
 258 978 l 1,8,-1
 258 1120 l 1,9,-1
 726 1120 l 1,0,-1
EndSplineSet
EndChar

StartChar: circumflex
Encoding: 710 710 215
Width: 1234
VWidth: 3393
Flags: W
HStem: 1263 376<693 936 693 693>
VStem: 298 638<1263 1263 1263 1263>
LayerCount: 2
Fore
SplineSet
693 1639 m 1,0,-1
 936 1263 l 1,1,-1
 797 1263 l 1,2,-1
 618 1510 l 1,3,-1
 437 1263 l 1,4,-1
 298 1263 l 1,5,-1
 543 1639 l 1,6,-1
 693 1639 l 1,0,-1
EndSplineSet
EndChar

StartChar: tilde
Encoding: 732 732 216
Width: 1234
VWidth: 3393
Flags: W
HStem: 1311 127<676.63 804.661> 1466 126<430.541 558.17>
VStem: 288 123<1311 1454.87> 822 124<1509.14 1592>
LayerCount: 2
Fore
SplineSet
557 1425 m 2,0,1
 512 1466 512 1466 489 1466 c 0,2,3
 414 1466 414 1466 411 1311 c 1,4,-1
 288 1311 l 1,5,6
 288 1445 288 1445 339.5 1518.5 c 128,-1,7
 391 1592 391 1592 482 1592 c 0,8,9
 557 1592 557 1592 621 1531 c 2,10,-1
 679 1476 l 2,11,12
 716 1438 716 1438 747 1438 c 0,13,14
 784 1438 784 1438 803 1474 c 128,-1,15
 822 1510 822 1510 822 1592 c 1,16,-1
 946 1592 l 1,17,18
 946 1460 946 1460 895.5 1385.5 c 128,-1,19
 845 1311 845 1311 754 1311 c 0,20,21
 679 1311 679 1311 615 1370 c 2,22,-1
 557 1425 l 2,0,1
EndSplineSet
EndChar

StartChar: macron
Encoding: 175 175 217
Width: 1234
VWidth: 3393
Flags: W
HStem: 1382 146<320 916 320 916 320 320>
LayerCount: 2
Fore
SplineSet
916 1528 m 1,0,-1
 916 1382 l 1,1,-1
 320 1382 l 1,2,-1
 320 1528 l 1,3,-1
 916 1528 l 1,0,-1
EndSplineSet
EndChar

StartChar: breve
Encoding: 728 728 218
Width: 1234
VWidth: 3393
Flags: W
HStem: 1324 136<475.45 755.813>
VStem: 302 119<1488.95 1597.36> 810 120<1505.1 1609>
LayerCount: 2
Fore
SplineSet
421 1609 m 1,0,1
 447 1460 447 1460 618 1460 c 0,2,3
 784 1460 784 1460 810 1609 c 1,4,-1
 930 1609 l 1,5,6
 910 1324 910 1324 618 1324 c 0,7,8
 330 1324 330 1324 302 1609 c 1,9,-1
 421 1609 l 1,0,1
EndSplineSet
EndChar

StartChar: dotaccent
Encoding: 729 729 219
Width: 1234
VWidth: 3393
Flags: W
HStem: 1350 204<515 719>
VStem: 515 204<1350 1554>
LayerCount: 2
Fore
SplineSet
719 1554 m 1,0,-1
 719 1350 l 1,1,-1
 515 1350 l 1,2,-1
 515 1554 l 1,3,-1
 719 1554 l 1,0,-1
EndSplineSet
EndChar

StartChar: ring
Encoding: 730 730 220
Width: 1234
VWidth: 3393
Flags: W
HStem: 1249 125<508.984 724.825> 1677 121<509.733 725.321>
VStem: 343 123<1414.75 1631.62> 771 122<1420.08 1631.05>
LayerCount: 2
Fore
SplineSet
893 1528 m 0,0,1
 893 1412 893 1412 810 1331 c 0,2,3
 736 1249 736 1249 618 1249 c 0,4,5
 502 1249 502 1249 421 1331 c 0,6,7
 343 1415 343 1415 343 1528 c 0,8,9
 343 1635 343 1635 421 1720 c 0,10,11
 505 1798 505 1798 618 1798 c 0,12,13
 732 1798 732 1798 810 1720 c 0,14,15
 893 1639 893 1639 893 1528 c 0,0,1
771 1528 m 0,16,17
 771 1587 771 1587 726 1632 c 256,18,19
 683 1677 683 1677 618 1677 c 0,20,21
 550 1677 550 1677 509 1632 c 0,22,23
 466 1592 466 1592 466 1528 c 0,24,25
 466 1460 466 1460 509 1415 c 0,26,27
 550 1374 550 1374 618 1374 c 0,28,29
 683 1374 683 1374 726 1418 c 256,30,31
 771 1463 771 1463 771 1528 c 0,16,17
EndSplineSet
EndChar

StartChar: cedilla
Encoding: 184 184 221
Width: 1234
VWidth: 3393
Flags: W
HStem: -398 126<477.829 660.011> -398 398<583 703>
VStem: 398 412<-336.502 -240 -370 -214 -370 -370> 673 137<-257.62 -81.9122>
LayerCount: 2
Fore
SplineSet
703 0 m 1,0,1
 810 -119 810 -119 810 -214 c 0,2,3
 810 -398 810 -398 570 -398 c 0,4,5
 489 -398 489 -398 398 -370 c 1,6,-1
 398 -240 l 1,7,8
 431 -258 431 -258 468 -265 c 128,-1,9
 505 -272 505 -272 553 -272 c 0,10,11
 673 -272 673 -272 673 -181 c 0,12,13
 673 -126 673 -126 583 0 c 1,14,-1
 703 0 l 1,0,1
EndSplineSet
EndChar

StartChar: hungarumlaut
Encoding: 733 733 222
Width: 1234
VWidth: 3393
Flags: W
HStem: 1263 376<482 706 706 706>
LayerCount: 2
Fore
SplineSet
706 1639 m 1,0,-1
 482 1263 l 1,1,-1
 343 1263 l 1,2,-1
 537 1639 l 1,3,-1
 706 1639 l 1,0,-1
1049 1639 m 1,4,-1
 800 1263 l 1,5,-1
 664 1263 l 1,6,-1
 868 1639 l 1,7,-1
 1049 1639 l 1,4,-1
EndSplineSet
EndChar

StartChar: ogonek
Encoding: 731 731 223
Width: 1234
VWidth: 3393
Flags: W
HStem: -398 126<570.508 756.47> -20 20G<475 648>
VStem: 421 139<-258.686 -83.3514>
LayerCount: 2
Fore
SplineSet
648 0 m 1,0,1
 560 -119 560 -119 560 -181 c 0,2,3
 560 -272 560 -272 668 -272 c 0,4,5
 732 -272 732 -272 794 -240 c 1,6,-1
 794 -376 l 1,7,8
 757 -383 757 -383 723 -390.5 c 128,-1,9
 689 -398 689 -398 658 -398 c 0,10,11
 421 -398 421 -398 421 -214 c 0,12,13
 421 -119 421 -119 529 0 c 1,14,-1
 648 0 l 1,0,1
EndSplineSet
EndChar

StartChar: caron
Encoding: 711 711 224
Width: 1234
VWidth: 3393
Flags: W
HStem: 1263 376<298 693 298 298>
VStem: 298 638<1639 1639 1639 1639>
LayerCount: 2
Fore
SplineSet
298 1639 m 1,0,-1
 437 1639 l 1,1,-1
 618 1395 l 1,2,-1
 797 1639 l 1,3,-1
 936 1639 l 1,4,-1
 693 1263 l 1,5,-1
 543 1263 l 1,6,-1
 298 1639 l 1,0,-1
EndSplineSet
EndChar

StartChar: Lslash
Encoding: 321 321 225
Width: 1234
VWidth: 3393
Flags: W
HStem: 0 169<418 1140> 1473 20G<214 418>
VStem: 214 204<169 570 878 1493>
LayerCount: 2
Fore
SplineSet
418 1493 m 1,0,-1
 418 878 l 1,1,-1
 732 1097 l 1,2,-1
 810 988 l 1,3,-1
 418 713 l 1,4,-1
 418 169 l 1,5,-1
 1140 169 l 1,6,-1
 1140 0 l 1,7,-1
 214 0 l 1,8,-1
 214 570 l 1,9,-1
 71 466 l 1,10,-1
 -10 577 l 1,11,-1
 214 732 l 1,12,-1
 214 1493 l 1,13,-1
 418 1493 l 1,0,-1
EndSplineSet
EndChar

StartChar: lslash
Encoding: 322 322 226
Width: 1234
VWidth: 3393
Flags: W
HStem: 0 156<704.15 1036> 1188 20G<924.244 968.37> 1425 143<159 454>
VStem: 454 187<223.872 699 991 1425>
LayerCount: 2
Fore
SplineSet
641 408 m 1,0,1
 641 156 641 156 822 156 c 2,2,-1
 1036 156 l 1,3,-1
 1036 0 l 1,4,-1
 800 0 l 2,5,6
 635 0 635 0 544.5 105 c 128,-1,7
 454 210 454 210 454 408 c 2,8,-1
 454 699 l 1,9,-1
 156 489 l 1,10,-1
 75 600 l 1,11,-1
 454 865 l 1,12,-1
 454 1425 l 1,13,-1
 159 1425 l 1,14,-1
 159 1568 l 1,15,-1
 641 1568 l 1,16,-1
 641 991 l 1,17,-1
 953 1208 l 1,18,-1
 1036 1100 l 1,19,-1
 641 825 l 1,20,-1
 641 408 l 1,0,1
EndSplineSet
EndChar

StartChar: brokenbar
Encoding: 166 166 231
Width: 1234
VWidth: 3393
Flags: W
VStem: 529 174<-350 408 676 1432>
LayerCount: 2
Fore
SplineSet
703 676 m 1,0,-1
 529 676 l 1,1,-1
 529 1432 l 1,2,-1
 703 1432 l 1,3,-1
 703 676 l 1,0,-1
703 -350 m 1,4,-1
 529 -350 l 1,5,-1
 529 408 l 1,6,-1
 703 408 l 1,7,-1
 703 -350 l 1,4,-1
EndSplineSet
EndChar

StartChar: Eth
Encoding: 208 208 232
Width: 1234
VWidth: 3393
Flags: W
HStem: 0 166<340 684.038> 709 149<7 133 340 605> 1327 166<340 685.815>
VStem: 133 207<166 709 858 1327> 893 211<404.336 1093.43>
LayerCount: 2
Fore
SplineSet
437 1493 m 1,0,1
 780 1493 780 1493 942 1313 c 128,-1,2
 1104 1133 1104 1133 1104 747 c 0,3,4
 1104 363 1104 363 940 181 c 0,5,6
 777 0 777 0 437 0 c 2,7,-1
 133 0 l 1,8,-1
 133 709 l 1,9,-1
 7 709 l 1,10,-1
 7 858 l 1,11,-1
 133 858 l 1,12,-1
 133 1493 l 1,13,-1
 437 1493 l 1,0,1
437 166 m 1,14,15
 693 166 693 166 794 292 c 0,16,17
 893 421 893 421 893 747 c 0,18,19
 893 1075 893 1075 794 1201 c 0,20,21
 693 1327 693 1327 437 1327 c 2,22,-1
 340 1327 l 1,23,-1
 340 858 l 1,24,-1
 605 858 l 1,25,-1
 605 709 l 1,26,-1
 340 709 l 1,27,-1
 340 166 l 1,28,-1
 437 166 l 1,14,15
EndSplineSet
EndChar

StartChar: eth
Encoding: 240 240 233
Width: 1234
VWidth: 3393
Flags: W
HStem: -30 156<467.247 769.25> 943 154<470.188 695.469> 1486 20G<874.085 942.531> 1538 20G<298 536.26>
VStem: 136 197<285.583 783.507> 903 194<283.84 768.159>
LayerCount: 2
Fore
SplineSet
719 1327 m 1,0,1
 910 1123 910 1123 1004 926 c 0,2,3
 1097 732 1097 732 1097 537 c 0,4,5
 1097 265 1097 265 971 119 c 0,6,7
 848 -30 848 -30 618 -30 c 0,8,9
 391 -30 391 -30 262 119 c 0,10,11
 136 272 136 272 136 537 c 0,12,13
 136 794 136 794 262 949 c 0,14,15
 386 1097 386 1097 615 1097 c 0,16,17
 648 1097 648 1097 663.5 1097 c 128,-1,18
 679 1097 679 1097 696 1092 c 1,19,20
 661 1140 661 1140 625.5 1182.5 c 128,-1,21
 590 1225 590 1225 553 1273 c 1,22,-1
 275 1181 l 1,23,-1
 244 1276 l 1,24,-1
 482 1357 l 1,25,-1
 298 1558 l 1,26,-1
 519 1558 l 1,27,-1
 645 1412 l 1,28,-1
 936 1506 l 1,29,-1
 968 1408 l 1,30,-1
 719 1327 l 1,0,1
794 920 m 1,31,32
 726 943 726 943 631 943 c 0,33,34
 486 943 486 943 409.5 839.5 c 128,-1,35
 333 736 333 736 333 537 c 0,36,37
 333 340 333 340 406 233 c 128,-1,38
 479 126 479 126 618 126 c 256,39,40
 757 126 757 126 830 233 c 128,-1,41
 903 340 903 340 903 537 c 0,42,43
 903 645 903 645 872 747 c 0,44,45
 848 845 848 845 794 920 c 1,31,32
EndSplineSet
EndChar

StartChar: Thorn
Encoding: 222 222 236
Width: 1234
VWidth: 3393
Flags: W
HStem: 0 21G<200 404> 366 168<404 841.63> 1059 166<404 841.63> 1473 20G<200 404>
VStem: 200 204<0 366 534 1059 1225 1493> 953 215<638.561 955.783>
LayerCount: 2
Fore
SplineSet
404 534 m 1,0,-1
 638 534 l 2,1,2
 953 534 953 534 953 797 c 0,3,4
 953 1059 953 1059 638 1059 c 2,5,-1
 404 1059 l 1,6,-1
 404 534 l 1,0,-1
404 1493 m 1,7,-1
 404 1225 l 1,8,-1
 658 1225 l 2,9,10
 920 1225 920 1225 1044 1119.5 c 128,-1,11
 1168 1014 1168 1014 1168 797 c 0,12,13
 1168 573 1168 573 1044 469.5 c 128,-1,14
 920 366 920 366 658 366 c 2,15,-1
 404 366 l 1,16,-1
 404 0 l 1,17,-1
 200 0 l 1,18,-1
 200 1493 l 1,19,-1
 404 1493 l 1,7,-1
EndSplineSet
EndChar

StartChar: thorn
Encoding: 254 254 237
Width: 1234
VWidth: 3393
Flags: W
HStem: -428 21G<191 376> -30 156<505.027 790.945> 991 156<503.389 788.843>
VStem: 191 185<-428 143 279.002 839.056 978 1568> 916 194<280.367 839.897>
LayerCount: 2
Fore
SplineSet
376 -428 m 1,0,-1
 191 -428 l 1,1,-1
 191 1568 l 1,2,-1
 376 1568 l 1,3,-1
 376 978 l 1,4,5
 469 1147 469 1147 676 1147 c 0,6,7
 878 1147 878 1147 994 991 c 0,8,9
 1110 828 1110 828 1110 557 c 0,10,11
 1110 288 1110 288 994 126 c 0,12,13
 875 -30 875 -30 676 -30 c 0,14,15
 466 -30 466 -30 376 143 c 1,16,-1
 376 -428 l 1,0,-1
916 560 m 0,17,18
 916 991 916 991 648 991 c 0,19,20
 376 991 376 991 376 560 c 0,21,22
 376 126 376 126 648 126 c 0,23,24
 916 126 916 126 916 560 c 0,17,18
EndSplineSet
EndChar

StartChar: minus
Encoding: 8722 8722 238
Width: 1234
VWidth: 3393
Flags: W
HStem: 557 169<88 1147>
LayerCount: 2
Fore
SplineSet
1147 726 m 1,0,-1
 1147 557 l 1,1,-1
 88 557 l 1,2,-1
 88 726 l 1,3,-1
 1147 726 l 1,0,-1
EndSplineSet
EndChar

StartChar: multiply
Encoding: 215 215 239
Width: 1234
VWidth: 3393
Flags: W
HStem: 172 938<265 968 265 265>
VStem: 149 933<991 991 991 991>
LayerCount: 2
Fore
SplineSet
502 641 m 1,0,-1
 149 991 l 1,1,-1
 265 1110 l 1,2,-1
 618 761 l 1,3,-1
 968 1110 l 1,4,-1
 1082 991 l 1,5,-1
 732 641 l 1,6,-1
 1082 292 l 1,7,-1
 968 172 l 1,8,-1
 618 525 l 1,9,-1
 268 172 l 1,10,-1
 149 292 l 1,11,-1
 502 641 l 1,0,-1
EndSplineSet
EndChar

StartChar: onesuperior
Encoding: 185 185 240
Width: 1234
VWidth: 3393
Flags: W
HStem: 668 112<363 567 713 916> 1483 20G<448.676 713>
VStem: 567 146<780 1392>
LayerCount: 2
Fore
SplineSet
567 780 m 1,0,-1
 567 1392 l 1,1,-1
 343 1350 l 1,2,-1
 343 1466 l 1,3,-1
 573 1503 l 1,4,-1
 713 1503 l 1,5,-1
 713 780 l 1,6,-1
 916 780 l 1,7,-1
 916 668 l 1,8,-1
 363 668 l 1,9,-1
 363 780 l 1,10,-1
 567 780 l 1,0,-1
EndSplineSet
EndChar

StartChar: twosuperior
Encoding: 178 178 241
Width: 1234
VWidth: 3393
Flags: W
HStem: 668 116<482 893> 1412 109<383.532 689.006>
VStem: 736 154<1164.98 1369.1>
LayerCount: 2
Fore
SplineSet
893 784 m 1,0,-1
 893 668 l 1,1,-1
 323 668 l 1,2,-1
 323 780 l 1,3,-1
 553 1004 l 2,4,5
 651 1100 651 1100 696 1163 c 0,6,7
 736 1225 736 1225 736 1276 c 0,8,9
 736 1337 736 1337 685.5 1374.5 c 128,-1,10
 635 1412 635 1412 553 1412 c 0,11,12
 457 1412 457 1412 330 1341 c 1,13,-1
 330 1466 l 1,14,15
 451 1521 451 1521 573 1521 c 0,16,17
 716 1521 716 1521 800 1457 c 0,18,19
 890 1389 890 1389 890 1283 c 0,20,21
 890 1228 890 1228 852 1163 c 0,22,23
 832 1137 832 1137 793 1091.5 c 128,-1,24
 754 1046 754 1046 696 988 c 2,25,-1
 482 784 l 1,26,-1
 893 784 l 1,0,-1
EndSplineSet
EndChar

StartChar: threesuperior
Encoding: 179 179 242
Width: 1234
VWidth: 3393
Flags: W
HStem: 655 109<343.85 715.945> 1062 109<489 722.149> 1412 109<423.097 713.495>
VStem: 754 149<1205.89 1377.92> 774 152<816.9 1015.51>
LayerCount: 2
Fore
SplineSet
732 1120 m 1,0,1
 926 1079 926 1079 926 913 c 0,2,3
 926 787 926 787 831 721 c 128,-1,4
 736 655 736 655 557 655 c 0,5,6
 444 655 444 655 326 696 c 1,7,-1
 326 815 l 1,8,9
 466 764 466 764 553 764 c 0,10,11
 655 764 655 764 714.5 804.5 c 128,-1,12
 774 845 774 845 774 913 c 0,13,14
 774 1062 774 1062 553 1062 c 2,15,-1
 489 1062 l 1,16,-1
 489 1171 l 1,17,-1
 560 1171 l 2,18,19
 754 1171 754 1171 754 1292 c 0,20,21
 754 1350 754 1350 706 1381 c 128,-1,22
 658 1412 658 1412 570 1412 c 0,23,24
 522 1412 522 1412 468 1402 c 128,-1,25
 414 1392 414 1392 353 1364 c 1,26,-1
 353 1486 l 1,27,28
 489 1521 489 1521 590 1521 c 0,29,30
 739 1521 739 1521 822 1463 c 0,31,32
 903 1402 903 1402 903 1302 c 0,33,34
 903 1160 903 1160 732 1120 c 1,0,1
EndSplineSet
EndChar

StartChar: dcroat
Encoding: 273 273 255
Width: 1234
VWidth: 3393
Flags: W
HStem: -30 156<444.506 730.864> 991 156<446.415 730.238> 1286 122<553 858 1042 1234> 1538 20G<858 1042>
VStem: 123 197<278.167 838.893> 858 184<0 143 279.002 839.056 978 1286 1408 1558>
LayerCount: 2
Fore
SplineSet
858 1286 m 1,0,-1
 553 1286 l 1,1,-1
 553 1408 l 1,2,-1
 858 1408 l 1,3,-1
 858 1558 l 1,4,-1
 1042 1558 l 1,5,-1
 1042 1408 l 1,6,-1
 1234 1408 l 1,7,-1
 1234 1286 l 1,8,-1
 1042 1286 l 1,9,-1
 1042 0 l 1,10,-1
 858 0 l 1,11,-1
 858 143 l 1,12,13
 764 -30 764 -30 560 -30 c 0,14,15
 360 -30 360 -30 240 129 c 256,16,17
 123 288 123 288 123 563 c 0,18,19
 123 835 123 835 240 991 c 0,20,21
 356 1147 356 1147 560 1147 c 0,22,23
 771 1147 771 1147 858 978 c 1,24,-1
 858 1286 l 1,0,-1
320 560 m 0,25,26
 320 126 320 126 587 126 c 0,27,28
 858 126 858 126 858 560 c 0,29,30
 858 991 858 991 587 991 c 0,31,32
 320 991 320 991 320 560 c 0,25,26
EndSplineSet
EndChar

StartChar: sfthyphen
Encoding: 173 173 256
Width: 1234
VWidth: 3393
Flags: W
HStem: 479 166<356 878 356 878 356 356>
LayerCount: 2
Fore
SplineSet
878 645 m 1,0,-1
 878 479 l 1,1,-1
 356 479 l 1,2,-1
 356 645 l 1,3,-1
 878 645 l 1,0,-1
EndSplineSet
EndChar

StartChar: periodcentered
Encoding: 8729 8729 257
Width: 1234
VWidth: 3393
Flags: W
HStem: 560 305<492 744>
VStem: 492 252<560 865>
LayerCount: 2
Fore
SplineSet
744 865 m 1,0,-1
 744 560 l 1,1,-1
 492 560 l 1,2,-1
 492 865 l 1,3,-1
 744 865 l 1,0,-1
EndSplineSet
EndChar

StartChar: Euro
Encoding: 8364 8364 258
Width: 1234
VWidth: 3393
Flags: W
HStem: -30 163<595.471 943.348> 543 112<85 204 414 716> 842 107<85 204 414 848> 1360 161<597.267 884.85>
VStem: 200 201<363.625 543 655 670.577 670.577 695.467 696.531 820.788 820.788 825.969 825.969 842 949 1128.73>
LayerCount: 2
Fore
SplineSet
210 949 m 1,0,1
 308 1521 308 1521 757 1521 c 0,2,3
 842 1521 842 1521 915 1502 c 128,-1,4
 988 1483 988 1483 1062 1438 c 1,5,-1
 1062 1231 l 1,6,7
 994 1292 994 1292 916 1326 c 128,-1,8
 838 1360 838 1360 761 1360 c 0,9,10
 466 1360 466 1360 414 949 c 1,11,-1
 896 949 l 1,12,-1
 848 842 l 1,13,-1
 404 842 l 1,14,15
 401 822 401 822 401 799.5 c 128,-1,16
 401 777 401 777 401 729 c 0,17,18
 401 713 401 713 402.5 696 c 128,-1,19
 404 679 404 679 404 655 c 1,20,-1
 764 655 l 1,21,-1
 716 543 l 1,22,-1
 414 543 l 1,23,24
 462 133 462 133 761 133 c 0,25,26
 926 133 926 133 1062 262 c 1,27,-1
 1062 55 l 1,28,29
 923 -30 923 -30 757 -30 c 0,30,31
 302 -30 302 -30 210 543 c 1,32,-1
 38 543 l 1,33,-1
 85 655 l 1,34,-1
 204 655 l 1,35,36
 204 673 204 673 200 686 c 1,37,-1
 200 747 l 1,38,-1
 200 810 l 1,39,40
 204 825 204 825 204 842 c 1,41,-1
 38 842 l 1,42,-1
 85 949 l 1,43,-1
 210 949 l 1,0,1
EndSplineSet
EndChar

StartChar: c6459
Encoding: 65539 -1 259
Width: 1234
VWidth: 3393
Flags: W
HStem: 1296 204<320 522 713 913>
VStem: 320 202<1296 1500> 713 200<1296 1500>
LayerCount: 2
Fore
SplineSet
522 1500 m 1,0,-1
 522 1296 l 1,1,-1
 320 1296 l 1,2,-1
 320 1500 l 1,3,-1
 522 1500 l 1,0,-1
913 1500 m 1,4,-1
 913 1296 l 1,5,-1
 713 1296 l 1,6,-1
 713 1500 l 1,7,-1
 913 1500 l 1,4,-1
EndSplineSet
EndChar

StartChar: c6460
Encoding: 65540 -1 260
Width: 1234
VWidth: 3393
Flags: W
HStem: 1263 265<631 858 858 858>
LayerCount: 2
Fore
SplineSet
858 1528 m 1,0,-1
 631 1263 l 1,1,-1
 476 1263 l 1,2,-1
 673 1528 l 1,3,-1
 858 1528 l 1,0,-1
EndSplineSet
EndChar

StartChar: c6461
Encoding: 65541 -1 261
Width: 1234
VWidth: 3393
Flags: W
HStem: 1296 119<724.742 806.349> 1296 217<352.898 414 822 879.527> 1399 114<422.95 512.214>
VStem: 288 126<1296 1392.46>
LayerCount: 2
Fore
SplineSet
557 1370 m 2,0,1
 512 1399 512 1399 489 1399 c 0,2,3
 414 1399 414 1399 414 1302 c 2,4,-1
 414 1296 l 1,5,-1
 288 1296 l 1,6,7
 288 1399 288 1399 339.5 1456 c 128,-1,8
 391 1513 391 1513 476 1513 c 0,9,10
 492 1513 492 1513 508.5 1511.5 c 128,-1,11
 525 1510 525 1510 543 1506 c 256,12,13
 560 1503 560 1503 576.5 1494.5 c 128,-1,14
 593 1486 593 1486 621 1473 c 2,15,-1
 679 1442 l 2,16,17
 726 1415 726 1415 751 1415 c 0,18,19
 780 1415 780 1415 801 1440.5 c 128,-1,20
 822 1466 822 1466 822 1510 c 2,21,-1
 822 1513 l 1,22,-1
 946 1513 l 1,23,24
 943 1415 943 1415 894 1355.5 c 128,-1,25
 845 1296 845 1296 761 1296 c 0,26,27
 744 1296 744 1296 728.5 1297.5 c 128,-1,28
 713 1299 713 1299 696 1302 c 1,29,30
 679 1311 679 1311 660 1317.5 c 128,-1,31
 641 1324 641 1324 615 1337 c 2,32,-1
 557 1370 l 2,0,1
EndSplineSet
EndChar

StartChar: c6468
Encoding: 65542 -1 262
Width: 1234
VWidth: 3393
Flags: W
HStem: 1263 265<376 761 376 376>
LayerCount: 2
Fore
SplineSet
761 1263 m 1,0,-1
 605 1263 l 1,1,-1
 376 1528 l 1,2,-1
 560 1528 l 1,3,-1
 761 1263 l 1,0,-1
EndSplineSet
EndChar

StartChar: c6470
Encoding: 65543 -1 263
Width: 1234
VWidth: 3393
Flags: W
HStem: 1263 268<713 923 713 713>
VStem: 312 611<1263 1263 1263 1263>
LayerCount: 2
Fore
SplineSet
713 1531 m 1,0,-1
 923 1263 l 1,1,-1
 784 1263 l 1,2,-1
 618 1442 l 1,3,-1
 451 1263 l 1,4,-1
 312 1263 l 1,5,-1
 522 1531 l 1,6,-1
 713 1531 l 1,0,-1
EndSplineSet
EndChar

StartChar: c6472
Encoding: 65544 -1 264
Width: 1234
VWidth: 3393
Flags: W
HStem: 1263 268<312 713 312 312>
VStem: 312 611<1531 1531 1531 1531>
LayerCount: 2
Fore
SplineSet
312 1531 m 1,0,-1
 451 1531 l 1,1,-1
 618 1350 l 1,2,-1
 784 1531 l 1,3,-1
 923 1531 l 1,4,-1
 713 1263 l 1,5,-1
 522 1263 l 1,6,-1
 312 1531 l 1,0,-1
EndSplineSet
EndChar

StartChar: c6477
Encoding: 65545 -1 265
Width: 1234
VWidth: 3393
Flags: W
HStem: 505 370<51 1089 1089 1089>
LayerCount: 2
Fore
SplineSet
27 615 m 1,0,-1
 1089 875 l 1,1,-1
 1117 767 l 1,2,-1
 51 505 l 1,3,-1
 27 615 l 1,0,-1
EndSplineSet
EndChar

StartChar: c6478
Encoding: 65546 -1 266
Width: 1234
VWidth: 3393
Flags: W
HStem: 668 835<655 794> 855 113<379 655 794 910 268 910 379 379>
VStem: 655 139<668 855 968 1382>
LayerCount: 2
Fore
SplineSet
794 1503 m 1,0,-1
 794 968 l 1,1,-1
 910 968 l 1,2,-1
 910 855 l 1,3,-1
 794 855 l 1,4,-1
 794 668 l 1,5,-1
 655 668 l 1,6,-1
 655 855 l 1,7,-1
 268 855 l 1,8,-1
 268 978 l 1,9,-1
 631 1503 l 1,10,-1
 794 1503 l 1,0,-1
379 968 m 1,11,-1
 655 968 l 1,12,-1
 655 1382 l 1,13,-1
 379 968 l 1,11,-1
EndSplineSet
EndChar

StartChar: c6475
Encoding: 65547 -1 267
Width: 1234
VWidth: 3393
Flags: W
HStem: 1286 132<462.141 768.17>
VStem: 302 119<1433.35 1517.49>
LayerCount: 2
Fore
SplineSet
421 1531 m 1,0,1
 447 1418 447 1418 618 1418 c 0,2,3
 780 1418 780 1418 810 1531 c 1,4,-1
 930 1531 l 1,5,6
 910 1286 910 1286 618 1286 c 0,7,8
 330 1286 330 1286 302 1531 c 1,9,-1
 421 1531 l 1,0,1
EndSplineSet
EndChar

StartChar: c6476
Encoding: 65548 -1 268
Width: 1234
VWidth: 3393
Flags: W
HStem: 1296 204<515 719>
VStem: 515 204<1296 1500>
LayerCount: 2
Fore
SplineSet
719 1500 m 1,0,-1
 719 1296 l 1,1,-1
 515 1296 l 1,2,-1
 515 1500 l 1,3,-1
 719 1500 l 1,0,-1
EndSplineSet
EndChar

StartChar: uni0E01
Encoding: 3585 3585 270
Width: 1234
VWidth: 3111
Flags: W
HStem: 0 21G<196 333 893 1033> 805 110<228 286> 1096 118<403.348 668.969>
VStem: 104 929<938.5 953 805 858 805 805> 196 137<0 728.291> 893 140<0 991.844>
LayerCount: 2
Fore
SplineSet
567 1096 m 2,0,1
 476 1096 476 1096 401 1058.5 c 128,-1,2
 326 1021 326 1021 264 959 c 0,3,4
 255 950 255 950 244.5 938.5 c 128,-1,5
 234 927 234 927 228 915 c 1,6,-1
 451 915 l 1,7,-1
 451 805 l 1,8,9
 392 787 392 787 362.5 732.5 c 128,-1,10
 333 678 333 678 333 623 c 2,11,-1
 333 0 l 1,12,-1
 196 0 l 1,13,-1
 196 629 l 2,14,15
 196 691 196 691 219.5 729.5 c 128,-1,16
 243 768 243 768 286 805 c 1,17,-1
 104 805 l 1,18,-1
 104 983 l 1,19,20
 208 1089 208 1089 312 1151.5 c 128,-1,21
 416 1214 416 1214 573 1214 c 0,22,23
 656 1214 656 1214 739 1193.5 c 128,-1,24
 822 1173 822 1173 887.5 1131 c 128,-1,25
 953 1089 953 1089 993 1021 c 128,-1,26
 1033 953 1033 953 1033 858 c 2,27,-1
 1033 0 l 1,28,-1
 893 0 l 1,29,-1
 893 805 l 2,30,31
 893 965 893 965 813.5 1030.5 c 128,-1,32
 734 1096 734 1096 576 1096 c 2,33,-1
 567 1096 l 2,0,1
EndSplineSet
EndChar

StartChar: uni0E02
Encoding: 3586 3586 271
Width: 1234
VWidth: 3111
Flags: W
HStem: 0 118<560 853> 701 83<289.98 410.59> 953 83<330.264 416.234> 1108 106<351.972 570.671>
VStem: 149 124<813.86 935.04> 424 136<118 472.044> 427 98<815.58 932.319> 629 127<785.806 1046.99> 853 136<118 1202>
LayerCount: 2
Fore
SplineSet
424 401 m 2,0,1
 424 476 424 476 457 539.5 c 128,-1,2
 490 603 490 603 527 663.5 c 128,-1,3
 564 724 564 724 596.5 788.5 c 128,-1,4
 629 853 629 853 629 923 c 256,5,6
 629 995 629 995 582 1051.5 c 128,-1,7
 535 1108 535 1108 460 1108 c 0,8,9
 368 1108 368 1108 330 1030 c 1,10,11
 345 1036 345 1036 377 1036 c 0,12,13
 448 1036 448 1036 486.5 991 c 128,-1,14
 525 946 525 946 525 881 c 0,15,16
 525 796 525 796 476 748.5 c 128,-1,17
 427 701 427 701 342 701 c 0,18,19
 268 701 268 701 208.5 748.5 c 128,-1,20
 149 796 149 796 149 878 c 0,21,22
 149 1018 149 1018 228.5 1116 c 128,-1,23
 308 1214 308 1214 458 1214 c 0,24,25
 594 1214 594 1214 675 1134 c 128,-1,26
 756 1054 756 1054 756 915 c 0,27,28
 756 846 756 846 725 779 c 128,-1,29
 694 712 694 712 658.5 650 c 128,-1,30
 623 588 623 588 591.5 530 c 128,-1,31
 560 472 560 472 560 427 c 2,32,-1
 560 118 l 1,33,-1
 853 118 l 1,34,-1
 853 1202 l 1,35,-1
 989 1202 l 1,36,-1
 989 0 l 1,37,-1
 424 0 l 1,38,-1
 424 401 l 2,0,1
427 881 m 0,39,40
 427 909 427 909 411 931 c 128,-1,41
 395 953 395 953 361 953 c 256,42,43
 326 953 326 953 299.5 929.5 c 128,-1,44
 273 906 273 906 273 870 c 256,45,46
 273 837 273 837 295 810.5 c 128,-1,47
 317 784 317 784 354 784 c 0,48,49
 389 784 389 784 408 815 c 128,-1,50
 427 846 427 846 427 881 c 0,39,40
EndSplineSet
EndChar

StartChar: uni0E03
Encoding: 3587 3587 272
Width: 1234
VWidth: 3111
Flags: W
HStem: 0 118<547 858> 647 96<293.31 382.474> 881 102<290.187 387.488> 1006 117<421.339 490.193> 1071 131<271.294 342.467 560.481 634.686>
VStem: 401 146<118 520.362> 404 103<765.062 864.487> 645 130<834.942 1040.18> 858 137<118 1202>
LayerCount: 2
Fore
SplineSet
401 386 m 2,0,1
 401 460 401 460 438.5 536 c 128,-1,2
 476 612 476 612 522.5 687.5 c 128,-1,3
 569 763 569 763 607 840.5 c 128,-1,4
 645 918 645 918 645 995 c 0,5,6
 645 1021 645 1021 631 1046 c 128,-1,7
 617 1071 617 1071 588 1071 c 0,8,9
 567 1071 567 1071 552.5 1059.5 c 128,-1,10
 538 1048 538 1048 525.5 1037.5 c 128,-1,11
 513 1027 513 1027 499 1016.5 c 128,-1,12
 485 1006 485 1006 460 1006 c 0,13,14
 407 1006 407 1006 374.5 1038.5 c 128,-1,15
 342 1071 342 1071 321 1071 c 0,16,17
 286 1071 286 1071 275 1049 c 128,-1,18
 264 1027 264 1027 264 992 c 2,19,-1
 264 959 l 1,20,21
 308 983 308 983 354 983 c 0,22,23
 427 983 427 983 467 935.5 c 128,-1,24
 507 888 507 888 507 819 c 0,25,26
 507 743 507 743 455.5 695 c 128,-1,27
 404 647 404 647 333 647 c 0,28,29
 277 647 277 647 239.5 675 c 128,-1,30
 202 703 202 703 180 746.5 c 128,-1,31
 158 790 158 790 148.5 841.5 c 128,-1,32
 139 893 139 893 139 939 c 0,33,34
 139 976 139 976 147 1021 c 128,-1,35
 155 1066 155 1066 174 1105.5 c 128,-1,36
 193 1145 193 1145 226 1173.5 c 128,-1,37
 259 1202 259 1202 305 1202 c 0,38,39
 330 1202 330 1202 355 1189 c 128,-1,40
 380 1176 380 1176 402 1162.5 c 128,-1,41
 424 1149 424 1149 441 1136 c 128,-1,42
 458 1123 458 1123 467 1123 c 0,43,44
 481 1123 481 1123 494 1136 c 128,-1,45
 507 1149 507 1149 521 1165.5 c 128,-1,46
 535 1182 535 1182 552 1195 c 128,-1,47
 569 1208 569 1208 597 1208 c 0,48,49
 645 1208 645 1208 678.5 1187.5 c 128,-1,50
 712 1167 712 1167 733 1136 c 128,-1,51
 754 1105 754 1105 764.5 1064.5 c 128,-1,52
 775 1024 775 1024 775 983 c 0,53,54
 775 899 775 899 739 819.5 c 128,-1,55
 703 740 703 740 661.5 665.5 c 128,-1,56
 620 591 620 591 583.5 522.5 c 128,-1,57
 547 454 547 454 547 395 c 2,58,-1
 547 118 l 1,59,-1
 858 118 l 1,60,-1
 858 1202 l 1,61,-1
 995 1202 l 1,62,-1
 995 0 l 1,63,-1
 401 0 l 1,64,-1
 401 386 l 2,0,1
404 816 m 0,65,66
 404 844 404 844 389 862.5 c 128,-1,67
 374 881 374 881 342 881 c 0,68,69
 273 881 273 881 273 819 c 0,70,71
 273 790 273 790 290.5 766.5 c 128,-1,72
 308 743 308 743 333 743 c 0,73,74
 365 743 365 743 384.5 763.5 c 128,-1,75
 404 784 404 784 404 816 c 0,65,66
EndSplineSet
EndChar

StartChar: uni0E04
Encoding: 3588 3588 273
Width: 1234
VWidth: 3111
Flags: W
HStem: 0 21G<212.5 370 870 1009> 469 107<504.058 649.164> 768 106<516.094 650.611> 1098 114<353.154 715.857>
VStem: 90 138<624.562 974.39> 666 106<606.719 738.467> 870 139<0 1000.71>
LayerCount: 2
Fore
SplineSet
564 1098 m 0,0,1
 389 1098 389 1098 308.5 1022 c 128,-1,2
 228 946 228 946 228 756 c 0,3,4
 228 636 228 636 248 530 c 128,-1,5
 268 424 268 424 293 305 c 1,6,7
 303 354 303 354 314.5 423 c 128,-1,8
 326 492 326 492 343.5 563.5 c 128,-1,9
 361 635 361 635 381 699 c 128,-1,10
 401 763 401 763 424 802 c 0,11,12
 448 844 448 844 491.5 859 c 128,-1,13
 535 874 535 874 579 874 c 0,14,15
 668 874 668 874 720 823 c 128,-1,16
 772 772 772 772 772 678 c 0,17,18
 772 597 772 597 720 533 c 128,-1,19
 668 469 668 469 582 469 c 0,20,21
 511 469 511 469 458 516 c 1,22,23
 446 469 446 469 430 405.5 c 128,-1,24
 414 342 414 342 400 273.5 c 128,-1,25
 386 205 386 205 378 138.5 c 128,-1,26
 370 72 370 72 370 21 c 2,27,-1
 370 0 l 1,28,-1
 217 0 l 1,29,30
 208 95 208 95 187 187.5 c 128,-1,31
 166 280 166 280 144 373.5 c 128,-1,32
 122 467 122 467 106 564 c 128,-1,33
 90 661 90 661 90 758 c 0,34,35
 90 1006 90 1006 220.5 1109 c 128,-1,36
 351 1212 351 1212 560 1212 c 0,37,38
 645 1212 645 1212 725 1194 c 128,-1,39
 805 1176 805 1176 868.5 1134 c 128,-1,40
 932 1092 932 1092 970.5 1023 c 128,-1,41
 1009 954 1009 954 1009 855 c 2,42,-1
 1009 0 l 1,43,-1
 870 0 l 1,44,-1
 870 834 l 2,45,46
 870 977 870 977 791 1037.5 c 128,-1,47
 712 1098 712 1098 564 1098 c 0,0,1
666 668 m 0,48,49
 666 712 666 712 647.5 740 c 128,-1,50
 629 768 629 768 582 768 c 0,51,52
 544 768 544 768 519.5 735.5 c 128,-1,53
 495 703 495 703 495 668 c 0,54,55
 495 576 495 576 588 576 c 0,56,57
 626 576 626 576 646 605.5 c 128,-1,58
 666 635 666 635 666 668 c 0,48,49
EndSplineSet
EndChar

StartChar: uni0E05
Encoding: 3589 3589 274
Width: 1234
VWidth: 3111
Flags: W
HStem: 0 21G<238.5 381.483 909 1045> 467 115<548.533 668.702> 754 111<539.239 668.791> 1071 137<320.167 449.455 790 832.727>
VStem: 90 955<678 853 781 834 1094.5 1327.04> 90 141<606.806 857.63> 685 115<611.459 725.452> 909 136<0 887.66>
LayerCount: 2
Fore
SplineSet
617 980 m 1,0,1
 585 980 585 980 558.5 994.5 c 128,-1,2
 532 1009 532 1009 508.5 1026 c 128,-1,3
 485 1043 485 1043 460.5 1057 c 128,-1,4
 436 1071 436 1071 404 1071 c 0,5,6
 359 1071 359 1071 326 1040 c 128,-1,7
 293 1009 293 1009 272.5 963.5 c 128,-1,8
 252 918 252 918 241.5 868.5 c 128,-1,9
 231 819 231 819 231 781 c 0,10,11
 231 659 231 659 260 546 c 128,-1,12
 289 433 289 433 324 321 c 1,13,14
 339 395 339 395 354.5 471 c 128,-1,15
 370 547 370 547 386 623 c 0,16,17
 395 666 395 666 409.5 710 c 128,-1,18
 424 754 424 754 446.5 788 c 128,-1,19
 469 822 469 822 506.5 843.5 c 128,-1,20
 544 865 544 865 601 865 c 0,21,22
 691 865 691 865 745.5 818.5 c 128,-1,23
 800 772 800 772 800 678 c 0,24,25
 800 594 800 594 742.5 530.5 c 128,-1,26
 685 467 685 467 597 467 c 0,27,28
 529 467 529 467 492 513 c 1,29,-1
 377 0 l 1,30,-1
 243 0 l 1,31,32
 234 104 234 104 207.5 200 c 128,-1,33
 181 296 181 296 156 390.5 c 128,-1,34
 131 485 131 485 110.5 581.5 c 128,-1,35
 90 678 90 678 90 781 c 0,36,37
 90 853 90 853 110.5 927 c 128,-1,38
 131 1001 131 1001 173 1063.5 c 128,-1,39
 215 1126 215 1126 277 1167 c 128,-1,40
 339 1208 339 1208 419 1208 c 0,41,42
 448 1208 448 1208 469 1192 c 128,-1,43
 490 1176 490 1176 509.5 1156 c 128,-1,44
 529 1136 529 1136 554 1120.5 c 128,-1,45
 579 1105 579 1105 609 1105 c 0,46,47
 645 1105 645 1105 674 1120.5 c 128,-1,48
 703 1136 703 1136 728.5 1156 c 128,-1,49
 754 1176 754 1176 772 1192 c 128,-1,50
 790 1208 790 1208 802 1208 c 0,51,52
 828 1208 828 1208 838.5 1199.5 c 128,-1,53
 849 1191 849 1191 867 1176 c 0,54,55
 959 1108 959 1108 1002 1029 c 128,-1,56
 1045 950 1045 950 1045 834 c 2,57,-1
 1045 0 l 1,58,-1
 909 0 l 1,59,-1
 909 819 l 2,60,61
 909 846 909 846 904 889 c 128,-1,62
 899 932 899 932 886.5 972 c 128,-1,63
 874 1012 874 1012 851 1039 c 128,-1,64
 828 1066 828 1066 790 1066 c 1,65,-1
 617 980 l 1,0,1
685 668 m 256,66,67
 685 703 685 703 663 728.5 c 128,-1,68
 641 754 641 754 606 754 c 0,69,70
 569 754 569 754 544.5 726 c 128,-1,71
 520 698 520 698 520 662 c 128,-1,72
 520 626 520 626 544.5 604 c 128,-1,73
 569 582 569 582 606 582 c 0,74,75
 641 582 641 582 663 608.5 c 128,-1,76
 685 635 685 635 685 668 c 256,66,67
EndSplineSet
EndChar

StartChar: uni0E06
Encoding: 3590 3590 275
Width: 1234
VWidth: 3111
Flags: W
HStem: -28 114<324.588 397.39> 671 88<243.153 341.125> 902 97<262.936 333.914> 1006 111<401.644 476.775> 1080 131<209.097 288.941 528.616 608.066>
VStem: 90 130<815.335 912.584> 146 136<187.444 323.531> 354 100<782.255 880.912> 404 140<121.047 368 520 581.836> 612 128<864.176 1026 1020.61 1031.4 1031.4 1049> 909 136<193 1202>
LayerCount: 2
Fore
SplineSet
906 0 m 1,0,1
 822 86 822 86 733.5 184 c 128,-1,2
 645 282 645 282 544 368 c 1,3,-1
 544 100 l 2,4,5
 544 62 544 62 527.5 37 c 128,-1,6
 511 12 511 12 484.5 -2 c 128,-1,7
 458 -16 458 -16 425 -22 c 128,-1,8
 392 -28 392 -28 361 -28 c 0,9,10
 308 -28 308 -28 268 -3.5 c 128,-1,11
 228 21 228 21 201.5 62.5 c 128,-1,12
 175 104 175 104 160.5 151.5 c 128,-1,13
 146 199 146 199 146 246 c 0,14,15
 146 299 146 299 166.5 348.5 c 128,-1,16
 187 398 187 398 223 435 c 128,-1,17
 259 472 259 472 305 496 c 128,-1,18
 351 520 351 520 404 520 c 1,19,20
 404 560 404 560 416 601 c 0,21,22
 433 656 433 656 465.5 699.5 c 128,-1,23
 498 743 498 743 531 785.5 c 128,-1,24
 564 828 564 828 588 875.5 c 128,-1,25
 612 923 612 923 612 992 c 0,26,27
 612 1024 612 1024 606.5 1049 c 128,-1,28
 601 1074 601 1074 564 1074 c 0,29,30
 529 1074 529 1074 499 1040 c 128,-1,31
 469 1006 469 1006 446 1006 c 0,32,33
 416 1006 416 1006 393 1018 c 128,-1,34
 370 1030 370 1030 348 1043.5 c 128,-1,35
 326 1057 326 1057 309.5 1068.5 c 128,-1,36
 293 1080 293 1080 277 1080 c 0,37,38
 243 1080 243 1080 237 1039.5 c 128,-1,39
 231 999 231 999 228 974 c 1,40,41
 268 999 268 999 314 999 c 0,42,43
 386 999 386 999 420 948 c 128,-1,44
 454 897 454 897 454 834 c 0,45,46
 454 754 454 754 402.5 712.5 c 128,-1,47
 351 671 351 671 277 671 c 0,48,49
 228 671 228 671 193 696.5 c 128,-1,50
 158 722 158 722 135.5 761 c 128,-1,51
 113 800 113 800 101.5 846.5 c 128,-1,52
 90 893 90 893 90 932 c 0,53,54
 90 962 90 962 97 1009.5 c 128,-1,55
 104 1057 104 1057 117.5 1101 c 128,-1,56
 131 1145 131 1145 156 1178 c 128,-1,57
 181 1211 181 1211 220 1211 c 128,-1,58
 259 1211 259 1211 288 1196.5 c 128,-1,59
 317 1182 317 1182 342.5 1163.5 c 128,-1,60
 368 1145 368 1145 387.5 1131 c 128,-1,61
 407 1117 407 1117 427 1117 c 0,62,63
 451 1117 451 1117 468 1133 c 128,-1,64
 485 1149 485 1149 502.5 1165.5 c 128,-1,65
 520 1182 520 1182 537.5 1198 c 128,-1,66
 555 1214 555 1214 582 1214 c 0,67,68
 629 1214 629 1214 660 1192 c 128,-1,69
 691 1170 691 1170 707.5 1135.5 c 128,-1,70
 724 1101 724 1101 732 1061 c 128,-1,71
 740 1021 740 1021 740 980 c 0,72,73
 740 909 740 909 711 849.5 c 128,-1,74
 682 790 682 790 644 739.5 c 128,-1,75
 606 689 606 689 576.5 640 c 128,-1,76
 547 591 547 591 547 538 c 2,77,-1
 547 511 l 1,78,79
 654 427 654 427 738 353.5 c 128,-1,80
 822 280 822 280 909 193 c 1,81,-1
 909 1202 l 1,82,-1
 1045 1202 l 1,83,-1
 1045 0 l 1,84,-1
 911 0 l 1,85,-1
 906 0 l 1,0,1
354 834 m 0,86,87
 354 858 354 858 335.5 880 c 128,-1,88
 317 902 317 902 293 902 c 0,89,90
 261 902 261 902 240.5 882 c 128,-1,91
 220 862 220 862 220 831 c 0,92,93
 220 805 220 805 240.5 782 c 128,-1,94
 261 759 261 759 286 759 c 0,95,96
 317 759 317 759 335.5 782 c 128,-1,97
 354 805 354 805 354 834 c 0,86,87
404 404 m 1,98,99
 348 392 348 392 315 342.5 c 128,-1,100
 282 293 282 293 282 237 c 0,101,102
 282 217 282 217 287.5 193 c 128,-1,103
 293 169 293 169 302.5 145.5 c 128,-1,104
 312 122 312 122 327 104 c 128,-1,105
 342 86 342 86 365 86 c 0,106,107
 389 86 389 86 396.5 119 c 128,-1,108
 404 152 404 152 404 169 c 2,109,-1
 404 404 l 1,98,99
EndSplineSet
EndChar

StartChar: uni0E07
Encoding: 3591 3591 276
Width: 1234
VWidth: 3111
Flags: W
HStem: 0 21G<695.592 955> 793 106<664.806 796.013> 1101 116<667.555 800.295>
VStem: 507 147<909.308 1072.08> 819 136<104 810 952.806 1039.2>
LayerCount: 2
Fore
SplineSet
819 810 m 1,0,1
 778 793 778 793 737 793 c 0,2,3
 647 793 647 793 577 849 c 128,-1,4
 507 905 507 905 507 999 c 0,5,6
 507 1098 507 1098 572.5 1157.5 c 128,-1,7
 638 1217 638 1217 731 1217 c 0,8,9
 828 1217 828 1217 891.5 1159 c 128,-1,10
 955 1101 955 1101 955 1006 c 2,11,-1
 955 0 l 1,12,-1
 712 0 l 1,13,-1
 237 579 l 1,14,-1
 410 579 l 1,15,-1
 819 104 l 1,16,-1
 819 810 l 1,0,1
819 999 m 256,17,18
 819 1036 819 1036 797 1068.5 c 128,-1,19
 775 1101 775 1101 731 1101 c 0,20,21
 685 1101 685 1101 669.5 1070 c 128,-1,22
 654 1039 654 1039 654 999 c 0,23,24
 654 899 654 899 747 899 c 0,25,26
 787 899 787 899 803 930.5 c 128,-1,27
 819 962 819 962 819 999 c 256,17,18
EndSplineSet
EndChar

StartChar: uni0E08
Encoding: 3592 3592 277
Width: 1234
VWidth: 3111
Flags: W
HStem: 0 118<751 849> 401 119<386.196 518.842> 707 118<374.44 518.506> 1083 131<359.493 758.817>
VStem: 237 128<556.35 698.514> 865 144<643.348 972.55>
LayerCount: 2
Fore
SplineSet
1009 772 m 0,0,1
 1009 756 1009 756 1007.5 740 c 128,-1,2
 1006 724 1006 724 1001 710 c 1,3,-1
 965 0 l 1,4,-1
 635 0 l 1,5,-1
 567 442 l 1,6,7
 511 401 511 401 451 401 c 0,8,9
 354 401 354 401 295.5 471 c 128,-1,10
 237 541 237 541 237 632 c 0,11,12
 237 724 237 724 307 774.5 c 128,-1,13
 377 825 377 825 460 825 c 0,14,15
 525 825 525 825 565.5 801.5 c 128,-1,16
 606 778 606 778 630 738 c 128,-1,17
 654 698 654 698 666 649.5 c 128,-1,18
 678 601 678 601 689 547 c 2,19,-1
 751 118 l 1,20,-1
 849 118 l 1,21,22
 855 286 855 286 860 446 c 128,-1,23
 865 606 865 606 865 768 c 0,24,25
 865 921 865 921 801 1002 c 128,-1,26
 737 1083 737 1083 579 1083 c 0,27,28
 448 1083 448 1083 326.5 1024 c 128,-1,29
 205 965 205 965 125 865 c 1,30,-1
 125 1033 l 1,31,32
 205 1131 205 1131 334 1172.5 c 128,-1,33
 463 1214 463 1214 585 1214 c 0,34,35
 809 1214 809 1214 909 1101.5 c 128,-1,36
 1009 989 1009 989 1009 772 c 0,0,1
538 612 m 256,37,38
 538 647 538 647 514 677 c 128,-1,39
 490 707 490 707 451 707 c 0,40,41
 365 707 365 707 365 612 c 0,42,43
 365 579 365 579 390.5 549.5 c 128,-1,44
 416 520 416 520 451 520 c 0,45,46
 490 520 490 520 514 549.5 c 128,-1,47
 538 579 538 579 538 612 c 256,37,38
EndSplineSet
EndChar

StartChar: uni0E09
Encoding: 3593 3593 278
Width: 1234
VWidth: 3111
Flags: W
HStem: -28 97<844.964 963.579> 365 107<227.818 342.593> 641 115<227.737 369.181> 1096 121<460.159 690.024>
VStem: 83 128<500.513 612.87> 368 136<199 383 496.753 633.597> 715 116<99.9183 217.323> 858 141<440.155 983.219> 976 122<97.0303 242.259>
LayerCount: 2
Fore
SplineSet
1098 181 m 0,0,1
 1098 93 1098 93 1042 32.5 c 128,-1,2
 986 -28 986 -28 899 -28 c 0,3,4
 819 -28 819 -28 767 25 c 128,-1,5
 715 78 715 78 715 158 c 0,6,7
 715 211 715 211 734 252 c 1,8,9
 656 208 656 208 598.5 143 c 128,-1,10
 541 78 541 78 502 0 c 1,11,-1
 368 0 l 1,12,-1
 368 383 l 1,13,14
 326 365 326 365 277 365 c 0,15,16
 196 365 196 365 139.5 411.5 c 128,-1,17
 83 458 83 458 83 541 c 0,18,19
 83 638 83 638 144 697 c 128,-1,20
 205 756 205 756 303 756 c 0,21,22
 419 756 419 756 461.5 684 c 128,-1,23
 504 612 504 612 504 511 c 2,24,-1
 504 199 l 1,25,26
 585 277 585 277 633.5 305 c 128,-1,27
 682 333 682 333 712 348 c 0,28,29
 756 374 756 374 807 406.5 c 128,-1,30
 858 439 858 439 858 498 c 2,31,-1
 858 793 l 2,32,33
 858 953 858 953 780.5 1024.5 c 128,-1,34
 703 1096 703 1096 547 1096 c 0,35,36
 481 1096 481 1096 411.5 1074 c 128,-1,37
 342 1052 342 1052 273.5 1017.5 c 128,-1,38
 205 983 205 983 143 941 c 128,-1,39
 81 899 81 899 30 855 c 1,40,-1
 30 1036 l 1,41,42
 78 1077 78 1077 138.5 1109.5 c 128,-1,43
 199 1142 199 1142 267.5 1165 c 128,-1,44
 336 1188 336 1188 406 1202.5 c 128,-1,45
 476 1217 476 1217 535 1217 c 0,46,47
 626 1217 626 1217 708 1196.5 c 128,-1,48
 790 1176 790 1176 855.5 1132.5 c 128,-1,49
 921 1089 921 1089 960 1017.5 c 128,-1,50
 999 946 999 946 999 844 c 2,51,-1
 999 481 l 2,52,53
 999 448 999 448 986.5 418.5 c 128,-1,54
 974 389 974 389 946 368 c 1,55,56
 1015 351 1015 351 1056.5 301.5 c 128,-1,57
 1098 252 1098 252 1098 181 c 0,0,1
976 171 m 256,58,59
 976 205 976 205 963 236.5 c 128,-1,60
 950 268 950 268 911 268 c 0,61,62
 867 268 867 268 849 239.5 c 128,-1,63
 831 211 831 211 831 171 c 0,64,65
 831 137 831 137 846.5 103 c 128,-1,66
 862 69 862 69 906 69 c 256,67,68
 950 69 950 69 963 103 c 128,-1,69
 976 137 976 137 976 171 c 256,58,59
377 557 m 0,70,71
 377 641 377 641 289 641 c 0,72,73
 255 641 255 641 233 616 c 128,-1,74
 211 591 211 591 211 557 c 256,75,76
 211 523 211 523 233 497.5 c 128,-1,77
 255 472 255 472 289 472 c 256,78,79
 324 472 324 472 350.5 496 c 128,-1,80
 377 520 377 520 377 557 c 0,70,71
EndSplineSet
EndChar

StartChar: uni0E0A
Encoding: 3594 3594 279
Width: 1234
VWidth: 3111
Flags: W
HStem: 0 118<469 837> 685 96<229.156 334.956> 923 98<270.243 333.984> 1105 109<297.876 523.915>
VStem: 90 125<805.979 969.902> 333 139<118 190.577 190.577 407 407 419 419 531.093> 359 99<804.521 897.643> 560 129<792.498 1063.41> 837 137<118 725.876>
LayerCount: 2
Fore
SplineSet
333 407 m 1,0,1
 333 481 333 481 368.5 546.5 c 128,-1,2
 404 612 404 612 447 674.5 c 128,-1,3
 490 737 490 737 525 799.5 c 128,-1,4
 560 862 560 862 560 936 c 0,5,6
 560 1015 560 1015 525 1060 c 128,-1,7
 490 1105 490 1105 410 1105 c 0,8,9
 348 1105 348 1105 310.5 1081 c 128,-1,10
 273 1057 273 1057 237 1009 c 1,11,12
 270 1018 270 1018 284.5 1019.5 c 128,-1,13
 299 1021 299 1021 321 1021 c 0,14,15
 383 1021 383 1021 420.5 968 c 128,-1,16
 458 915 458 915 458 858 c 0,17,18
 458 778 458 778 409.5 731.5 c 128,-1,19
 361 685 361 685 282 685 c 0,20,21
 183 685 183 685 136.5 748.5 c 128,-1,22
 90 812 90 812 90 906 c 0,23,24
 90 1045 90 1045 179 1129.5 c 128,-1,25
 268 1214 268 1214 407 1214 c 0,26,27
 560 1214 560 1214 624.5 1145.5 c 128,-1,28
 689 1077 689 1077 689 918 c 0,29,30
 689 844 689 844 654.5 779.5 c 128,-1,31
 620 715 620 715 580.5 654.5 c 128,-1,32
 541 594 541 594 506.5 533 c 128,-1,33
 472 472 472 472 472 407 c 0,34,35
 472 333 472 333 472 263 c 128,-1,36
 472 193 472 193 469 118 c 1,37,-1
 837 118 l 1,38,-1
 837 659 l 2,39,40
 837 691 837 691 832.5 727 c 128,-1,41
 828 763 828 763 815 794 c 128,-1,42
 802 825 802 825 778 846 c 128,-1,43
 754 867 754 867 715 874 c 1,44,-1
 715 976 l 1,45,46
 812 1021 812 1021 859 1085 c 128,-1,47
 906 1149 906 1149 906 1256 c 1,48,-1
 1064 1256 l 1,49,-1
 1064 1230 l 2,50,51
 1064 1191 1064 1191 1044 1141.5 c 128,-1,52
 1024 1092 1024 1092 991.5 1046.5 c 128,-1,53
 959 1001 959 1001 920 966.5 c 128,-1,54
 881 932 881 932 840 923 c 1,55,56
 909 899 909 899 941.5 825 c 128,-1,57
 974 751 974 751 974 682 c 2,58,-1
 974 0 l 1,59,-1
 333 0 l 1,60,-1
 333 419 l 1,61,-1
 333 407 l 1,0,1
359 849 m 256,62,63
 359 878 359 878 336.5 900.5 c 128,-1,64
 314 923 314 923 286 923 c 0,65,66
 261 923 261 923 238 905.5 c 128,-1,67
 215 888 215 888 215 862 c 0,68,69
 215 828 215 828 235 804.5 c 128,-1,70
 255 781 255 781 286 781 c 0,71,72
 314 781 314 781 336.5 801.5 c 128,-1,73
 359 822 359 822 359 849 c 256,62,63
EndSplineSet
EndChar

StartChar: uni0E0B
Encoding: 3595 3595 280
Width: 1234
VWidth: 3111
Flags: W
HStem: 0 118<469 834> 666 93<236.347 336.682> 899 93<236.791 326.1> 1080 131<207.007 279.718 474.733 546.116>
VStem: 78 121<962 993.099 993.099 1014.66 1014.66 1027 1040.5 1076.31> 330 139<118 534.483> 348 94<779.743 876.704> 555 120<807.879 989.999 976.181 1003.82 1003.82 1031.5> 834 140<118 728.298> 909 155<1178.05 1256>
LayerCount: 2
Fore
SplineSet
675 930 m 0,0,1
 675 855 675 855 642 789.5 c 128,-1,2
 609 724 609 724 572 662.5 c 128,-1,3
 535 601 535 601 502 536.5 c 128,-1,4
 469 472 469 472 469 401 c 2,5,-1
 469 118 l 1,6,-1
 834 118 l 1,7,-1
 834 659 l 2,8,9
 834 691 834 691 828 729.5 c 128,-1,10
 822 768 822 768 807.5 801 c 128,-1,11
 793 834 793 834 766.5 856 c 128,-1,12
 740 878 740 878 701 878 c 1,13,-1
 701 976 l 1,14,15
 793 1021 793 1021 851 1085 c 128,-1,16
 909 1149 909 1149 909 1256 c 1,17,-1
 1064 1256 l 1,18,-1
 1064 1226 l 2,19,20
 1064 1188 1064 1188 1044 1142 c 128,-1,21
 1024 1096 1024 1096 991.5 1051 c 128,-1,22
 959 1006 959 1006 920 972.5 c 128,-1,23
 881 939 881 939 840 930 c 1,24,25
 909 902 909 902 941.5 826.5 c 128,-1,26
 974 751 974 751 974 685 c 2,27,-1
 974 0 l 1,28,-1
 330 0 l 1,29,-1
 330 410 l 2,30,31
 330 485 330 485 365.5 552.5 c 128,-1,32
 401 620 401 620 443 685.5 c 128,-1,33
 485 751 485 751 520 816 c 128,-1,34
 555 881 555 881 555 955 c 0,35,36
 555 989 555 989 546.5 1031.5 c 128,-1,37
 538 1074 538 1074 492 1074 c 0,38,39
 472 1074 472 1074 463 1063 c 128,-1,40
 454 1052 454 1052 445 1038 c 128,-1,41
 436 1024 436 1024 425 1012.5 c 128,-1,42
 414 1001 414 1001 395 1001 c 0,43,44
 374 1001 374 1001 356.5 1014 c 128,-1,45
 339 1027 339 1027 323.5 1040.5 c 128,-1,46
 308 1054 308 1054 295 1067 c 128,-1,47
 282 1080 282 1080 268 1080 c 0,48,49
 217 1080 217 1080 208 1040.5 c 128,-1,50
 199 1001 199 1001 199 962 c 1,51,52
 252 992 252 992 303 992 c 0,53,54
 365 992 365 992 403.5 949 c 128,-1,55
 442 906 442 906 442 844 c 0,56,57
 442 768 442 768 395 717 c 128,-1,58
 348 666 348 666 273 666 c 0,59,60
 220 666 220 666 183 692.5 c 128,-1,61
 146 719 146 719 123 759.5 c 128,-1,62
 100 800 100 800 89 849.5 c 128,-1,63
 78 899 78 899 78 943 c 0,64,65
 78 980 78 980 85.5 1027 c 128,-1,66
 93 1074 93 1074 112 1114 c 128,-1,67
 131 1154 131 1154 162 1182.5 c 128,-1,68
 193 1211 193 1211 240 1211 c 0,69,70
 268 1211 268 1211 286.5 1195 c 128,-1,71
 305 1179 305 1179 319 1162 c 128,-1,72
 333 1145 333 1145 350.5 1129.5 c 128,-1,73
 368 1114 368 1114 389 1114 c 0,74,75
 407 1114 407 1114 420 1129.5 c 128,-1,76
 433 1145 433 1145 445.5 1162 c 128,-1,77
 458 1179 458 1179 474 1195 c 128,-1,78
 490 1211 490 1211 516 1211 c 0,79,80
 573 1211 573 1211 604 1182.5 c 128,-1,81
 635 1154 635 1154 651.5 1112.5 c 128,-1,82
 668 1071 668 1071 671.5 1022.5 c 128,-1,83
 675 974 675 974 675 930 c 0,0,1
348 831 m 0,84,85
 348 855 348 855 328 877 c 128,-1,86
 308 899 308 899 282 899 c 0,87,88
 252 899 252 899 234.5 878.5 c 128,-1,89
 217 858 217 858 217 831 c 0,90,91
 217 800 217 800 234.5 779.5 c 128,-1,92
 252 759 252 759 282 759 c 256,93,94
 314 759 314 759 331 780.5 c 128,-1,95
 348 802 348 802 348 831 c 0,84,85
EndSplineSet
EndChar

StartChar: uni0E0C
Encoding: 3596 3596 281
Width: 1234
VWidth: 3111
Flags: W
HStem: -28 100<219.909 345.904 621.01 704.195> 286 94<213.18 360.926> 1105 106<322.402 561.234>
VStem: 69 136<142.141 239.384 351 693.122> 370 102<114.931 277.51> 507 95<109.079 164.638 114.099 265.661> 675 130<90.8699 270 392 1022.41> 959 133<0 97.14 252 1202>
LayerCount: 2
Fore
SplineSet
959 69 m 1,0,-1
 959 72 l 2,1,2
 959 86 959 86 954.5 97.5 c 128,-1,3
 950 109 950 109 935.5 129 c 128,-1,4
 921 149 921 149 889.5 182 c 128,-1,5
 858 215 858 215 805 270 c 1,6,-1
 805 131 l 2,7,8
 805 72 805 72 771 22 c 128,-1,9
 737 -28 737 -28 675 -28 c 0,10,11
 582 -28 582 -28 544.5 38 c 128,-1,12
 507 104 507 104 507 193 c 256,13,14
 507 282 507 282 552 331 c 128,-1,15
 597 380 597 380 671 392 c 1,16,-1
 671 878 l 2,17,18
 671 989 671 989 609 1047 c 128,-1,19
 547 1105 547 1105 442 1105 c 0,20,21
 342 1105 342 1105 278.5 1067.5 c 128,-1,22
 215 1030 215 1030 143 943 c 1,23,-1
 303 943 l 1,24,-1
 303 853 l 1,25,26
 255 840 255 840 230 791.5 c 128,-1,27
 205 743 205 743 205 691 c 2,28,-1
 205 351 l 1,29,30
 249 380 249 380 303 380 c 0,31,32
 392 380 392 380 432 328.5 c 128,-1,33
 472 277 472 277 472 193 c 0,34,35
 472 113 472 113 421 42.5 c 128,-1,36
 370 -28 370 -28 282 -28 c 0,37,38
 175 -28 175 -28 122 49.5 c 128,-1,39
 69 127 69 127 69 228 c 2,40,-1
 69 626 l 2,41,42
 69 666 69 666 71.5 694 c 128,-1,43
 74 722 74 722 83.5 747 c 128,-1,44
 93 772 93 772 110 797 c 128,-1,45
 127 822 127 822 155 849 c 1,46,-1
 41 849 l 1,47,-1
 41 974 l 1,48,49
 83 1024 83 1024 126 1067 c 128,-1,50
 169 1110 169 1110 215 1141.5 c 128,-1,51
 261 1173 261 1173 317.5 1192 c 128,-1,52
 374 1211 374 1211 448 1211 c 0,53,54
 513 1211 513 1211 579 1193.5 c 128,-1,55
 645 1176 645 1176 694 1140.5 c 128,-1,56
 743 1105 743 1105 774 1047 c 128,-1,57
 805 989 805 989 805 906 c 2,58,-1
 805 380 l 1,59,60
 837 354 837 354 853.5 340 c 128,-1,61
 870 326 870 326 883.5 314.5 c 128,-1,62
 897 303 897 303 912 290 c 128,-1,63
 927 277 927 277 955 252 c 1,64,-1
 955 1202 l 1,65,-1
 1092 1202 l 1,66,-1
 1092 0 l 1,67,-1
 959 0 l 1,68,-1
 959 69 l 1,0,-1
675 308 m 1,69,70
 632 289 632 289 616.5 261.5 c 128,-1,71
 601 234 601 234 601 181 c 0,72,73
 601 169 601 169 602 148 c 128,-1,74
 603 127 603 127 607.5 108.5 c 128,-1,75
 612 90 612 90 625 76 c 128,-1,76
 638 62 638 62 659 62 c 0,77,78
 668 62 668 62 671.5 90 c 128,-1,79
 675 118 675 118 675 125 c 2,80,-1
 675 308 l 1,69,70
370 193 m 0,81,82
 370 286 370 286 280 286 c 0,83,84
 237 286 237 286 218 261.5 c 128,-1,85
 199 237 199 237 199 193 c 0,86,87
 199 152 199 152 216.5 112 c 128,-1,88
 234 72 234 72 282 72 c 128,-1,89
 330 72 330 72 350 112 c 128,-1,90
 370 152 370 152 370 193 c 0,81,82
EndSplineSet
EndChar

StartChar: uni0E0D
Encoding: 3597 3597 282
Width: 1234
VWidth: 3111
Flags: W
HStem: -427 94<768 819.264> -161 71<611.396 710.749> -28 88<243.179 373.623> 0 118<734 950> 296 93<260.495 380.376> 1105.5 101<257.909 295.5 327 365.814 365.814 368.319 367.067 523.524>
VStem: 90 138<178.023 237.912 359 723.154> 395 107<108.341 263.459> 504 97<-294.598 -183.032> 594 140<118 930.016> 719 100<-269.298 -178.938> 950 139<-202.86 -178.5 -178.5 -150.212 -150.212 -122 118 1202>
LayerCount: 2
Fore
SplineSet
427 1113 m 0,0,1
 368 1113 368 1113 327 1105.5 c 128,-1,2
 286 1098 286 1098 257 1077.5 c 128,-1,3
 228 1057 228 1057 203 1022.5 c 128,-1,4
 178 988 178 988 152 937 c 1,5,-1
 324 937 l 1,6,-1
 324 852 l 1,7,8
 273 840 273 840 250.5 793.5 c 128,-1,9
 228 747 228 747 228 697 c 2,10,-1
 228 359 l 1,11,12
 252 377 252 377 277.5 383 c 128,-1,13
 303 389 303 389 330 389 c 0,14,15
 419 389 419 389 460.5 337.5 c 128,-1,16
 502 286 502 286 502 202 c 0,17,18
 502 116 502 116 453 44 c 128,-1,19
 404 -28 404 -28 308 -28 c 0,20,21
 252 -28 252 -28 210.5 -3.5 c 128,-1,22
 169 21 169 21 142.5 60.5 c 128,-1,23
 116 100 116 100 103 151 c 128,-1,24
 90 202 90 202 90 252 c 2,25,-1
 90 634 l 2,26,27
 90 709 90 709 104 751 c 128,-1,28
 118 793 118 793 171 846 c 1,29,-1
 50 846 l 1,30,-1
 50 983 l 1,31,32
 100 1051 100 1051 135.5 1096.5 c 128,-1,33
 171 1142 171 1142 208.5 1169 c 128,-1,34
 246 1196 246 1196 295.5 1206.5 c 128,-1,35
 345 1217 345 1217 424 1217 c 0,36,37
 601 1217 601 1217 667.5 1116 c 128,-1,38
 734 1015 734 1015 734 831 c 2,39,-1
 734 118 l 1,40,-1
 950 118 l 1,41,-1
 950 1202 l 1,42,-1
 1089 1202 l 1,43,-1
 1089 0 l 1,44,-1
 594 0 l 1,45,-1
 594 837 l 2,46,47
 594 884 594 884 589.5 931.5 c 128,-1,48
 585 979 585 979 567.5 1019.5 c 128,-1,49
 550 1060 550 1060 515.5 1086.5 c 128,-1,50
 481 1113 481 1113 427 1113 c 0,0,1
1083 -146 m 1,51,52
 1083 -175 1083 -175 1073.5 -213.5 c 128,-1,53
 1064 -252 1064 -252 1048 -277 c 0,54,55
 1001 -365 1001 -365 916 -396 c 128,-1,56
 831 -427 831 -427 734 -427 c 0,57,58
 698 -427 698 -427 657.5 -417 c 128,-1,59
 617 -407 617 -407 582 -386 c 128,-1,60
 547 -365 547 -365 525.5 -332 c 128,-1,61
 504 -299 504 -299 504 -255 c 0,62,63
 504 -183 504 -183 541.5 -136.5 c 128,-1,64
 579 -90 579 -90 650 -90 c 0,65,66
 715 -90 715 -90 767 -121 c 128,-1,67
 819 -152 819 -152 819 -228 c 0,68,69
 819 -259 819 -259 803 -283.5 c 128,-1,70
 787 -308 787 -308 768 -333 c 1,71,72
 819 -333 819 -333 865 -307.5 c 128,-1,73
 911 -282 911 -282 927 -237 c 0,74,75
 936 -208 936 -208 936 -178.5 c 128,-1,76
 936 -149 936 -149 939 -122 c 1,77,-1
 1083 -122 l 1,78,-1
 1083 -146 l 1,51,52
719 -237 m 0,79,80
 719 -205 719 -205 706.5 -183 c 128,-1,81
 694 -161 694 -161 659 -161 c 256,82,83
 626 -161 626 -161 613.5 -189 c 128,-1,84
 601 -217 601 -217 601 -246 c 256,85,86
 601 -273 601 -273 616.5 -292.5 c 128,-1,87
 632 -312 632 -312 659 -312 c 256,88,89
 689 -312 689 -312 704 -288 c 128,-1,90
 719 -264 719 -264 719 -237 c 0,79,80
395 187 m 0,91,92
 395 231 395 231 378 263.5 c 128,-1,93
 361 296 361 296 308 296 c 0,94,95
 264 296 264 296 242 266.5 c 128,-1,96
 220 237 220 237 220 193 c 0,97,98
 220 152 220 152 242 106 c 128,-1,99
 264 60 264 60 314 60 c 0,100,101
 354 60 354 60 374.5 106 c 128,-1,102
 395 152 395 152 395 187 c 0,91,92
EndSplineSet
Substitution2: "Single Substitution lookup 22 subtable" uni0E0D.descless
Substitution2: "Single Substitution lookup 22 subtable" uni0E0D.descless
EndChar

StartChar: uni0E0E
Encoding: 3598 3598 283
Width: 1234
VWidth: 3111
Flags: W
HStem: -535 105<421.351 575.095> -249 100<402.431 500.603 492.443 508.764 508.764 537.5> -28 93<192.061 328.243> 277 109<187.42 318.121> 849 104<324 416> 1098 116<459.794 840.617>
VStem: 53 118<108.412 245.108> 259 124<-408.488 -285.445> 324 139<354 705.629> 603 137<-181 -44> 936 138<-370 990.562>
LayerCount: 2
Fore
SplineSet
1074 -516 m 1,0,-1
 936 -516 l 1,1,2
 878 -472 878 -472 832.5 -438 c 128,-1,3
 787 -404 787 -404 722 -354 c 1,4,5
 698 -451 698 -451 638.5 -493 c 128,-1,6
 579 -535 579 -535 481 -535 c 0,7,8
 398 -535 398 -535 328.5 -490.5 c 128,-1,9
 259 -446 259 -446 259 -351 c 0,10,11
 259 -252 259 -252 325.5 -200.5 c 128,-1,12
 392 -149 392 -149 481 -149 c 0,13,14
 516 -149 516 -149 544.5 -159 c 128,-1,15
 573 -169 573 -169 603 -181 c 1,16,-1
 603 -44 l 1,17,-1
 740 -44 l 1,18,-1
 740 -231 l 1,19,20
 800 -270 800 -270 839 -300 c 128,-1,21
 878 -330 878 -330 936 -370 c 1,22,-1
 936 778 l 2,23,24
 936 923 936 923 882 1010.5 c 128,-1,25
 828 1098 828 1098 671 1098 c 0,26,27
 567 1098 567 1098 479.5 1070.5 c 128,-1,28
 392 1043 392 1043 324 953 c 1,29,-1
 576 953 l 1,30,-1
 576 844 l 1,31,32
 557 831 557 831 538.5 816.5 c 128,-1,33
 520 802 520 802 504 787 c 1,34,35
 479 754 479 754 471 711 c 128,-1,36
 463 668 463 668 463 626 c 2,37,-1
 463 317 l 2,38,39
 463 261 463 261 458.5 199 c 128,-1,40
 454 137 454 137 434 87.5 c 128,-1,41
 414 38 414 38 372 5 c 128,-1,42
 330 -28 330 -28 255 -28 c 0,43,44
 166 -28 166 -28 109.5 39 c 128,-1,45
 53 106 53 106 53 196 c 0,46,47
 53 277 53 277 107 331.5 c 128,-1,48
 161 386 161 386 243 386 c 0,49,50
 296 386 296 386 324 354 c 1,51,-1
 324 666 l 2,52,53
 324 731 324 731 349 766.5 c 128,-1,54
 374 802 374 802 416 849 c 1,55,-1
 211 849 l 1,56,-1
 211 992 l 1,57,58
 289 1105 289 1105 404.5 1159.5 c 128,-1,59
 520 1214 520 1214 654 1214 c 0,60,61
 867 1214 867 1214 973.5 1116 c 128,-1,62
 1080 1018 1080 1018 1080 790 c 2,63,-1
 1074 -516 l 1,0,-1
342 190 m 0,64,65
 342 228 342 228 314 252.5 c 128,-1,66
 286 277 286 277 249 277 c 256,67,68
 211 277 211 277 191 247 c 128,-1,69
 171 217 171 217 171 183 c 0,70,71
 171 143 171 143 193 104 c 128,-1,72
 215 65 215 65 261 65 c 0,73,74
 314 65 314 65 328 105.5 c 128,-1,75
 342 146 342 146 342 190 c 0,64,65
603 -293 m 1,76,77
 573 -273 573 -273 537.5 -261 c 128,-1,78
 502 -249 502 -249 463 -249 c 0,79,80
 430 -249 430 -249 406.5 -280.5 c 128,-1,81
 383 -312 383 -312 383 -345 c 256,82,83
 383 -380 383 -380 415.5 -405 c 128,-1,84
 448 -430 448 -430 481 -430 c 0,85,86
 532 -430 532 -430 567.5 -403.5 c 128,-1,87
 603 -377 603 -377 603 -324 c 2,88,-1
 603 -293 l 1,76,77
EndSplineSet
Substitution2: "Single Substitution lookup 22 subtable" uni0E0E.alt1
Substitution2: "Single Substitution lookup 22 subtable" uni0E0E.alt1
EndChar

StartChar: uni0E0F
Encoding: 3599 3599 284
Width: 1234
VWidth: 3111
Flags: W
HStem: -535 108<262.982 410.98> -270 104<244.499 366.119> -28 97<199.282 325.716> 282 110<197.431 300.771> 837 112<333 414> 1101 116<460.224 785.521>
VStem: 56 125<107.319 246.532> 95 133<-410.973 -299.155> 324 139<370 718.473> 511 136<-227.194 -62> 936 138<-380 728.785 728.785 858.985>
LayerCount: 2
Fore
SplineSet
1074 685 m 1,0,-1
 1074 -525 l 1,1,-1
 909 -525 l 1,2,-1
 793 -386 l 1,3,-1
 707 -520 l 1,4,-1
 638 -520 l 1,5,-1
 560 -416 l 1,6,7
 502 -481 502 -481 454.5 -508 c 128,-1,8
 407 -535 407 -535 314 -535 c 0,9,10
 237 -535 237 -535 166 -484 c 128,-1,11
 95 -433 95 -433 95 -348 c 256,12,13
 95 -264 95 -264 163 -215 c 128,-1,14
 231 -166 231 -166 308 -166 c 0,15,16
 361 -166 361 -166 410.5 -184 c 128,-1,17
 460 -202 460 -202 511 -228 c 1,18,-1
 511 -62 l 1,19,-1
 647 -62 l 1,20,-1
 647 -155 l 2,21,22
 647 -196 647 -196 644 -233 c 128,-1,23
 641 -270 641 -270 626 -305 c 1,24,25
 641 -321 641 -321 651.5 -337.5 c 128,-1,26
 662 -354 662 -354 678 -370 c 1,27,-1
 796 -217 l 1,28,-1
 936 -380 l 1,29,-1
 936 822 l 2,30,31
 936 970 936 970 860 1035.5 c 128,-1,32
 784 1101 784 1101 647 1101 c 0,33,34
 544 1101 544 1101 471 1068.5 c 128,-1,35
 398 1036 398 1036 333 949 c 1,36,-1
 579 949 l 1,37,-1
 579 837 l 1,38,39
 532 815 532 815 497.5 762 c 128,-1,40
 463 709 463 709 463 656 c 2,41,-1
 463 289 l 2,42,43
 463 231 463 231 457 174.5 c 128,-1,44
 451 118 451 118 429 73 c 128,-1,45
 407 28 407 28 365.5 0 c 128,-1,46
 324 -28 324 -28 252 -28 c 0,47,48
 158 -28 158 -28 107 42.5 c 128,-1,49
 56 113 56 113 56 202 c 0,50,51
 56 282 56 282 107 337 c 128,-1,52
 158 392 158 392 240 392 c 0,53,54
 280 392 280 392 324 370 c 1,55,-1
 324 656 l 2,56,57
 324 718 324 718 346 757 c 128,-1,58
 368 796 368 796 414 837 c 1,59,-1
 215 837 l 1,60,-1
 215 1009 l 1,61,62
 289 1110 289 1110 401 1163.5 c 128,-1,63
 513 1217 513 1217 641 1217 c 0,64,65
 698 1217 698 1217 755 1207.5 c 128,-1,66
 812 1198 812 1198 865 1176 c 128,-1,67
 918 1154 918 1154 962 1117 c 128,-1,68
 1006 1080 1006 1080 1033 1027 c 0,69,70
 1048 999 1048 999 1056 954 c 128,-1,71
 1064 909 1064 909 1067.5 860.5 c 128,-1,72
 1071 812 1071 812 1072.5 767 c 128,-1,73
 1074 722 1074 722 1074 691 c 2,74,-1
 1074 685 l 1,0,-1
339 175 m 0,75,76
 339 215 339 215 316 248.5 c 128,-1,77
 293 282 293 282 249 282 c 0,78,79
 215 282 215 282 198 243.5 c 128,-1,80
 181 205 181 205 181 178 c 0,81,82
 181 143 181 143 200.5 106 c 128,-1,83
 220 69 220 69 259 69 c 0,84,85
 308 69 308 69 323.5 100 c 128,-1,86
 339 131 339 131 339 175 c 0,75,76
481 -339 m 1,87,88
 451 -314 451 -314 401 -292 c 128,-1,89
 351 -270 351 -270 312 -270 c 128,-1,90
 273 -270 273 -270 250.5 -295.5 c 128,-1,91
 228 -321 228 -321 228 -354 c 0,92,93
 228 -395 228 -395 266.5 -411 c 128,-1,94
 305 -427 305 -427 336 -427 c 0,95,96
 380 -427 380 -427 419 -400.5 c 128,-1,97
 458 -374 458 -374 481 -339 c 1,87,88
EndSplineSet
Substitution2: "Single Substitution lookup 22 subtable" uni0E0F.alt1
Substitution2: "Single Substitution lookup 22 subtable" uni0E0F.alt1
EndChar

StartChar: uni0E10
Encoding: 3600 3600 285
Width: 1234
VWidth: 3111
Flags: W
HStem: -523 104<150.041 259.485 708.438 784.136> -359 91<756.433 815.631> -280 111<130.777 250.552> -171 93<756.225 829.453> 0 21G<668.902 922.5> 354 100<358.035 469.934> 617 107<354.732 469.712> 826.5 116.5<277.36 317 317 421.819 421.819 567.679 567.679 581.32 581.32 628 670.5 733.559> 986 154<842.344 958.468> 1096 116.5<399.996 486.696 421.524 563.528>
VStem: 18 109<-401.049 -283.262> 228 111<486.103 590.079> 330 142<-218.28 -102.754 -102.754 -81> 650 106<-267.796 -171.58> 840 103<-248.68 -196.35> 858 143<476.114 719.169>
LayerCount: 2
Fore
SplineSet
1052 1001 m 1,0,1
 1030 989 1030 989 1002 987.5 c 128,-1,2
 974 986 974 986 950 986 c 2,3,-1
 915 986 l 2,4,5
 855 986 855 986 801 1003.5 c 128,-1,6
 747 1021 747 1021 694 1041 c 128,-1,7
 641 1061 641 1061 586.5 1078.5 c 128,-1,8
 532 1096 532 1096 476 1096 c 0,9,10
 398 1096 398 1096 355 1051 c 128,-1,11
 312 1006 312 1006 277 943 c 1,12,-1
 498 943 l 2,13,14
 582 943 582 943 670.5 932 c 128,-1,15
 759 921 759 921 834 888 c 128,-1,16
 909 855 909 855 955 793 c 128,-1,17
 1001 731 1001 731 1001 632 c 0,18,19
 1001 620 1001 620 998 598 c 128,-1,20
 995 576 995 576 985.5 512 c 128,-1,21
 976 448 976 448 957.5 329.5 c 128,-1,22
 939 211 939 211 906 0 c 1,23,-1
 675 0 l 1,24,-1
 550 410 l 1,25,26
 523 386 523 386 496 370 c 128,-1,27
 469 354 469 354 430 354 c 0,28,29
 348 354 348 354 288 404 c 128,-1,30
 228 454 228 454 228 535 c 0,31,32
 228 635 228 635 288 679.5 c 128,-1,33
 348 724 348 724 446 724 c 0,34,35
 485 724 485 724 517.5 701 c 128,-1,36
 550 678 550 678 573.5 642 c 128,-1,37
 597 606 597 606 614.5 565.5 c 128,-1,38
 632 525 632 525 645 492 c 2,39,-1
 768 116 l 1,40,-1
 796 116 l 1,41,42
 805 220 805 220 831.5 349.5 c 128,-1,43
 858 479 858 479 858 594 c 0,44,45
 858 641 858 641 851 684.5 c 128,-1,46
 844 728 844 728 805 763 c 0,47,48
 781 784 781 784 735 796.5 c 128,-1,49
 689 809 689 809 628 817 c 128,-1,50
 567 825 567 825 495.5 826.5 c 128,-1,51
 424 828 424 828 348 828 c 0,52,53
 317 828 317 828 286 826.5 c 128,-1,54
 255 825 255 825 228 809 c 1,55,-1
 90 809 l 1,56,57
 106 870 106 870 130.5 934.5 c 128,-1,58
 155 999 155 999 191.5 1054.5 c 128,-1,59
 228 1110 228 1110 279 1150.5 c 128,-1,60
 330 1191 330 1191 398 1205 c 0,61,62
 430 1211 430 1211 457.5 1212.5 c 128,-1,63
 485 1214 485 1214 516 1214 c 0,64,65
 564 1214 564 1214 605.5 1202.5 c 128,-1,66
 647 1191 647 1191 687.5 1177.5 c 128,-1,67
 728 1164 728 1164 770 1152 c 128,-1,68
 812 1140 812 1140 858 1140 c 0,69,70
 911 1140 911 1140 960 1144.5 c 128,-1,71
 1009 1149 1009 1149 1052 1176 c 1,72,-1
 1052 1001 l 1,0,1
943 -389 m 1,73,74
 943 -460 943 -460 902.5 -491.5 c 128,-1,75
 862 -523 862 -523 793 -523 c 2,76,-1
 626 -523 l 1,77,-1
 538 -433 l 1,78,-1
 451 -532 l 1,79,-1
 423 -495 l 0,80,81
 395 -458 395 -458 374 -433 c 1,82,-1
 368 -442 l 1,83,84
 333 -476 333 -476 294 -502.5 c 128,-1,85
 255 -529 255 -529 202 -529 c 0,86,87
 109 -529 109 -529 63.5 -476.5 c 128,-1,88
 18 -424 18 -424 18 -330 c 0,89,90
 18 -268 18 -268 70 -218.5 c 128,-1,91
 122 -169 122 -169 187 -169 c 0,92,93
 231 -169 231 -169 268 -185.5 c 128,-1,94
 305 -202 305 -202 336 -231 c 1,95,-1
 330 -81 l 1,96,-1
 469 -81 l 1,97,98
 472 -95 472 -95 472 -125 c 0,99,100
 472 -217 472 -217 446 -303 c 1,101,-1
 481 -348 l 1,102,-1
 555 -264 l 1,103,-1
 685 -401 l 2,104,105
 694 -414 694 -414 708 -416.5 c 128,-1,106
 722 -419 722 -419 737 -419 c 0,107,108
 756 -419 756 -419 786 -411.5 c 128,-1,109
 816 -404 816 -404 816 -380 c 2,110,-1
 816 -359 l 1,111,112
 751 -359 751 -359 700.5 -324 c 128,-1,113
 650 -289 650 -289 650 -217 c 0,114,115
 650 -155 650 -155 690.5 -116.5 c 128,-1,116
 731 -78 731 -78 793 -78 c 0,117,118
 865 -78 865 -78 904 -118 c 128,-1,119
 943 -158 943 -158 943 -228 c 2,120,-1
 943 -389 l 1,73,74
498 538 m 256,121,122
 498 573 498 573 473 595 c 128,-1,123
 448 617 448 617 414 617 c 0,124,125
 383 617 383 617 361 593 c 128,-1,126
 339 569 339 569 339 538 c 256,127,128
 339 507 339 507 364 480.5 c 128,-1,129
 389 454 389 454 424 454 c 0,130,131
 451 454 451 454 474.5 479 c 128,-1,132
 498 504 498 504 498 538 c 256,121,122
840 -224 m 256,133,134
 840 -208 840 -208 829.5 -189.5 c 128,-1,135
 819 -171 819 -171 802 -171 c 0,136,137
 756 -171 756 -171 756 -220 c 0,138,139
 756 -268 756 -268 802 -268 c 0,140,141
 819 -268 819 -268 829.5 -254 c 128,-1,142
 840 -240 840 -240 840 -224 c 256,133,134
299 -351 m 1,143,144
 280 -321 280 -321 260 -300.5 c 128,-1,145
 240 -280 240 -280 196 -280 c 0,146,147
 127 -280 127 -280 127 -354 c 0,148,149
 127 -383 127 -383 149 -403.5 c 128,-1,150
 171 -424 171 -424 196 -424 c 0,151,152
 228 -424 228 -424 260.5 -400.5 c 128,-1,153
 293 -377 293 -377 299 -351 c 1,143,144
EndSplineSet
Substitution2: "Single Substitution lookup 22 subtable" uni0E10.descless
Substitution2: "Single Substitution lookup 22 subtable" uni0E10.descless
EndChar

StartChar: uni0E11
Encoding: 3601 3601 286
Width: 1234
VWidth: 3111
Flags: W
HStem: 0 21G<342 479 921 1057> 679 75<204.261 296.79> 894 88<213.34 299.093> 1094 117<178.589 223.582 424.362 492.345 864.234 944.433>
VStem: 66 110.5<943.501 972.393 972.393 995.062 983.727 1064.48> 308 87<775.833 876.664> 342 137<0 299 502 613.162> 498 99<969.457 1063.48> 921 136<0 1081.33>
LayerCount: 2
Fore
SplineSet
342 0 m 1,0,-1
 342 546 l 2,1,2
 342 612 342 612 367 667.5 c 128,-1,3
 392 723 392 723 420 776 c 128,-1,4
 448 829 448 829 473 883 c 0,5,6
 500 942 500 942 498 1000 c 0,7,8
 497 1016 497 1016 492 1065 c 0,9,10
 489 1100 489 1100 454 1100 c 0,11,12
 433 1100 433 1100 420 1086 c 128,-1,13
 407 1072 407 1072 395 1055 c 128,-1,14
 383 1038 383 1038 368.5 1024 c 128,-1,15
 354 1010 354 1010 330 1010 c 0,16,17
 308 1010 308 1010 292.5 1022.5 c 128,-1,18
 277 1035 277 1035 263 1051.5 c 128,-1,19
 249 1068 249 1068 236.5 1081 c 128,-1,20
 224 1094 224 1094 208 1094 c 0,21,22
 183 1094 183 1094 179 1063 c 128,-1,23
 175 1032 175 1032 175 1012 c 0,24,25
 175 997 175 997 176.5 978 c 128,-1,26
 178 959 178 959 181 943 c 1,27,28
 208 982 208 982 268 982 c 0,29,30
 333 982 333 982 364 941.5 c 128,-1,31
 395 901 395 901 395 845 c 0,32,33
 395 779 395 779 359.5 729 c 128,-1,34
 324 679 324 679 249 679 c 0,35,36
 187 679 187 679 150 712 c 128,-1,37
 113 745 113 745 92.5 793.5 c 128,-1,38
 72 842 72 842 66 897.5 c 128,-1,39
 60 953 60 953 60 1003 c 0,40,41
 60 1038 60 1038 69 1075 c 128,-1,42
 78 1112 78 1112 93.5 1142 c 128,-1,43
 109 1172 109 1172 133.5 1191.5 c 128,-1,44
 158 1211 158 1211 187 1211 c 0,45,46
 205 1211 205 1211 224 1194.5 c 128,-1,47
 243 1178 243 1178 260 1159 c 128,-1,48
 277 1140 277 1140 292.5 1123.5 c 128,-1,49
 308 1107 308 1107 324 1107 c 1,50,-1
 326 1109 l 1,51,52
 345 1109 345 1109 356.5 1126 c 128,-1,53
 368 1143 368 1143 380 1162 c 128,-1,54
 392 1181 392 1181 408 1197.5 c 128,-1,55
 424 1214 424 1214 451 1214 c 0,56,57
 516 1214 516 1214 556.5 1171 c 128,-1,58
 597 1128 597 1128 597 1044 c 0,59,60
 597 979 597 979 577 921.5 c 128,-1,61
 557 864 557 864 534 806 c 128,-1,62
 511 748 511 748 490 692.5 c 128,-1,63
 469 637 469 637 469 578 c 2,64,-1
 469 575 l 1,65,-1
 472 502 l 1,66,67
 498 546 498 546 557 666 c 0,68,69
 606 763 606 763 624 802 c 0,70,71
 656 871 656 871 675 909 c 0,72,73
 703 965 703 965 728.5 1019.5 c 128,-1,74
 754 1074 754 1074 781.5 1116 c 128,-1,75
 809 1158 809 1158 841.5 1184.5 c 128,-1,76
 874 1211 874 1211 921 1211 c 256,77,78
 968 1211 968 1211 996 1193.5 c 128,-1,79
 1024 1176 1024 1176 1038 1148 c 128,-1,80
 1052 1120 1052 1120 1054.5 1082.5 c 128,-1,81
 1057 1045 1057 1045 1057 1001 c 2,82,-1
 1057 0 l 1,83,-1
 921 0 l 1,84,-1
 921 976 l 2,85,86
 921 1009 921 1009 921 1049 c 128,-1,87
 921 1089 921 1089 899 1089 c 0,88,89
 888 1089 888 1089 862.5 1053.5 c 128,-1,90
 837 1018 837 1018 811 965 c 0,91,92
 783 910 783 910 756 849 c 0,93,94
 713 752 713 752 703 734 c 0,95,96
 687 701 687 701 650.5 627.5 c 128,-1,97
 614 554 614 554 576 481 c 0,98,99
 532 398 532 398 479 299 c 1,100,-1
 479 0 l 1,101,-1
 342 0 l 1,0,-1
308 825 m 0,102,103
 308 851 308 851 295 872.5 c 128,-1,104
 282 894 282 894 252 894 c 0,105,106
 231 894 231 894 212 872.5 c 128,-1,107
 193 851 193 851 193 829 c 0,108,109
 193 804 193 804 208.5 779 c 128,-1,110
 224 754 224 754 252 754 c 0,111,112
 277 754 277 754 292.5 779 c 128,-1,113
 308 804 308 804 308 825 c 0,102,103
EndSplineSet
EndChar

StartChar: uni0E12
Encoding: 3602 3602 287
Width: 1234
VWidth: 3111
Flags: W
HStem: -28 78<637.926 708.332> 778 89<386.83 511.864> 980 112<427.608 489.596> 1080 125<215.373 318.19 588.802 649.434>
VStem: 38 120<691.12 830.944 830.103 831.785 831.785 925.216> 259 109<642.405 744.256> 516 107<123.995 187 635.628 753.059> 710 121<50.9844 264 427 984.767> 968 137<237 1202>
LayerCount: 2
Fore
SplineSet
831 137 m 2,0,1
 831 56 831 56 801.5 14 c 128,-1,2
 772 -28 772 -28 685 -28 c 0,3,4
 594 -28 594 -28 555 39 c 128,-1,5
 516 106 516 106 516 187 c 0,6,7
 516 270 516 270 569.5 338.5 c 128,-1,8
 623 407 623 407 703 427 c 1,9,-1
 703 943 l 2,10,11
 703 962 703 962 700.5 985.5 c 128,-1,12
 698 1009 698 1009 688 1030.5 c 128,-1,13
 678 1052 678 1052 661.5 1067.5 c 128,-1,14
 645 1083 645 1083 617 1083 c 0,15,16
 594 1083 594 1083 577 1067.5 c 128,-1,17
 560 1052 560 1052 542.5 1032 c 128,-1,18
 525 1012 525 1012 507.5 996 c 128,-1,19
 490 980 490 980 460 980 c 256,20,21
 433 980 433 980 409.5 996 c 128,-1,22
 386 1012 386 1012 365.5 1030 c 128,-1,23
 345 1048 345 1048 326.5 1064 c 128,-1,24
 308 1080 308 1080 289 1080 c 0,25,26
 243 1080 243 1080 218 1047.5 c 128,-1,27
 193 1015 193 1015 179.5 969 c 128,-1,28
 166 923 166 923 162 874 c 128,-1,29
 158 825 158 825 158 790 c 256,30,31
 158 756 158 756 162 717 c 128,-1,32
 166 678 166 678 176.5 630 c 128,-1,33
 187 582 187 582 207.5 518 c 128,-1,34
 228 454 228 454 259 370 c 0,35,36
 273 321 273 321 281 291 c 128,-1,37
 289 261 289 261 296 239 c 128,-1,38
 303 217 303 217 307.5 196 c 128,-1,39
 312 175 312 175 314 139 c 1,40,-1
 454 492 l 1,41,42
 424 492 424 492 389 506 c 128,-1,43
 354 520 354 520 325 543.5 c 128,-1,44
 296 567 296 567 277.5 601 c 128,-1,45
 259 635 259 635 259 675 c 0,46,47
 259 768 259 768 314.5 817.5 c 128,-1,48
 370 867 370 867 460 867 c 0,49,50
 538 867 538 867 582 821 c 128,-1,51
 626 775 626 775 626 694 c 0,52,53
 626 650 626 650 614.5 605 c 128,-1,54
 603 560 603 560 573.5 487 c 128,-1,55
 544 414 544 414 493 298.5 c 128,-1,56
 442 183 442 183 365 0 c 1,57,-1
 202 0 l 1,58,59
 193 100 193 100 166 196.5 c 128,-1,60
 139 293 139 293 111 387 c 128,-1,61
 83 481 83 481 60.5 578 c 128,-1,62
 38 675 38 675 38 778 c 0,63,64
 38 840 38 840 50 914.5 c 128,-1,65
 62 989 62 989 90 1053 c 128,-1,66
 118 1117 118 1117 166.5 1161 c 128,-1,67
 215 1205 215 1205 289 1205 c 0,68,69
 321 1205 321 1205 343 1187.5 c 128,-1,70
 365 1170 365 1170 383 1148 c 128,-1,71
 401 1126 401 1126 417 1109 c 128,-1,72
 433 1092 433 1092 454 1092 c 0,73,74
 479 1092 479 1092 496 1106 c 128,-1,75
 513 1120 513 1120 528.5 1139 c 128,-1,76
 544 1158 544 1158 558.5 1177.5 c 128,-1,77
 573 1197 573 1197 588 1211 c 1,78,79
 650 1208 650 1208 695 1183 c 128,-1,80
 740 1158 740 1158 770 1119 c 128,-1,81
 800 1080 800 1080 815.5 1028 c 128,-1,82
 831 976 831 976 831 921 c 2,83,-1
 831 407 l 1,84,85
 846 386 846 386 860 372.5 c 128,-1,86
 874 359 874 359 890 342.5 c 128,-1,87
 906 326 906 326 924.5 301.5 c 128,-1,88
 943 277 943 277 968 237 c 1,89,-1
 968 1202 l 1,90,-1
 1105 1202 l 1,91,-1
 1105 0 l 1,92,-1
 1001 0 l 1,93,-1
 831 264 l 1,94,-1
 831 137 l 2,0,1
525 689 m 256,95,96
 525 722 525 722 508.5 750 c 128,-1,97
 492 778 492 778 454 778 c 256,98,99
 416 778 416 778 392 750 c 128,-1,100
 368 722 368 722 368 689 c 256,101,102
 368 654 368 654 391 622.5 c 128,-1,103
 414 591 414 591 451 591 c 256,104,105
 490 591 490 591 507.5 622.5 c 128,-1,106
 525 654 525 654 525 689 c 256,95,96
712 330 m 1,107,108
 662 317 662 317 642.5 274 c 128,-1,109
 623 231 623 231 623 187 c 1,110,-1
 623 190 l 1,111,112
 623 149 623 149 635 102.5 c 128,-1,113
 647 56 647 56 710 50 c 1,114,-1
 710 326 l 1,115,-1
 712 330 l 1,107,108
EndSplineSet
EndChar

StartChar: uni0E13
Encoding: 3603 3603 288
Width: 1234
VWidth: 3111
Flags: W
HStem: -28 97<222.81 340.829 883.506 1002.2> 277 100<219 344.068> 1101 104<249.567 456.023>
VStem: 60 136<175.832 219.31 342 727.7> 361 102<105.068 245.702> 513 141<181 932.85 932.85 946.894 946.894 1017.33> 763 102<93.5001 165.022> 902 137<480.354 541 541 1202> 1018 102<90.2104 238.257>
LayerCount: 2
Fore
SplineSet
1120 178 m 0,0,1
 1120 95 1120 95 1076.5 33.5 c 128,-1,2
 1033 -28 1033 -28 946 -28 c 0,3,4
 865 -28 865 -28 814 6.5 c 128,-1,5
 763 41 763 41 763 122 c 0,6,7
 763 131 763 131 764.5 148.5 c 128,-1,8
 766 166 766 166 775 183 c 1,9,10
 731 143 731 143 695 98 c 128,-1,11
 659 53 659 53 635 0 c 1,12,-1
 513 0 l 1,13,-1
 513 890 l 2,14,15
 513 936 513 936 510 975.5 c 128,-1,16
 507 1015 507 1015 493 1043 c 128,-1,17
 479 1071 479 1071 449 1086 c 128,-1,18
 419 1101 419 1101 365 1101 c 0,19,20
 270 1101 270 1101 218 1064 c 128,-1,21
 166 1027 166 1027 122 946 c 1,22,-1
 308 946 l 1,23,-1
 308 862 l 1,24,25
 259 846 259 846 227.5 800 c 128,-1,26
 196 754 196 754 196 703 c 2,27,-1
 196 342 l 1,28,29
 246 377 246 377 299 377 c 0,30,31
 389 377 389 377 426 325 c 128,-1,32
 463 273 463 273 463 190 c 0,33,34
 463 109 463 109 416.5 40.5 c 128,-1,35
 370 -28 370 -28 282 -28 c 0,36,37
 228 -28 228 -28 185.5 -3.5 c 128,-1,38
 143 21 143 21 114.5 60.5 c 128,-1,39
 86 100 86 100 73 149.5 c 128,-1,40
 60 199 60 199 60 249 c 2,41,-1
 60 666 l 2,42,43
 60 703 60 703 62.5 728.5 c 128,-1,44
 65 754 65 754 74 773.5 c 128,-1,45
 83 793 83 793 99.5 810.5 c 128,-1,46
 116 828 116 828 139 853 c 1,47,-1
 28 853 l 1,48,-1
 28 992 l 1,49,50
 78 1054 78 1054 110.5 1095 c 128,-1,51
 143 1136 143 1136 179 1160.5 c 128,-1,52
 215 1185 215 1185 263.5 1195 c 128,-1,53
 312 1205 312 1205 395 1205 c 0,54,55
 476 1205 476 1205 526 1183 c 128,-1,56
 576 1161 576 1161 604 1120.5 c 128,-1,57
 632 1080 632 1080 643 1022.5 c 128,-1,58
 654 965 654 965 654 893 c 2,59,-1
 654 181 l 1,60,61
 691 217 691 217 734.5 256.5 c 128,-1,62
 778 296 778 296 815.5 339.5 c 128,-1,63
 853 383 853 383 877.5 432 c 128,-1,64
 902 481 902 481 902 541 c 2,65,-1
 902 1202 l 1,66,-1
 1039 1202 l 1,67,-1
 1039 439 l 2,68,69
 1039 414 1039 414 1025.5 395.5 c 128,-1,70
 1012 377 1012 377 992 361 c 1,71,72
 1120 321 1120 321 1120 178 c 0,0,1
1018 166 m 0,73,74
 1018 196 1018 196 1002 234.5 c 128,-1,75
 986 273 986 273 950 273 c 0,76,77
 906 273 906 273 885.5 234.5 c 128,-1,78
 865 196 865 196 865 161 c 256,79,80
 865 127 865 127 885.5 91.5 c 128,-1,81
 906 56 906 56 946 56 c 256,82,83
 986 56 986 56 1002 93.5 c 128,-1,84
 1018 131 1018 131 1018 166 c 0,73,74
361 183 m 256,85,86
 361 217 361 217 341 247 c 128,-1,87
 321 277 321 277 282 277 c 128,-1,88
 243 277 243 277 222.5 246 c 128,-1,89
 202 215 202 215 202 181 c 0,90,91
 202 137 202 137 221 103 c 128,-1,92
 240 69 240 69 286 69 c 0,93,94
 330 69 330 69 345.5 109 c 128,-1,95
 361 149 361 149 361 183 c 256,85,86
EndSplineSet
EndChar

StartChar: uni0E14
Encoding: 3604 3604 289
Width: 1234
VWidth: 3111
Flags: W
HStem: 0 21G<234 471.5 884 1024> 472 101<513.206 567> 751 111<509.858 646.077> 1098 113<386.803 729.293>
VStem: 90 141<550.75 946.016> 361 129<603.228 730.116> 666 118<605.414 731.634> 884 140<0 995.795>
LayerCount: 2
Fore
SplineSet
579 1098 m 0,0,1
 419 1098 419 1098 325 1010.5 c 128,-1,2
 231 923 231 923 231 756 c 0,3,4
 231 597 231 597 277.5 448 c 128,-1,5
 324 299 324 299 354 143 c 1,6,-1
 567 472 l 1,7,8
 472 472 472 472 416.5 514.5 c 128,-1,9
 361 557 361 557 361 656 c 0,10,11
 361 747 361 747 420 804.5 c 128,-1,12
 479 862 479 862 569 862 c 0,13,14
 662 862 662 862 723 812.5 c 128,-1,15
 784 763 784 763 784 662 c 0,16,17
 784 626 784 626 770 586.5 c 128,-1,18
 756 547 756 547 715.5 477 c 128,-1,19
 675 407 675 407 602 294 c 128,-1,20
 529 181 529 181 414 0 c 1,21,-1
 237 0 l 1,22,23
 231 93 231 93 207 186.5 c 128,-1,24
 183 280 183 280 157 373.5 c 128,-1,25
 131 467 131 467 110.5 563 c 128,-1,26
 90 659 90 659 90 756 c 0,27,28
 90 983 90 983 227.5 1097 c 128,-1,29
 365 1211 365 1211 569 1211 c 0,30,31
 668 1211 668 1211 752.5 1192 c 128,-1,32
 837 1173 837 1173 898 1126.5 c 128,-1,33
 959 1080 959 1080 991.5 1001.5 c 128,-1,34
 1024 923 1024 923 1024 805 c 2,35,-1
 1024 0 l 1,36,-1
 884 0 l 1,37,-1
 884 809 l 2,38,39
 884 974 884 974 801.5 1036 c 128,-1,40
 719 1098 719 1098 579 1098 c 0,0,1
666 659 m 0,41,42
 666 701 666 701 639 726 c 128,-1,43
 612 751 612 751 576 751 c 0,44,45
 541 751 541 751 515.5 722.5 c 128,-1,46
 490 694 490 694 490 659 c 256,47,48
 490 626 490 626 512.5 599.5 c 128,-1,49
 535 573 535 573 569 573 c 0,50,51
 606 573 606 573 636 598 c 128,-1,52
 666 623 666 623 666 659 c 0,41,42
EndSplineSet
EndChar

StartChar: uni0E15
Encoding: 3605 3605 290
Width: 1234
VWidth: 3111
Flags: W
HStem: 0 21G<243 479.5 870 1012> 747 115<503.051 610.054> 1188 20G<361 413.645 734.5 782>
VStem: 95 917<668 834 768 853 864.359 962.302> 95 139<662.96 852.096 819.027 885.166> 354 122<607.641 731.935> 638 125<621.181 731.295> 870 142<0 905.267>
LayerCount: 2
Fore
SplineSet
747 1061 m 0,0,1
 724 1061 724 1061 704.5 1048.5 c 128,-1,2
 685 1036 685 1036 665 1021 c 128,-1,3
 645 1006 645 1006 621 993 c 128,-1,4
 597 980 597 980 569 980 c 0,5,6
 535 980 535 980 510 994.5 c 128,-1,7
 485 1009 485 1009 462 1026 c 128,-1,8
 439 1043 439 1043 417 1057 c 128,-1,9
 395 1071 395 1071 368 1071 c 0,10,11
 321 1071 321 1071 292.5 1038.5 c 128,-1,12
 264 1006 264 1006 252 960.5 c 128,-1,13
 240 915 240 915 237 863.5 c 128,-1,14
 234 812 234 812 234 775 c 0,15,16
 234 691 234 691 249 613 c 128,-1,17
 264 535 264 535 286 457.5 c 128,-1,18
 308 380 308 380 331 304 c 128,-1,19
 354 228 354 228 368 146 c 1,20,-1
 547 463 l 1,21,22
 467 469 467 469 410.5 524 c 128,-1,23
 354 579 354 579 354 659 c 0,24,25
 354 751 354 751 410.5 806.5 c 128,-1,26
 467 862 467 862 555 862 c 256,27,28
 641 862 641 862 702 815 c 128,-1,29
 763 768 763 768 763 675 c 0,30,31
 763 638 763 638 750 596.5 c 128,-1,32
 737 555 737 555 699.5 482.5 c 128,-1,33
 662 410 662 410 597 296.5 c 128,-1,34
 532 183 532 183 427 0 c 1,35,-1
 243 0 l 1,36,-1
 243 9 l 2,37,38
 243 109 243 109 219.5 202.5 c 128,-1,39
 196 296 196 296 169.5 388.5 c 128,-1,40
 143 481 143 481 119 574.5 c 128,-1,41
 95 668 95 668 95 768 c 0,42,43
 95 834 95 834 104 899.5 c 128,-1,44
 113 965 113 965 134 1022.5 c 128,-1,45
 155 1080 155 1080 197.5 1125 c 128,-1,46
 240 1170 240 1170 305 1191 c 0,47,48
 342 1208 342 1208 380 1208 c 1,49,-1
 560 1101 l 1,50,51
 623 1101 623 1101 666.5 1137 c 128,-1,52
 710 1173 710 1173 759 1211 c 1,53,54
 805 1205 805 1205 839.5 1177 c 128,-1,55
 874 1149 874 1149 909 1114 c 0,56,57
 971 1052 971 1052 991.5 994 c 128,-1,58
 1012 936 1012 936 1012 853 c 2,59,-1
 1012 0 l 1,60,-1
 870 0 l 1,61,-1
 870 834 l 2,62,63
 870 867 870 867 867.5 906.5 c 128,-1,64
 865 946 865 946 852.5 980.5 c 128,-1,65
 840 1015 840 1015 815 1038 c 128,-1,66
 790 1061 790 1061 747 1061 c 0,0,1
638 668 m 0,67,68
 638 703 638 703 613 725 c 128,-1,69
 588 747 588 747 557 747 c 0,70,71
 523 747 523 747 499.5 725 c 128,-1,72
 476 703 476 703 476 668 c 0,73,74
 476 632 476 632 498 604 c 128,-1,75
 520 576 520 576 560 576 c 0,76,77
 603 576 603 576 620.5 602.5 c 128,-1,78
 638 629 638 629 638 668 c 0,67,68
EndSplineSet
EndChar

StartChar: uni0E16
Encoding: 3606 3606 291
Width: 1234
VWidth: 3111
Flags: W
HStem: -28 102<351.851 496.103> 289 125<351.192 495.896> 831 104<217 293> 1098 119<390.792 725.807>
VStem: 93 937<935 961 831 866 831 831> 196 137<104.941 221.694 383 689.881> 513 122<92.0002 250.638> 893 137<0 992.226>
LayerCount: 2
Fore
SplineSet
603 1098 m 0,0,1
 481 1098 481 1098 394.5 1059.5 c 128,-1,2
 308 1021 308 1021 217 935 c 1,3,-1
 451 935 l 1,4,-1
 451 833 l 1,5,6
 401 812 401 812 367 760.5 c 128,-1,7
 333 709 333 709 333 653 c 2,8,-1
 333 383 l 1,9,10
 386 414 386 414 451 414 c 0,11,12
 535 414 535 414 585 348 c 128,-1,13
 635 282 635 282 635 205 c 0,14,15
 635 104 635 104 579 38 c 128,-1,16
 523 -28 523 -28 414 -28 c 0,17,18
 312 -28 312 -28 254 49.5 c 128,-1,19
 196 127 196 127 196 228 c 2,20,-1
 196 616 l 2,21,22
 196 688 196 688 218 737.5 c 128,-1,23
 240 787 240 787 293 831 c 1,24,-1
 93 831 l 1,25,-1
 93 995 l 1,26,27
 199 1088 199 1088 319 1152.5 c 128,-1,28
 439 1217 439 1217 582 1217 c 0,29,30
 659 1217 659 1217 739 1197.5 c 128,-1,31
 819 1178 819 1178 884.5 1136.5 c 128,-1,32
 950 1095 950 1095 990 1028 c 128,-1,33
 1030 961 1030 961 1030 866 c 2,34,-1
 1030 0 l 1,35,-1
 893 0 l 1,36,-1
 893 833 l 2,37,38
 893 970 893 970 807.5 1034 c 128,-1,39
 722 1098 722 1098 603 1098 c 0,0,1
513 171 m 256,40,41
 513 215 513 215 494.5 252 c 128,-1,42
 476 289 476 289 427 289 c 256,43,44
 377 289 377 289 353.5 254.5 c 128,-1,45
 330 220 330 220 330 178 c 256,46,47
 330 134 330 134 356.5 104 c 128,-1,48
 383 74 383 74 427 74 c 256,49,50
 469 74 469 74 491 100.5 c 128,-1,51
 513 127 513 127 513 171 c 256,40,41
EndSplineSet
EndChar

StartChar: uni0E17
Encoding: 3607 3607 292
Width: 1234
VWidth: 3111
Flags: W
HStem: 0 21G<317 458 915 1054> 805 101<182.464 294.668> 1101 104<181.58 307.523>
VStem: 44 122<935.045 1067.18> 317 141<0 580.617 787 828 957.85 1036.24> 915 139<0 1067.86>
LayerCount: 2
Fore
SplineSet
547 915 m 2,0,1
 564 943 564 943 601 991 c 128,-1,2
 638 1039 638 1039 684.5 1089.5 c 128,-1,3
 731 1140 731 1140 782.5 1175.5 c 128,-1,4
 834 1211 834 1211 878 1211 c 0,5,6
 983 1211 983 1211 1018.5 1151.5 c 128,-1,7
 1054 1092 1054 1092 1054 980 c 2,8,-1
 1054 0 l 1,9,-1
 915 0 l 1,10,-1
 915 1021 l 2,11,12
 915 1048 915 1048 908.5 1068.5 c 128,-1,13
 902 1089 902 1089 867 1092 c 1,14,-1
 870 1092 l 1,15,16
 849 1092 849 1092 808.5 1053.5 c 128,-1,17
 768 1015 768 1015 723 956 c 128,-1,18
 678 897 678 897 631.5 830 c 128,-1,19
 585 763 585 763 546 705 c 128,-1,20
 507 647 507 647 483.5 610 c 128,-1,21
 460 573 460 573 458 569 c 1,22,-1
 458 0 l 1,23,-1
 317 0 l 1,24,-1
 317 828 l 1,25,26
 286 805 286 805 246 805 c 0,27,28
 158 805 158 805 101 852 c 128,-1,29
 44 899 44 899 44 989 c 0,30,31
 44 1101 44 1101 105 1153 c 128,-1,32
 166 1205 166 1205 273 1205 c 0,33,34
 339 1205 339 1205 376.5 1177 c 128,-1,35
 414 1149 414 1149 431 1103 c 128,-1,36
 448 1057 448 1057 451 1005 c 128,-1,37
 454 953 454 953 454 899 c 2,38,-1
 454 787 l 1,39,-1
 547 915 l 2,0,1
326 992 m 0,40,41
 326 1030 326 1030 306 1065.5 c 128,-1,42
 286 1101 286 1101 246 1101 c 0,43,44
 199 1101 199 1101 182.5 1065.5 c 128,-1,45
 166 1030 166 1030 166 992 c 0,46,47
 166 959 166 959 187 932.5 c 128,-1,48
 208 906 208 906 243 906 c 0,49,50
 280 906 280 906 303 932.5 c 128,-1,51
 326 959 326 959 326 992 c 0,40,41
EndSplineSet
EndChar

StartChar: uni0E18
Encoding: 3608 3608 293
Width: 1234
VWidth: 3111
Flags: W
HStem: 0 118<348 825> 793 125<259 373.899 373.899 460 460 509.068> 980 152.5<744.497 821 849.5 866.237 866.237 925.271 925.271 970.752> 1083 128<332.933 547.221>
VStem: 211 137<118 689> 825 137<118 693.07>
LayerCount: 2
Fore
SplineSet
976 968 m 2,0,1
 906 968 906 968 849.5 980 c 128,-1,2
 793 992 793 992 731 1018 c 256,3,4
 668 1043 668 1043 601.5 1063 c 128,-1,5
 535 1083 535 1083 467 1083 c 0,6,7
 377 1083 377 1083 331.5 1041 c 128,-1,8
 286 999 286 999 259 915 c 1,9,-1
 308 918 l 2,10,11
 436 918 436 918 553.5 907.5 c 128,-1,12
 671 897 671 897 762 861 c 128,-1,13
 853 825 853 825 907.5 761.5 c 128,-1,14
 962 698 962 698 962 594 c 2,15,-1
 962 0 l 1,16,-1
 211 0 l 1,17,-1
 211 689 l 1,18,-1
 348 689 l 1,19,-1
 348 118 l 1,20,-1
 825 118 l 1,21,-1
 825 569 l 2,22,23
 825 659 825 659 768.5 705 c 128,-1,24
 712 751 712 751 631 767.5 c 128,-1,25
 550 784 550 784 460 785.5 c 128,-1,26
 370 787 370 787 303 793 c 2,27,-1
 95 793 l 1,28,29
 104 837 104 837 105 876 c 128,-1,30
 106 915 106 915 122 955 c 0,31,32
 155 1071 155 1071 248.5 1141 c 128,-1,33
 342 1211 342 1211 460 1211 c 2,34,-1
 520 1208 l 1,35,36
 555 1197 555 1197 607 1183.5 c 128,-1,37
 659 1170 659 1170 715.5 1156 c 128,-1,38
 772 1142 772 1142 821 1132.5 c 128,-1,39
 870 1123 870 1123 899 1123 c 0,40,41
 932 1123 932 1123 972 1127 c 128,-1,42
 1012 1131 1012 1131 1027 1142 c 1,43,-1
 1027 971 l 1,44,-1
 976 968 l 2,0,1
EndSplineSet
EndChar

StartChar: uni0E19
Encoding: 3609 3609 294
Width: 1234
VWidth: 3111
Flags: W
HStem: -28 97<844.221 973.832> 824 93<182.782 289.774> 1109 101<183.595 309.407>
VStem: 50 119<944.875 1078.76> 314 137<211 845 944.331 988.031 988.031 1054.46> 698 124<116.5 251.526> 890 137<552.689 1202> 999 115<157.557 287.739>
LayerCount: 2
Fore
SplineSet
1114 217 m 0,0,1
 1114 175 1114 175 1101.5 130.5 c 128,-1,2
 1089 86 1089 86 1062.5 51 c 128,-1,3
 1036 16 1036 16 1000.5 -6 c 128,-1,4
 965 -28 965 -28 918 -28 c 0,5,6
 698 -28 698 -28 698 202 c 0,7,8
 698 231 698 231 707 261 c 1,9,10
 671 243 671 243 632.5 215 c 128,-1,11
 594 187 594 187 558.5 151.5 c 128,-1,12
 523 116 523 116 495 77 c 128,-1,13
 467 38 467 38 451 0 c 1,14,-1
 314 0 l 1,15,-1
 314 845 l 1,16,17
 273 824 273 824 220 824 c 0,18,19
 139 824 139 824 94.5 878 c 128,-1,20
 50 932 50 932 50 1014 c 0,21,22
 50 1104 50 1104 104 1157 c 128,-1,23
 158 1210 158 1210 249 1210 c 0,24,25
 324 1210 324 1210 364 1188 c 128,-1,26
 404 1166 404 1166 425 1128.5 c 128,-1,27
 446 1091 446 1091 448.5 1039.5 c 128,-1,28
 451 988 451 988 451 929 c 2,29,-1
 451 211 l 1,30,31
 513 273 513 273 589.5 312 c 128,-1,32
 666 351 666 351 733 393.5 c 128,-1,33
 800 436 800 436 845 496.5 c 128,-1,34
 890 557 890 557 890 662 c 2,35,-1
 890 1202 l 1,36,-1
 1027 1202 l 1,37,-1
 1027 601 l 2,38,39
 1027 555 1027 555 1006.5 511 c 128,-1,40
 986 467 986 467 955 433 c 1,41,42
 1033 404 1033 404 1073.5 353.5 c 128,-1,43
 1114 303 1114 303 1114 217 c 0,0,1
326 1010 m 256,44,45
 326 1051 326 1051 306 1080 c 128,-1,46
 286 1109 286 1109 243 1109 c 0,47,48
 202 1109 202 1109 185.5 1076.5 c 128,-1,49
 169 1044 169 1044 169 1010 c 256,50,51
 169 976 169 976 185.5 946.5 c 128,-1,52
 202 917 202 917 240 917 c 0,53,54
 280 917 280 917 303 943.5 c 128,-1,55
 326 970 326 970 326 1010 c 256,44,45
999 211 m 0,56,57
 999 249 999 249 979 289.5 c 128,-1,58
 959 330 959 330 915 330 c 0,59,60
 862 330 862 330 842 285 c 128,-1,61
 822 240 822 240 822 196 c 256,62,63
 822 152 822 152 844.5 110.5 c 128,-1,64
 867 69 867 69 911 69 c 256,65,66
 955 69 955 69 977 120 c 128,-1,67
 999 171 999 171 999 211 c 0,56,57
EndSplineSet
EndChar

StartChar: uni0E1A
Encoding: 3610 3610 295
Width: 1234
VWidth: 3111
Flags: W
HStem: 0 118<460 936> 808 100<188.979 300.645> 1113 97<184.973 318.833>
VStem: 47 124<927.618 1082.05> 324 136<118 833 961.99 1052.03> 936 138<118 1202>
LayerCount: 2
Fore
SplineSet
324 833 m 1,0,1
 305 817 305 817 282 812.5 c 128,-1,2
 259 808 259 808 237 808 c 0,3,4
 149 808 149 808 98 862.5 c 128,-1,5
 47 917 47 917 47 1003 c 0,6,7
 47 1098 47 1098 101 1154 c 128,-1,8
 155 1210 155 1210 246 1210 c 0,9,10
 365 1210 365 1210 412.5 1139.5 c 128,-1,11
 460 1069 460 1069 460 961 c 2,12,-1
 460 118 l 1,13,-1
 936 118 l 1,14,-1
 936 1202 l 1,15,-1
 1074 1202 l 1,16,-1
 1074 0 l 1,17,-1
 324 0 l 1,18,-1
 324 833 l 1,0,1
336 1007 m 0,19,20
 336 1047 336 1047 316 1080 c 128,-1,21
 296 1113 296 1113 252 1113 c 0,22,23
 202 1113 202 1113 186.5 1080 c 128,-1,24
 171 1047 171 1047 171 1007 c 0,25,26
 171 964 171 964 194 936 c 128,-1,27
 217 908 217 908 261 908 c 256,28,29
 305 908 305 908 320.5 940.5 c 128,-1,30
 336 973 336 973 336 1007 c 0,19,20
EndSplineSet
EndChar

StartChar: uni0E1B
Encoding: 3611 3611 296
Width: 1234
VWidth: 3111
Flags: W
HStem: 0 118<460 932> 808 100<188.979 320.729> 1113 97<184.973 315.866>
VStem: 47 124<927.618 1082.05> 324 136<118 833 959.929 1052.03> 932 142<118 1639>
LayerCount: 2
Fore
SplineSet
324 833 m 1,0,1
 289 808 289 808 237 808 c 0,2,3
 149 808 149 808 98 862.5 c 128,-1,4
 47 917 47 917 47 1003 c 0,5,6
 47 1098 47 1098 101 1154 c 128,-1,7
 155 1210 155 1210 246 1210 c 0,8,9
 365 1210 365 1210 412.5 1139.5 c 128,-1,10
 460 1069 460 1069 460 961 c 2,11,-1
 460 118 l 1,12,-1
 932 118 l 1,13,-1
 932 1639 l 1,14,-1
 1074 1639 l 1,15,-1
 1074 0 l 1,16,-1
 324 0 l 1,17,-1
 324 833 l 1,0,1
333 1007 m 0,18,19
 333 1047 333 1047 313 1080 c 128,-1,20
 293 1113 293 1113 249 1113 c 0,21,22
 202 1113 202 1113 186.5 1080 c 128,-1,23
 171 1047 171 1047 171 1007 c 0,24,25
 171 964 171 964 194 936 c 128,-1,26
 217 908 217 908 261 908 c 256,27,28
 305 908 305 908 319 940.5 c 128,-1,29
 333 973 333 973 333 1007 c 0,18,19
EndSplineSet
EndChar

StartChar: uni0E1C
Encoding: 3612 3612 297
Width: 1234
VWidth: 3111
Flags: W
HStem: 0 21G<127 346.664 808.979 1030> 792 122<297.752 435.511> 1091 122<314.743 420.576>
VStem: 127 137<146 827 938.239 1049.63> 454 122<931.716 1072.07> 893 137<149 1202>
LayerCount: 2
Fore
SplineSet
336 0 m 1,0,-1
 127 0 l 1,1,-1
 127 1003 l 2,2,3
 127 1047 127 1047 148 1086 c 128,-1,4
 169 1125 169 1125 201.5 1153 c 128,-1,5
 234 1181 234 1181 274 1197 c 128,-1,6
 314 1213 314 1213 354 1213 c 0,7,8
 451 1213 451 1213 513.5 1158.5 c 128,-1,9
 576 1104 576 1104 576 1003 c 256,10,11
 576 905 576 905 519.5 848.5 c 128,-1,12
 463 792 463 792 365 792 c 0,13,14
 303 792 303 792 264 827 c 1,15,-1
 264 146 l 1,16,-1
 547 617 l 1,17,-1
 635 617 l 1,18,-1
 893 149 l 1,19,-1
 893 1202 l 1,20,-1
 1030 1202 l 1,21,-1
 1030 0 l 1,22,-1
 819 0 l 1,23,-1
 585 467 l 1,24,-1
 336 0 l 1,0,-1
454 1003 m 0,25,26
 454 1044 454 1044 426 1067.5 c 128,-1,27
 398 1091 398 1091 361 1091 c 0,28,29
 326 1091 326 1091 292.5 1066.5 c 128,-1,30
 259 1042 259 1042 259 1003 c 0,31,32
 259 961 259 961 292.5 937.5 c 128,-1,33
 326 914 326 914 365 914 c 128,-1,34
 404 914 404 914 429 937.5 c 128,-1,35
 454 961 454 961 454 1003 c 0,25,26
EndSplineSet
EndChar

StartChar: uni0E1D
Encoding: 3613 3613 298
Width: 1234
VWidth: 3111
Flags: W
HStem: 0 21G<131 349.664 811.979 1033> 792 125<298.815 440.295> 1091 122<314.512 424.003>
VStem: 131 137<146 827 941.238 1052.2> 458 121<934.468 1072.07> 897 136<149 1672>
LayerCount: 2
Fore
SplineSet
339 0 m 1,0,-1
 131 0 l 1,1,-1
 131 1003 l 2,2,3
 131 1047 131 1047 151 1086 c 128,-1,4
 171 1125 171 1125 204 1153 c 128,-1,5
 237 1181 237 1181 277 1197 c 128,-1,6
 317 1213 317 1213 359 1213 c 0,7,8
 454 1213 454 1213 516.5 1158.5 c 128,-1,9
 579 1104 579 1104 579 1003 c 256,10,11
 579 905 579 905 523 848.5 c 128,-1,12
 467 792 467 792 368 792 c 0,13,14
 305 792 305 792 268 827 c 1,15,-1
 268 146 l 1,16,-1
 547 617 l 1,17,-1
 635 617 l 1,18,-1
 897 149 l 1,19,-1
 897 1672 l 1,20,-1
 1033 1672 l 1,21,-1
 1033 0 l 1,22,-1
 822 0 l 1,23,-1
 588 467 l 1,24,-1
 339 0 l 1,0,-1
458 1003 m 256,25,26
 458 1044 458 1044 429.5 1067.5 c 128,-1,27
 401 1091 401 1091 365 1091 c 256,28,29
 326 1091 326 1091 293.5 1067.5 c 128,-1,30
 261 1044 261 1044 261 1003 c 256,31,32
 261 964 261 964 293.5 940.5 c 128,-1,33
 326 917 326 917 368 917 c 256,34,35
 407 917 407 917 432.5 940.5 c 128,-1,36
 458 964 458 964 458 1003 c 256,25,26
EndSplineSet
EndChar

StartChar: uni0E1E
Encoding: 3614 3614 299
Width: 1234
VWidth: 3111
Flags: W
HStem: 0 21G<308 516.484 882.428 1077> 799 100<160.927 287.78> 1122 91<159.644 307.673>
VStem: 21 116<924.853 1095.99> 308 138<146 813> 330 116<966.193 1048.79> 939 138<146 1202>
LayerCount: 2
Fore
SplineSet
511 0 m 1,0,-1
 308 0 l 1,1,-1
 308 813 l 1,2,3
 293 804 293 804 271 801.5 c 128,-1,4
 249 799 249 799 234 799 c 0,5,6
 127 799 127 799 74 854.5 c 128,-1,7
 21 910 21 910 21 1014 c 0,8,9
 21 1109 21 1109 85 1161 c 128,-1,10
 149 1213 149 1213 243 1213 c 0,11,12
 351 1213 351 1213 398.5 1150.5 c 128,-1,13
 446 1088 446 1088 446 982 c 2,14,-1
 446 146 l 1,15,-1
 654 881 l 1,16,-1
 737 881 l 1,17,-1
 939 146 l 1,18,-1
 939 1202 l 1,19,-1
 1077 1202 l 1,20,-1
 1077 0 l 1,21,-1
 888 0 l 1,22,-1
 698 682 l 1,23,-1
 511 0 l 1,0,-1
330 1007 m 256,24,25
 330 1047 330 1047 306 1084.5 c 128,-1,26
 282 1122 282 1122 240 1122 c 0,27,28
 187 1122 187 1122 162 1088 c 128,-1,29
 137 1054 137 1054 137 1007 c 0,30,31
 137 964 137 964 165 931.5 c 128,-1,32
 193 899 193 899 240 899 c 0,33,34
 282 899 282 899 306 933 c 128,-1,35
 330 967 330 967 330 1007 c 256,24,25
EndSplineSet
EndChar

StartChar: uni0E1F
Encoding: 3615 3615 300
Width: 1234
VWidth: 3111
Flags: W
HStem: 0 21G<308 516.484 882.428 1077> 799 100<163.036 287.78> 1122 91<159.644 307.673>
VStem: 21 116<926.081 1095.99> 308 138<146 813> 330 116<966.193 1048.79> 939 138<146 1642>
LayerCount: 2
Fore
SplineSet
511 0 m 1,0,-1
 308 0 l 1,1,-1
 308 813 l 1,2,3
 293 804 293 804 271 801.5 c 128,-1,4
 249 799 249 799 234 799 c 0,5,6
 127 799 127 799 74 854.5 c 128,-1,7
 21 910 21 910 21 1014 c 0,8,9
 21 1109 21 1109 85 1161 c 128,-1,10
 149 1213 149 1213 243 1213 c 0,11,12
 351 1213 351 1213 398.5 1150.5 c 128,-1,13
 446 1088 446 1088 446 982 c 2,14,-1
 446 146 l 1,15,-1
 654 881 l 1,16,-1
 737 881 l 1,17,-1
 939 146 l 1,18,-1
 939 1642 l 1,19,-1
 1077 1642 l 1,20,-1
 1077 0 l 1,21,-1
 888 0 l 1,22,-1
 698 682 l 1,23,-1
 511 0 l 1,0,-1
330 1007 m 256,24,25
 330 1047 330 1047 306 1084.5 c 128,-1,26
 282 1122 282 1122 240 1122 c 0,27,28
 187 1122 187 1122 162 1088 c 128,-1,29
 137 1054 137 1054 137 1007 c 0,30,31
 137 964 137 964 166.5 931.5 c 128,-1,32
 196 899 196 899 240 899 c 256,33,34
 282 899 282 899 306 933 c 128,-1,35
 330 967 330 967 330 1007 c 256,24,25
EndSplineSet
EndChar

